<svg xmlns="http://www.w3.org/2000/svg" width="65.705" height="44.7" viewBox="0 0 65.705 44.7">
  <g id="Group_1072836" data-name="Group 1072836" transform="translate(-2 -83.2)">
    <path id="Path_610462" data-name="Path 610462" d="M27.441,87.753,22.462,83.2H2v44.7H57.707V87.753Z" transform="translate(0)" fill="#a77d27"/>
    <path id="Path_610463" data-name="Path 610463" d="M27.441,87.753,22.462,83.2H2v.75H22.462l4.98,4.566H57.707v-.763Z" transform="translate(0)" fill="#e1a426"/>
    <path id="Path_610464" data-name="Path 610464" d="M36.6,147.7H83.357v28.843H36.6Z" transform="translate(-30.125 -56.158)" fill="#eff3f5"/>
    <path id="Path_610465" data-name="Path 610465" d="M36.275,179.337,40.841,176H67.705l-10,32.7H2l8.976-29.36Z" transform="translate(0 -80.797)" fill="#e6bd6b"/>
    <path id="Path_610466" data-name="Path 610466" d="M10.976,180.242h25.3l4.566-3.337H67.433l.272-.905H40.841l-4.566,3.337h-25.3L2,208.7h.272Z" transform="translate(0 -80.797)" fill="#e1a426"/>
  </g>
</svg>
