<svg xmlns="http://www.w3.org/2000/svg" xmlns:xlink="http://www.w3.org/1999/xlink" width="117" height="117" viewBox="0 0 117 117">
  <defs>
    <clipPath id="clip-path">
      <rect id="Rectangle_378082" data-name="Rectangle 378082" width="61.3" height="61.2" transform="translate(0 0)" fill="#66542f"/>
    </clipPath>
  </defs>
  <g id="Group_1074271" data-name="Group 1074271" transform="translate(-322 -1053)">
    <g id="Group_1073679" data-name="Group 1073679">
      <g id="Group_1072641" data-name="Group 1072641" transform="translate(-1112.668 -4829)">
        <g id="Group_1072229" data-name="Group 1072229" transform="translate(1434.668 5882)">
          <path id="Path_608385" data-name="Path 608385" d="M58.5,0A58.5,58.5,0,1,1,0,58.5,58.5,58.5,0,0,1,58.5,0Z" transform="translate(0)" fill="#fff"/>
        </g>
      </g>
    </g>
    <g id="Group_1073678" data-name="Group 1073678" transform="translate(349.301 1081.95)">
      <g id="Group_1072923" data-name="Group 1072923" clip-path="url(#clip-path)">
        <path id="Path_610784" data-name="Path 610784" d="M59.9,47.2V1.3A1.325,1.325,0,0,0,58.6,0H43.3A1.324,1.324,0,0,0,42,1.3V47.2H39.5V1.3A1.323,1.323,0,0,0,38.2,0H23a1.324,1.324,0,0,0-1.3,1.3V47.2H19.1V1.3A1.324,1.324,0,0,0,17.8,0H2.6A1.323,1.323,0,0,0,1.3,1.3V47.2A1.324,1.324,0,0,0,0,48.5v7.6a1.324,1.324,0,0,0,1.3,1.3H6.4v2.5a1.3,1.3,0,0,0,2.6,0V57.4H52.3v2.5a1.3,1.3,0,0,0,2.6,0V57.4H60a1.323,1.323,0,0,0,1.3-1.3V48.5a1.407,1.407,0,0,0-1.4-1.3M44.6,2.6H57.3V47.2H44.6Zm-20.4,0H36.9V47.2H24.2ZM3.8,2.6H16.5V47.2H3.8ZM58.6,54.8H2.6V49.7H58.7Z" fill="#66542f"/>
        <path id="Path_610785" data-name="Path 610785" d="M10.2,34.4a5.1,5.1,0,1,0,5.1,5.1,5.121,5.121,0,0,0-5.1-5.1m0,7.7a2.5,2.5,0,1,1,2.5-2.5,2.476,2.476,0,0,1-2.5,2.5" fill="#66542f"/>
        <path id="Path_610786" data-name="Path 610786" d="M7.7,7.7h5.1a1.3,1.3,0,1,0,0-2.6H7.7a1.3,1.3,0,0,0,0,2.6" fill="#66542f"/>
        <path id="Path_610787" data-name="Path 610787" d="M7.7,12.8h5.1a1.3,1.3,0,1,0,0-2.6H7.7a1.3,1.3,0,0,0,0,2.6" fill="#66542f"/>
        <path id="Path_610788" data-name="Path 610788" d="M7.7,17.9h5.1a1.3,1.3,0,1,0,0-2.6H7.7a1.3,1.3,0,1,0,0,2.6" fill="#66542f"/>
        <path id="Path_610789" data-name="Path 610789" d="M30.6,34.4a5.1,5.1,0,1,0,5.1,5.1,5.121,5.121,0,0,0-5.1-5.1m0,7.7a2.5,2.5,0,1,1,2.5-2.5,2.54,2.54,0,0,1-2.5,2.5" fill="#66542f"/>
        <path id="Path_610790" data-name="Path 610790" d="M28.1,7.7h5a1.3,1.3,0,1,0,0-2.6h-5a1.324,1.324,0,0,0-1.3,1.3,1.261,1.261,0,0,0,1.3,1.3" fill="#66542f"/>
        <path id="Path_610791" data-name="Path 610791" d="M28.1,12.8h5a1.3,1.3,0,1,0,0-2.6h-5a1.324,1.324,0,0,0-1.3,1.3,1.261,1.261,0,0,0,1.3,1.3" fill="#66542f"/>
        <path id="Path_610792" data-name="Path 610792" d="M28.1,17.9h5a1.3,1.3,0,1,0,0-2.6h-5a1.324,1.324,0,0,0-1.3,1.3,1.261,1.261,0,0,0,1.3,1.3" fill="#66542f"/>
        <path id="Path_610793" data-name="Path 610793" d="M51,34.4a5.1,5.1,0,1,0,5.1,5.1A5.121,5.121,0,0,0,51,34.4m0,7.7a2.5,2.5,0,1,1,2.5-2.5A2.54,2.54,0,0,1,51,42.1" fill="#66542f"/>
        <path id="Path_610794" data-name="Path 610794" d="M48.4,7.7h5.1a1.3,1.3,0,0,0,0-2.6H48.4a1.325,1.325,0,0,0-1.3,1.3,1.4,1.4,0,0,0,1.3,1.3" fill="#66542f"/>
        <path id="Path_610795" data-name="Path 610795" d="M48.4,12.8h5.1a1.3,1.3,0,0,0,0-2.6H48.4a1.325,1.325,0,0,0-1.3,1.3,1.4,1.4,0,0,0,1.3,1.3" fill="#66542f"/>
        <path id="Path_610796" data-name="Path 610796" d="M48.4,17.9h5.1a1.3,1.3,0,0,0,0-2.6H48.4a1.325,1.325,0,0,0-1.3,1.3,1.4,1.4,0,0,0,1.3,1.3" fill="#66542f"/>
      </g>
    </g>
  </g>
</svg>
