<svg xmlns="http://www.w3.org/2000/svg" xmlns:xlink="http://www.w3.org/1999/xlink" width="820" height="489" viewBox="0 0 820 489">
  <defs>
    <clipPath id="clip-path">
      <rect id="Rectangle_378651" data-name="Rectangle 378651" width="820" height="489" transform="translate(390 1014)" fill="#ebddcf"/>
    </clipPath>
    <clipPath id="clip-path-2">
      <rect id="Rectangle_378629" data-name="Rectangle 378629" width="630.149" height="422.775" fill="none"/>
    </clipPath>
    <clipPath id="clip-path-3">
      <rect id="Rectangle_378627" data-name="Rectangle 378627" width="630.15" height="422.775" fill="none"/>
    </clipPath>
    <clipPath id="clip-path-4">
      <rect id="Rectangle_378622" data-name="Rectangle 378622" width="233.258" height="292.908" fill="none"/>
    </clipPath>
    <clipPath id="clip-path-5">
      <rect id="Rectangle_378626" data-name="Rectangle 378626" width="236.443" height="273.612" fill="none"/>
    </clipPath>
    <clipPath id="clip-path-7">
      <rect id="Rectangle_378633" data-name="Rectangle 378633" width="214.144" height="323.995" fill="none"/>
    </clipPath>
    <clipPath id="clip-path-9">
      <rect id="Rectangle_378631" data-name="Rectangle 378631" width="2.472" height="2.465" fill="none"/>
    </clipPath>
  </defs>
  <g id="Group_1074269" data-name="Group 1074269" transform="translate(-390 -977)">
    <path id="Path_613471" data-name="Path 613471" d="M0,0H820V484H0Z" transform="translate(390 977)" fill="#ebddcf"/>
    <g id="Mask_Group_154432" data-name="Mask Group 154432" transform="translate(0 -37)" clip-path="url(#clip-path)">
      <g id="Group_1073833" data-name="Group 1073833" transform="translate(44.551 1101.983)">
        <path id="Path_612234" data-name="Path 612234" d="M371.624,0V30.874H358.3V151.018H340.8v-37h-9.213v-8.937l-20.16,8.937h-4.937V91.792L282.374,59.578,258.257,91.792v75.586h-11.32v14.687H230.228V122.119H216.385l.575-24.873H200.939V90.122H184.706l-2.5-43.08-2.5,43.08h-3.122v7.124h-4.213l1.542,66.613h-2.99V134.47l-33.565-20.451v37H103.8v-28.9H83.079V105.082L47.588,130.937V105.082L0,139.748V393.095H758.61V146.19H742.446l1.133-48.944H709.2V26.4H688.79v15.06H668.378V55.246H647.965v71.087H632.273V93.282h-5.589V89.637H590.275v3.645h-5.589V162.2h-11.38V73.626h-5.59V69.981H531.309v3.645H525.72v51H513.332V93.282h-5.59V89.637H471.335v3.645h-5.592v11.8l-11.684,12.982V139.83H438.436v-13.5h-8.063V93.282H400.638V73.713L387.959,62.554V30.874H374.636V0Z" transform="translate(0 0)" fill="#dec6b0"/>
        <path id="Path_612235" data-name="Path 612235" d="M28.787,77.6v34.374L0,155.878v275.03H179.717v.062h58.76v-.062H758.611V246.752L723.118,220.9V162.089l-57.191-57.927V229.121H654.812v28.9H621.247v-37l-33.565,20.451v29.388h-4.169l2.721-83.32H581.6v-7.829H554.842v7.829H537.235l.893,27.336H522.652v74.19h-9.91v-135L482.43,113.578l-30.312,40.487v66.957H447.18l-20.16-8.938v8.938h-9.213v37h-17.5V137.877H370.652v31.68l-12.679,11.159v19.569H328.237v33.051h-8.063v13.5H289.519V225.067l-11.684-12.984v-11.8h-5.59v-3.645H235.837v3.645h-5.589v31.349h-6.8v-57.4h-6.9v-4.5H171.589v4.5h-6.9V269.2h-5.792V200.284H153.3v-3.645H116.9v3.645h-5.59v33.051h-3.97V200.685H79.231l-.112-87.518v-17H53.953V77.6Z" transform="translate(0 20.104)" fill="#c8b29e"/>
        <path id="Path_612236" data-name="Path 612236" d="M969.114,0V30.874H955.791V151.018h-17.5v-37H929.08v-8.937l-20.159,8.937h-4.938V91.792L879.865,59.578,855.746,91.792v75.586h-11.32v14.687H827.718V122.119H813.874l.575-24.873H798.429V90.122H782.2l-2.5-43.08-2.5,43.08h-3.123v7.124h-4.214l1.542,66.613h-2.989V134.47l-33.566-20.451v37H701.288v-28.9H680.569V105.082l-35.491,25.855V105.082l-47.588,34.666V393.095H1356.1V146.19h-16.164l1.135-48.944h-34.378V26.4h-20.412v15.06h-20.412V55.246h-20.411v71.087h-15.693V93.282h-5.589V89.637h-36.409v3.645h-5.589V162.2H1170.8V73.626h-5.59V69.981H1128.8v3.645h-5.589v51h-12.387V93.282h-5.59V89.637h-36.408v3.645h-5.59v11.8l-11.684,12.982V139.83h-15.624v-13.5h-8.063V93.282H998.127V73.713L985.449,62.554V30.874H972.126V0Z" transform="translate(154.799 0)" fill="#dec6b0"/>
        <path id="Path_612237" data-name="Path 612237" d="M626.276,77.6v34.374l-28.788,43.905v275.03H777.207v.062h58.761v-.062H1356.1V246.752L1320.609,220.9V162.089l-57.191-57.927V229.121H1252.3v28.9h-33.565v-37l-33.564,20.451v29.388H1181l2.721-83.32h-4.631v-7.829h-26.761v7.829h-17.607l.891,27.336h-15.475v74.19h-9.909v-135l-30.314-40.487-30.312,40.487v66.957h-4.937l-20.159-8.938v8.938H1015.3v37H997.8V137.877H968.141v31.68l-12.678,11.159v19.569H925.728v33.051h-8.063v13.5H887.009V225.067l-11.684-12.984v-11.8h-5.59v-3.645H833.326v3.645h-5.589v31.349h-6.8v-57.4h-6.9v-4.5H769.078v4.5h-6.9V269.2h-5.793V200.284h-5.589v-3.645H714.386v3.645H708.8v33.051h-3.97V200.685H676.719l-.109-87.518v-17H651.443V77.6Z" transform="translate(154.799 20.104)" fill="#c8b29e"/>
      </g>
    </g>
    <g id="Group_1073831" data-name="Group 1073831" transform="translate(412.675 985.5)">
      <g id="Group_1073815" data-name="Group 1073815" transform="translate(0 0)" clip-path="url(#clip-path-2)">
        <path id="Path_612100" data-name="Path 612100" d="M2364.166,577.065,2255.18,835.189l-129.842-54.821L2063,754.047l107.822-255.367,1.165-2.757,6.018,2.541,81.456,34.392Z" transform="translate(-1737.008 -417.558)" fill="#fff"/>
        <g id="Group_1073812" data-name="Group 1073812" transform="translate(0 0)">
          <g id="Group_1073811" data-name="Group 1073811" clip-path="url(#clip-path-3)">
            <path id="Path_612101" data-name="Path 612101" d="M2777.359,746.479h0a3.065,3.065,0,0,1,4.016-1.632L2866,780.579a3.065,3.065,0,1,1-2.385,5.648L2778.99,750.5a3.066,3.066,0,0,1-1.632-4.016" transform="translate(-2338.282 -626.945)" fill="#d0dd63"/>
            <path id="Path_612102" data-name="Path 612102" d="M2733.751,849.761h0a3.066,3.066,0,0,1,4.016-1.632l131.516,55.529a3.065,3.065,0,1,1-2.385,5.648l-131.516-55.529a3.065,3.065,0,0,1-1.632-4.016" transform="translate(-2301.565 -713.906)" fill="#a3bac4"/>
            <path id="Path_612103" data-name="Path 612103" d="M2693.312,945.539h0a3.065,3.065,0,0,1,4.016-1.632l131.516,55.529a3.065,3.065,0,1,1-2.385,5.648l-131.516-55.529a3.065,3.065,0,0,1-1.632-4.016" transform="translate(-2267.516 -794.55)" fill="#a3bac4"/>
            <path id="Path_612104" data-name="Path 612104" d="M2382.994,1680.5h0a3.066,3.066,0,0,1,4.017-1.632l84.628,35.732a3.065,3.065,0,0,1-2.385,5.648l-84.628-35.732a3.066,3.066,0,0,1-1.632-4.016" transform="translate(-2006.234 -1413.377)" fill="#d0dd63"/>
            <path id="Path_612105" data-name="Path 612105" d="M2340.046,1782.224h0a3.066,3.066,0,0,1,4.017-1.632l146.966,62.052a3.065,3.065,0,1,1-2.385,5.648l-146.966-62.052a3.066,3.066,0,0,1-1.632-4.016" transform="translate(-1970.073 -1499.023)" fill="#a3bac4"/>
            <path id="Path_612106" data-name="Path 612106" d="M2298.119,1881.526h0a3.066,3.066,0,0,1,4.017-1.632l146.966,62.052a3.065,3.065,0,1,1-2.385,5.648l-146.966-62.052a3.066,3.066,0,0,1-1.632-4.016" transform="translate(-1934.771 -1582.634)" fill="#a3bac4"/>
            <path id="Path_612107" data-name="Path 612107" d="M2254.974,1983.714h0a3.066,3.066,0,0,1,4.016-1.632l146.966,62.052a3.065,3.065,0,1,1-2.384,5.648l-146.966-62.052a3.065,3.065,0,0,1-1.632-4.016" transform="translate(-1898.443 -1668.674)" fill="#a3bac4"/>
            <rect id="Rectangle_378618" data-name="Rectangle 378618" width="56.658" height="35.046" transform="matrix(0.389, -0.921, 0.921, 0.389, 395.88, 248.439)" fill="#d0dd63"/>
            <rect id="Rectangle_378619" data-name="Rectangle 378619" width="71.26" height="35.046" transform="translate(450.394 271.455) rotate(-67.11)" fill="#feb50e"/>
            <rect id="Rectangle_378620" data-name="Rectangle 378620" width="86.447" height="35.046" transform="matrix(0.389, -0.921, 0.921, 0.389, 500.249, 292.505)" fill="#a3bac4"/>
            <path id="Path_612108" data-name="Path 612108" d="M2022.532,369.893l-54.8,274.778-138.219-27.565-66.361-13.235,54.215-271.843.586-2.935,6.406,1.277,86.711,17.293Z" transform="translate(-1484.542 -277.091)" fill="#ededed"/>
            <path id="Path_612109" data-name="Path 612109" d="M2187.484,565.939h0a3.065,3.065,0,0,1,3.605-2.407l90.088,17.966a3.065,3.065,0,0,1,2.407,3.606h0a3.065,3.065,0,0,1-3.605,2.407l-90.088-17.966a3.065,3.065,0,0,1-2.406-3.606" transform="translate(-1841.771 -474.434)" fill="#d0dd63"/>
            <path id="Path_612110" data-name="Path 612110" d="M2165.557,675.885h0a3.065,3.065,0,0,1,3.606-2.406l140,27.921a3.065,3.065,0,0,1-1.2,6.012l-140-27.921a3.065,3.065,0,0,1-2.406-3.606" transform="translate(-1823.309 -567.007)" fill="#a3bac4"/>
            <path id="Path_612111" data-name="Path 612111" d="M2145.224,777.842h0a3.065,3.065,0,0,1,3.606-2.407l140,27.921a3.065,3.065,0,0,1-1.2,6.012l-140-27.921a3.065,3.065,0,0,1-2.406-3.606" transform="translate(-1806.189 -652.853)" fill="#a3bac4"/>
            <path id="Path_612112" data-name="Path 612112" d="M1989.192,1560.226h0a3.065,3.065,0,0,1,3.606-2.407l90.088,17.966a3.065,3.065,0,0,1-1.2,6.012l-90.089-17.966a3.065,3.065,0,0,1-2.406-3.606" transform="translate(-1674.813 -1311.606)" fill="#d0dd63"/>
            <path id="Path_612113" data-name="Path 612113" d="M1967.6,1668.509h0a3.065,3.065,0,0,1,3.606-2.406l156.448,31.2a3.065,3.065,0,1,1-1.2,6.012L1970,1672.115a3.065,3.065,0,0,1-2.407-3.606" transform="translate(-1656.63 -1402.778)" fill="#a3bac4"/>
            <path id="Path_612114" data-name="Path 612114" d="M2132.605,875.213h0a3.065,3.065,0,0,1,3.605-2.407l156.448,31.2a3.065,3.065,0,0,1-1.2,6.012l-156.448-31.2a3.065,3.065,0,0,1-2.406-3.606" transform="translate(-1795.565 -734.837)" fill="#a3bac4"/>
            <path id="Path_612115" data-name="Path 612115" d="M2099.807,965.876h0a3.065,3.065,0,0,1,3.605-2.407l156.448,31.2a3.065,3.065,0,1,1-1.2,6.012l-156.448-31.2a3.065,3.065,0,0,1-2.406-3.606" transform="translate(-1767.949 -811.174)" fill="#a3bac4"/>
            <path id="Path_612116" data-name="Path 612116" d="M2099.807,1095.857h0a3.065,3.065,0,0,1,3.605-2.406l156.448,31.2a3.065,3.065,0,1,1-1.2,6.012l-156.448-31.2a3.065,3.065,0,0,1-2.406-3.606" transform="translate(-1767.949 -920.616)" fill="#a3bac4"/>
            <path id="Path_612117" data-name="Path 612117" d="M1946.514,1774.217h0a3.065,3.065,0,0,1,3.606-2.407l156.448,31.2a3.065,3.065,0,1,1-1.2,6.012l-156.448-31.2a3.065,3.065,0,0,1-2.407-3.606" transform="translate(-1638.88 -1491.782)" fill="#a3bac4"/>
            <path id="Path_612118" data-name="Path 612118" d="M1924.821,1883h0a3.065,3.065,0,0,1,3.606-2.406l156.448,31.2a3.065,3.065,0,0,1-1.2,6.012l-156.448-31.2a3.065,3.065,0,0,1-2.406-3.606" transform="translate(-1620.614 -1583.374)" fill="#a3bac4"/>
            <rect id="Rectangle_378621" data-name="Rectangle 378621" width="56.658" height="35.046" transform="translate(329.346 226.465) rotate(-78.721)" fill="#d0dd63"/>
            <path id="Path_612119" data-name="Path 612119" d="M1265.571,2118.114s19.565,19.416,43.517,8.755c18.629-8.291,58.672-59.014,61.214-71.462,9.635-47.173-47.78-21.81-55.635-12.621s-49.1,75.328-49.1,75.328" transform="translate(-1065.588 -1707.291)" fill="#e8a11c"/>
            <path id="Path_612120" data-name="Path 612120" d="M1595.994,336.7l51.758,275.367-138.515,26.036-66.5,12.5-51.205-272.426-.552-2.941,6.42-1.207,86.9-16.334Z" transform="translate(-1171.177 -283.499)" fill="#fff"/>
            <path id="Path_612121" data-name="Path 612121" d="M1556.252,673.64h0a3.065,3.065,0,0,1,2.446-3.579l90.281-16.97a3.065,3.065,0,0,1,1.133,6.025l-90.282,16.969a3.065,3.065,0,0,1-3.579-2.446" transform="translate(-1310.291 -549.847)" fill="#d0dd63"/>
            <path id="Path_612122" data-name="Path 612122" d="M1576.962,733.725h0a3.065,3.065,0,0,1,2.446-3.579l140.3-26.371a3.065,3.065,0,0,1,1.132,6.025l-140.3,26.371a3.065,3.065,0,0,1-3.579-2.446" transform="translate(-1327.729 -592.521)" fill="#a3bac4"/>
            <path id="Path_612123" data-name="Path 612123" d="M1596.167,835.9h0a3.065,3.065,0,0,1,2.446-3.579l140.3-26.371a3.065,3.065,0,0,1,1.133,6.025l-140.3,26.371a3.065,3.065,0,0,1-3.579-2.446" transform="translate(-1343.899 -678.552)" fill="#a3bac4"/>
            <path id="Path_612124" data-name="Path 612124" d="M1743.541,1670.059h0a3.065,3.065,0,0,1,2.446-3.579l90.282-16.97a3.065,3.065,0,0,1,1.132,6.025l-90.282,16.969a3.065,3.065,0,0,1-3.579-2.446" transform="translate(-1467.985 -1388.814)" fill="#d0dd63"/>
            <path id="Path_612125" data-name="Path 612125" d="M1763.938,1711.97h0a3.065,3.065,0,0,1,2.446-3.579l156.783-29.469a3.065,3.065,0,1,1,1.132,6.025l-156.783,29.469a3.065,3.065,0,0,1-3.579-2.446" transform="translate(-1485.159 -1413.578)" fill="#a3bac4"/>
            <path id="Path_612126" data-name="Path 612126" d="M1783.85,1817.9h0a3.065,3.065,0,0,1,2.446-3.578l156.783-29.469a3.065,3.065,0,1,1,1.132,6.025l-156.783,29.469a3.065,3.065,0,0,1-3.579-2.446" transform="translate(-1501.925 -1502.773)" fill="#a3bac4"/>
            <path id="Path_612127" data-name="Path 612127" d="M1804.34,1926.919h0a3.065,3.065,0,0,1,2.446-3.579l156.783-29.469a3.065,3.065,0,1,1,1.133,6.025l-156.784,29.469a3.065,3.065,0,0,1-3.579-2.446" transform="translate(-1519.177 -1594.561)" fill="#a3bac4"/>
            <path id="Path_612128" data-name="Path 612128" d="M1674.635,1263.174h0a3.065,3.065,0,0,1,2.446-3.579l156.783-29.469a3.066,3.066,0,0,1,3.579,2.446h0a3.065,3.065,0,0,1-2.446,3.579l-156.783,29.469a3.065,3.065,0,0,1-3.579-2.446" transform="translate(-1409.968 -1035.699)" fill="#a3bac4"/>
            <path id="Path_612129" data-name="Path 612129" d="M1694.547,1369.109h0a3.066,3.066,0,0,1,2.446-3.579l156.783-29.469a3.065,3.065,0,1,1,1.133,6.025l-156.783,29.469a3.066,3.066,0,0,1-3.579-2.446" transform="translate(-1426.733 -1124.895)" fill="#a3bac4"/>
            <path id="Path_612130" data-name="Path 612130" d="M1715.038,1478.123h0a3.065,3.065,0,0,1,2.446-3.579l156.784-29.469a3.065,3.065,0,0,1,1.132,6.025l-156.783,29.469a3.065,3.065,0,0,1-3.579-2.446" transform="translate(-1443.986 -1216.683)" fill="#a3bac4"/>
            <g id="Group_1073807" data-name="Group 1073807" transform="translate(220.352 74.2)" opacity="0.259">
              <g id="Group_1073806" data-name="Group 1073806">
                <g id="Group_1073805" data-name="Group 1073805" clip-path="url(#clip-path-4)">
                  <path id="Path_612131" data-name="Path 612131" d="M1627.729,668.279l-13.163,9.308,0,0-12.015,8.495-22.339,15.795h0l-12.019,8.5-56.009,39.6-66.5,12.5-51.205-272.426,5.868-4.148,86.9-16.334,21.125,29.879,3.9,5.509,7.356,10.4v0l3.893,5.505,6.538,9.249,3.894,5.507,20.482,28.971v0l41.968,59.356Z" transform="translate(-1394.471 -469.569)" fill="#919191"/>
                </g>
              </g>
            </g>
            <path id="Path_612132" data-name="Path 612132" d="M1046.068,494.382,875.736,614.813l-9.072-12.83L713.978,386.033l81.553-57.662,88.78-62.771Z" transform="translate(-601.157 -223.631)" fill="#fff"/>
            <path id="Path_612133" data-name="Path 612133" d="M945.984,834.837h0a3.065,3.065,0,0,1,.733-4.273l75.008-53.033a3.065,3.065,0,1,1,3.539,5.006L950.256,835.57a3.065,3.065,0,0,1-4.273-.733" transform="translate(-796.027 -654.194)" fill="#d0dd63"/>
            <path id="Path_612134" data-name="Path 612134" d="M1010.707,769.814h0a3.065,3.065,0,0,1,.733-4.273l116.566-82.416a3.065,3.065,0,0,1,3.539,5.006l-116.565,82.416a3.065,3.065,0,0,1-4.273-.733" transform="translate(-850.523 -574.706)" fill="#a3bac4"/>
            <path id="Path_612135" data-name="Path 612135" d="M1070.728,854.7h0a3.065,3.065,0,0,1,.733-4.272l116.565-82.416a3.065,3.065,0,0,1,3.539,5.006L1075,855.438a3.065,3.065,0,0,1-4.272-.733" transform="translate(-901.06 -646.182)" fill="#a3bac4"/>
            <path id="Path_612136" data-name="Path 612136" d="M1531.3,1662.683h0a3.065,3.065,0,0,1,.733-4.273l75.008-53.033a3.065,3.065,0,1,1,3.539,5.006l-75.008,53.033a3.065,3.065,0,0,1-4.273-.733" transform="translate(-1288.856 -1351.225)" fill="#d0dd63"/>
            <path id="Path_612137" data-name="Path 612137" d="M1595.048,1544.687h0a3.065,3.065,0,0,1,.733-4.272l130.259-92.1a3.065,3.065,0,1,1,3.539,5.006l-130.259,92.1a3.066,3.066,0,0,1-4.273-.733" transform="translate(-1342.528 -1218.983)" fill="#a3bac4"/>
            <path id="Path_612138" data-name="Path 612138" d="M1657.276,1632.7h0a3.065,3.065,0,0,1,.733-4.273l130.259-92.1a3.065,3.065,0,1,1,3.539,5.006l-130.259,92.1a3.065,3.065,0,0,1-4.273-.733" transform="translate(-1394.923 -1293.088)" fill="#a3bac4"/>
            <path id="Path_612139" data-name="Path 612139" d="M1721.314,1723.271h0a3.065,3.065,0,0,1,.733-4.272l130.259-92.1a3.065,3.065,0,1,1,3.539,5.006L1725.586,1724a3.065,3.065,0,0,1-4.273-.733" transform="translate(-1448.841 -1369.347)" fill="#a3bac4"/>
            <rect id="Rectangle_378623" data-name="Rectangle 378623" width="35.046" height="56.658" transform="translate(203.952 239.092) rotate(-35.262)" fill="#d0dd63"/>
            <rect id="Rectangle_378624" data-name="Rectangle 378624" width="35.046" height="71.26" transform="translate(243.838 193.008) rotate(-35.262)" fill="#a3bac4"/>
            <rect id="Rectangle_378625" data-name="Rectangle 378625" width="35.046" height="86.447" transform="translate(279.259 149.365) rotate(-35.262)" fill="#a3bac4"/>
            <g id="Group_1073810" data-name="Group 1073810" transform="translate(112.821 104.74)" opacity="0.09">
              <g id="Group_1073809" data-name="Group 1073809">
                <g id="Group_1073808" data-name="Group 1073808" clip-path="url(#clip-path-5)">
                  <path id="Path_612140" data-name="Path 612140" d="M950.153,819.345a13.553,13.553,0,0,1-2.523,10.921l-6.974,9.145L928.234,855.7l-23.092,30.286-12.423,16.292-26.056,34.172L713.978,720.5l81.553-57.662,13.662,10.418a7.916,7.916,0,0,1,1.439,11.1l-11.791,15.464.969.738,5.11,3.9,9.654,7.361,5.11,3.9,8.581,6.545,5.11,3.9,22.574,17.209,57.478,43.828L945.186,811.4a13.263,13.263,0,0,1,4.966,7.942" transform="translate(-713.978 -662.839)"/>
                </g>
              </g>
            </g>
            <path id="Path_612141" data-name="Path 612141" d="M143.382,450.087,200.979,494a7.675,7.675,0,0,1,1.449,10.755l-11.378,14.922L333.687,628.438a13.043,13.043,0,0,1,2.462,18.28L225.481,791.86a13.043,13.043,0,0,1-18.28,2.465L5.136,640.255a13.043,13.043,0,0,1-2.464-18.281L132.626,451.536a7.674,7.674,0,0,1,10.755-1.449" transform="translate(0 -377.642)" fill="#feb50e"/>
            <text id="_01" data-name="01" transform="translate(237.855 0.533)" font-size="1" font-family="MyriadPro-Regular, Myriad Pro"><tspan x="0" y="0">01</tspan></text>
          </g>
        </g>
        <text id="_01-2" data-name="01" transform="matrix(0.817, -0.577, 0.577, 0.817, 268.269, 99.563)" font-size="39" font-family="Bahnschrift"><tspan x="0" y="0">01</tspan></text>
        <text id="_02" data-name="02" transform="translate(384.132 97.402) rotate(-11.753)" font-size="40" font-family="Bahnschrift"><tspan x="0" y="0">02</tspan></text>
        <text id="_03" data-name="03" transform="translate(485.218 120.278) rotate(7.295)" font-size="40" font-family="Bahnschrift"><tspan x="0" y="0" letter-spacing="-0.004em">0</tspan><tspan y="0">3</tspan></text>
        <text id="_04" data-name="04" transform="translate(565.188 173.384) rotate(20.271)" font-size="40" font-family="Bahnschrift"><tspan x="0" y="0">04</tspan></text>
      </g>
    </g>
    <path id="Path_612230" data-name="Path 612230" d="M4869.651-10550.078c5-2.78,231.038-28.915,344.349,97.872" transform="translate(-4205 11646)" fill="none" stroke="#76f5f3" stroke-linecap="round" stroke-width="5"/>
    <path id="Path_612231" data-name="Path 612231" d="M5177.728-10540.077s52.828-20.576,82.3,25.023" transform="translate(-4194 11640)" fill="none" stroke="#263238" stroke-width="4"/>
    <path id="Path_612232" data-name="Path 612232" d="M5229.444-10540.077l24.468-41.15" transform="translate(-4194 11640)" fill="none" stroke="#263238" stroke-width="4"/>
    <path id="Path_612233" data-name="Path 612233" d="M5255.907-10568.727l-2.247-12.581-11.083,4.193" transform="translate(-4194 11640)" fill="none" stroke="#263238" stroke-width="4"/>
    <path id="Path_613472" data-name="Path 613472" d="M11,0H131a11,11,0,0,1,11,11V29a11,11,0,0,1-11,11H11A11,11,0,0,1,0,29V11A11,11,0,0,1,11,0Z" transform="translate(996 1012)" fill="#fff"/>
    <path id="Path_613473" data-name="Path 613473" d="M8.842-5.229H3.779V0H1.143V-12.8H9.475v2.136h-5.7v3.3H8.842Zm1.415.387A5.64,5.64,0,0,1,10.8-7.365a3.989,3.989,0,0,1,1.569-1.714,4.577,4.577,0,0,1,2.377-.606A4.33,4.33,0,0,1,17.89-8.508a4.727,4.727,0,0,1,1.358,3.2l.018.65a4.97,4.97,0,0,1-1.222,3.511A4.247,4.247,0,0,1,14.766.176a4.268,4.268,0,0,1-3.283-1.318,5.058,5.058,0,0,1-1.226-3.586Zm2.54.18a3.555,3.555,0,0,0,.51,2.073,1.682,1.682,0,0,0,1.459.717,1.686,1.686,0,0,0,1.441-.709,3.89,3.89,0,0,0,.519-2.267,3.519,3.519,0,0,0-.519-2.06,1.686,1.686,0,0,0-1.459-.731,1.658,1.658,0,0,0-1.441.726A3.955,3.955,0,0,0,12.8-4.662ZM23.511,0H20.962V-13.5h2.549Zm4.772,0H25.734V-9.51h2.549Zm-2.7-11.971a1.251,1.251,0,0,1,.382-.94,1.436,1.436,0,0,1,1.042-.369,1.44,1.44,0,0,1,1.037.369,1.244,1.244,0,0,1,.387.94,1.247,1.247,0,0,1-.391.949,1.443,1.443,0,0,1-1.033.369,1.443,1.443,0,0,1-1.033-.369A1.247,1.247,0,0,1,25.585-11.971ZM35.886,0a2.821,2.821,0,0,1-.255-.853,3.073,3.073,0,0,1-2.4,1.028,3.376,3.376,0,0,1-2.316-.809A2.6,2.6,0,0,1,30-2.672a2.687,2.687,0,0,1,1.121-2.32,5.529,5.529,0,0,1,3.239-.817h1.169v-.545a1.567,1.567,0,0,0-.338-1.055,1.331,1.331,0,0,0-1.068-.4,1.513,1.513,0,0,0-1.006.308,1.045,1.045,0,0,0-.365.844h-2.54a2.551,2.551,0,0,1,.51-1.529,3.37,3.37,0,0,1,1.441-1.1,5.253,5.253,0,0,1,2.092-.4,4.15,4.15,0,0,1,2.791.883,3.09,3.09,0,0,1,1.033,2.483V-2.2a4.546,4.546,0,0,0,.378,2.048V0Zm-2.1-1.767a2.188,2.188,0,0,0,1.037-.25,1.645,1.645,0,0,0,.7-.672V-4.324h-.949q-1.907,0-2.03,1.318l-.009.149a1.017,1.017,0,0,0,.334.782A1.3,1.3,0,0,0,33.785-1.767Zm10.2-.105a1.666,1.666,0,0,0,1.143-.387,1.355,1.355,0,0,0,.457-1.028h2.382a3.258,3.258,0,0,1-.527,1.771A3.48,3.48,0,0,1,46.015-.268a4.442,4.442,0,0,1-1.991.444,4.129,4.129,0,0,1-3.217-1.3A5.13,5.13,0,0,1,39.63-4.7v-.167A5.071,5.071,0,0,1,40.8-8.376a4.08,4.08,0,0,1,3.208-1.31A4,4,0,0,1,46.868-8.67a3.594,3.594,0,0,1,1.094,2.7H45.58a1.745,1.745,0,0,0-.457-1.206,1.524,1.524,0,0,0-1.16-.464,1.53,1.53,0,0,0-1.34.647,3.749,3.749,0,0,0-.453,2.1v.264a3.8,3.8,0,0,0,.448,2.113A1.549,1.549,0,0,0,43.98-1.872ZM52.093,0H49.544V-9.51h2.549Zm-2.7-11.971a1.251,1.251,0,0,1,.382-.94,1.436,1.436,0,0,1,1.042-.369,1.44,1.44,0,0,1,1.037.369,1.244,1.244,0,0,1,.387.94,1.247,1.247,0,0,1-.391.949,1.443,1.443,0,0,1-1.033.369,1.443,1.443,0,0,1-1.033-.369A1.247,1.247,0,0,1,49.395-11.971Zm4.395,7.128a5.64,5.64,0,0,1,.545-2.522A3.989,3.989,0,0,1,55.9-9.079a4.577,4.577,0,0,1,2.377-.606,4.33,4.33,0,0,1,3.142,1.178,4.727,4.727,0,0,1,1.358,3.2l.018.65a4.97,4.97,0,0,1-1.222,3.511A4.247,4.247,0,0,1,58.3.176a4.268,4.268,0,0,1-3.283-1.318,5.058,5.058,0,0,1-1.226-3.586Zm2.54.18a3.555,3.555,0,0,0,.51,2.073,1.682,1.682,0,0,0,1.459.717,1.686,1.686,0,0,0,1.441-.709,3.89,3.89,0,0,0,.519-2.267,3.519,3.519,0,0,0-.519-2.06,1.686,1.686,0,0,0-1.459-.731,1.658,1.658,0,0,0-1.441.726A3.955,3.955,0,0,0,56.329-4.662ZM58.781-13.5H61.55l-2.435,2.725H57.05ZM66.7-9.51l.079,1.1a3.32,3.32,0,0,1,2.733-1.274,2.759,2.759,0,0,1,2.25.888,4.142,4.142,0,0,1,.756,2.654V0h-2.54V-6.082a1.648,1.648,0,0,0-.352-1.173,1.574,1.574,0,0,0-1.169-.365,1.747,1.747,0,0,0-1.608.914V0H64.31V-9.51Z" transform="translate(1032 1038)" fill="#12263f"/>
    <path id="Path_613474" data-name="Path 613474" d="M87,0c48.049,0,87,9.626,87,21.5S135.049,43,87,43,0,33.374,0,21.5,38.951,0,87,0Z" transform="translate(1020 1412)" fill="#b19b83"/>
    <g id="Group_1073832" data-name="Group 1073832" transform="translate(962.399 1113.554)">
      <g id="Group_1073822" data-name="Group 1073822" transform="translate(0 0)" clip-path="url(#clip-path-7)">
        <g id="Group_1073821" data-name="Group 1073821">
          <g id="Group_1073820" data-name="Group 1073820" clip-path="url(#clip-path-7)">
            <path id="Path_612143" data-name="Path 612143" d="M134.774,39.057s-3.8,14.213-4.129,24.269l-.109,3.351s8.387,6.965,15.423,7.394l5.9-14.5Z" transform="translate(-21.301 -6.373)" fill="#263238"/>
            <path id="Path_612144" data-name="Path 612144" d="M172.533,44.87c-1.6-6.932-2.219-15-7.984-19.521-4.278-3.354-9.151-4.289-14.583-4.062a19.244,19.244,0,0,0-8.023,2.664c-3.193,1.808-4.546,5.474-6.088,8.805-3.087,6.674-2.7,15.71-.605,18.221L163.135,65.7c5.568-2.9,9.056-4.052,9.946-11.474a27.2,27.2,0,0,0-.548-9.358" transform="translate(-21.802 -3.468)" fill="#263238"/>
            <path id="Path_612145" data-name="Path 612145" d="M164.632,31.707l-17.549-5.178c-5.654-.823-9.7,6.018-10.286,11.7-.648,6.314-1.19,14.048-.625,18.8,1.134,9.556,8.365,11.05,8.365,11.05,0-.032.017.143-.04,2.966l-.022,5.815a4.823,4.823,0,0,0,1.382,3.936c2.588,3.353,7.305,3.8,12.868,1.743,3.224-1.192,5.465-3.592,5.712-6.86l3.051-40.467a3.343,3.343,0,0,0-2.855-3.505" transform="translate(-22.182 -4.318)" fill="#ae7461"/>
            <path id="Path_612146" data-name="Path 612146" d="M138.958,50.652a1.218,1.218,0,0,0,1.126,1.274,1.165,1.165,0,0,0,1.3-1.049,1.219,1.219,0,0,0-1.125-1.275,1.166,1.166,0,0,0-1.3,1.049" transform="translate(-22.675 -8.093)" fill="#263238"/>
            <path id="Path_612147" data-name="Path 612147" d="M138.35,47.135c.145.165,1.095-.482,2.405-.427,1.31.036,2.244.748,2.393.593.073-.068-.07-.361-.476-.682a3.355,3.355,0,0,0-1.909-.672,3.214,3.214,0,0,0-1.922.538c-.415.294-.563.576-.491.649" transform="translate(-22.573 -7.497)" fill="#263238"/>
            <path id="Path_612148" data-name="Path 612148" d="M152.727,50.877a1.218,1.218,0,0,0,1.126,1.274,1.165,1.165,0,0,0,1.3-1.049,1.219,1.219,0,0,0-1.125-1.275,1.166,1.166,0,0,0-1.3,1.049" transform="translate(-24.921 -8.13)" fill="#263238"/>
            <path id="Path_612149" data-name="Path 612149" d="M153.755,47.32c.146.165,1.1-.481,2.405-.426,1.31.036,2.245.747,2.394.592.072-.068-.069-.361-.477-.682a3.352,3.352,0,0,0-1.909-.672,3.211,3.211,0,0,0-1.921.538c-.414.294-.563.576-.492.649" transform="translate(-25.087 -7.528)" fill="#263238"/>
            <path id="Path_612150" data-name="Path 612150" d="M147.014,55.581a8.642,8.642,0,0,0-2.114-.468c-.333-.048-.647-.127-.695-.357a1.7,1.7,0,0,1,.263-.983l1.09-2.51a43.906,43.906,0,0,0,2.485-6.577,43.815,43.815,0,0,0-3.009,6.362q-.549,1.323-1.049,2.526a1.932,1.932,0,0,0-.225,1.306.84.84,0,0,0,.531.511,2.3,2.3,0,0,0,.566.1,8.517,8.517,0,0,0,2.157.088" transform="translate(-23.451 -7.292)" fill="#263238"/>
            <path id="Path_612151" data-name="Path 612151" d="M146.163,75.632a24.176,24.176,0,0,0,12.852-2.892S155.609,79.261,146.14,78Z" transform="translate(-23.847 -11.87)" fill="#6f4439"/>
            <path id="Path_612152" data-name="Path 612152" d="M151.951,61a1.9,1.9,0,0,0-1.546-.923,2.473,2.473,0,0,0-2.3,1.027,1.532,1.532,0,0,0-.144,1.105c.075.192.015.1.156.232a4.326,4.326,0,0,0,1.725,1.166,1.856,1.856,0,0,0,1.987-.644A1.9,1.9,0,0,0,151.951,61" transform="translate(-24.138 -9.802)" fill="#6f4439"/>
            <path id="Path_612153" data-name="Path 612153" d="M151.66,59.038c-.213-.022-.279,1.4-1.542,2.355s-2.769.73-2.789.928c-.024.089.325.291.964.337a3.539,3.539,0,0,0,2.325-.694,3.091,3.091,0,0,0,1.2-1.979c.08-.592-.062-.951-.16-.947" transform="translate(-24.041 -9.634)" fill="#263238"/>
            <path id="Path_612154" data-name="Path 612154" d="M153.165,41.671c.095.367,1.414.326,2.927.659,1.521.3,2.712.871,2.946.573.105-.144-.078-.5-.544-.891a5.224,5.224,0,0,0-4.474-.939c-.584.172-.895.423-.855.6" transform="translate(-24.993 -6.676)" fill="#263238"/>
            <path id="Path_612155" data-name="Path 612155" d="M138.472,42.809c.3.258,1.253-.192,2.451-.381,1.193-.225,2.248-.123,2.437-.464.081-.165-.122-.437-.607-.652a3.736,3.736,0,0,0-2.066-.194,3.687,3.687,0,0,0-1.872.875c-.381.365-.476.688-.343.816" transform="translate(-22.587 -6.7)" fill="#263238"/>
            <path id="Path_612156" data-name="Path 612156" d="M149.175,25.319c-.016.069-.029.137-.044.206l.033.014c0-.074.008-.146.012-.22" transform="translate(-24.335 -4.132)" fill="#263238"/>
            <path id="Path_612157" data-name="Path 612157" d="M158.965,71.512c.269-2.49-.733-4.992-.443-7.479.308-2.637,2.017-4.9,2.717-7.458,1.123-4.1-.418-8.464-.982-12.7a10.062,10.062,0,0,1-6.177-3.566,27.875,27.875,0,0,1-4.178-7.674,12.846,12.846,0,0,0,2.584,7.382,3.466,3.466,0,0,1-2.961-.962,7.754,7.754,0,0,1-1.737-2.7,21.088,21.088,0,0,1-1.682-7.6,27.3,27.3,0,0,0,1.241,11.095,4.735,4.735,0,0,0-2.065.079,2.266,2.266,0,0,1-1.965-.418,2.478,2.478,0,0,1-.538-1.267,28.481,28.481,0,0,1-.315-9.666,29.46,29.46,0,0,0-2.178,5.356,10.38,10.38,0,0,0-.04,5.716.839.839,0,0,1-1.18-.008,2,2,0,0,1-.516-1.193,14.706,14.706,0,0,1,.313-4.812,24.363,24.363,0,0,0-1.79,5.5,8.2,8.2,0,0,1-2.978,4.827,25.332,25.332,0,0,1,.238-7.289,22.047,22.047,0,0,1,2.136-5.785,17.185,17.185,0,0,1,3.851-5.36c2.8-2.451,3.968-1.4,5.755-.462l.212.089c.006-.044.008-.088.014-.131l.08-.381a26.81,26.81,0,0,1,14.118.66c3.369,1.1,3.678,8.351,4.5,4.9.5-2.085,3.2-.182,3.234-.121,3.973,7.167,8.185,18.535,8.377,36.5Z" transform="translate(-21.856 -3.916)" fill="#263238"/>
            <path id="Path_612158" data-name="Path 612158" d="M175.073,14.774a8.952,8.952,0,0,0-6.178-3.007,6.744,6.744,0,0,0-5.965,3.106,5.435,5.435,0,0,0,.735,6.5l2.936,2.349a8.038,8.038,0,0,0,6.667.647,5.8,5.8,0,0,0,3.764-5.289,6.82,6.82,0,0,0-1.958-4.306" transform="translate(-26.465 -1.92)" fill="#263238"/>
            <path id="Path_612159" data-name="Path 612159" d="M172.795,29.412c-.568.265-2.175-2.2-5.044-4.13-2.826-2-5.7-2.631-5.649-3.257.024-.285.833-.514,2.142-.379a10.969,10.969,0,0,1,8.146,5.628c.59,1.177.661,2.014.4,2.138" transform="translate(-26.452 -3.526)" fill="#455a64"/>
            <path id="Path_612160" data-name="Path 612160" d="M123.151,122.219l11-10.3,7.449,11.833c-.148,1.061-9.644,21.522-13.755,25.762-4.69,4.838-11.085,4.464-13.905-2.216-2.224-5.266-5.915-21.48-5.915-21.48Z" transform="translate(-17.627 -18.263)" fill="#64d0ce"/>
            <path id="Path_612161" data-name="Path 612161" d="M137.183,86.884c-2.627.946-8.669,4.249-10.428,6.416a16.574,16.574,0,0,0-2.221,3.433c-1.376,3.027-3.991,25.468-3.991,25.468l11.711,8.481,10.2-39.251-.651-6.224Z" transform="translate(-19.67 -13.904)" fill="#64d0ce"/>
            <path id="Path_612162" data-name="Path 612162" d="M135.273,151.133l.737-5.8a188.431,188.431,0,0,1-3.086-19.323c-1.318-14.276,2.4-23.148,2.914-24.653.289-.853,7.936-16.693,7.936-16.693s1.606,4.879,8.059,3.726c9-1.609,12.278-6.488,12.278-6.488l11.628,2.514s4.531,18.195,5.2,24.223c.357,3.232-3.9,21.5-3.9,21.5l6.858,10.259c.205.5-2.979,14.524-3.6,15.1s-11.778,3.17-11.916,3.647-21.265,9.322-21.252,8.961-10.165-12.451-10.165-12.451Z" transform="translate(-21.645 -13.365)" fill="#64d0ce"/>
            <path id="Path_612163" data-name="Path 612163" d="M132.385,107.756a1.641,1.641,0,0,1-.028.424c-.038.325-.085.722-.143,1.2-.124,1.044-.3,2.556-.456,4.43a63.631,63.631,0,0,0,.273,14.632c.752,5.688,1.849,10.775,2.557,14.473.36,1.849.634,3.348.809,4.387.074.479.136.875.186,1.2a1.539,1.539,0,0,1,.035.423,1.613,1.613,0,0,1-.121-.408c-.072-.32-.16-.71-.266-1.183-.238-1.094-.556-2.567-.945-4.357-.784-3.679-1.931-8.766-2.687-14.478a58.962,58.962,0,0,1-.147-14.718c.194-1.876.418-3.386.594-4.425.09-.52.167-.922.225-1.193a1.512,1.512,0,0,1,.114-.41" transform="translate(-21.386 -17.584)" fill="#263238"/>
            <path id="Path_612164" data-name="Path 612164" d="M185.407,160.915c2.085,3.538,6.845,17.08,8.7,24,8.444,31.561,15.589,74,17.962,82.654,3.162,11.526,10.242,37.6,13.845,54.967L208.6,330.08S185.938,269,179.755,254c-6.408-15.551-17.1-44.884-17.1-44.884L156.482,325.46l-16.578.512s-5.669-32.784-7.923-52.379-2.505-59.93-2.525-70.167c-.023-12.465,5.38-40.51,5.38-40.51s6.466,4.853,18.591,2.995C163.083,164.432,183.1,157,183.1,157Z" transform="translate(-21.125 -25.62)" fill="#263238"/>
            <path id="Path_612165" data-name="Path 612165" d="M156.043,172.473a8.006,8.006,0,0,0,.1,1.336c.089.856.239,2.094.443,3.62.405,3.053,1.04,7.261,1.867,11.887s1.691,8.8,2.369,11.8c.339,1.5.627,2.715.84,3.549a7.955,7.955,0,0,0,.372,1.286,7.96,7.96,0,0,0-.208-1.323c-.182-.918-.418-2.122-.705-3.576-.6-3.018-1.416-7.19-2.244-11.813s-1.507-8.816-1.99-11.855c-.234-1.462-.429-2.674-.578-3.6a8.027,8.027,0,0,0-.263-1.313" transform="translate(-25.461 -28.144)" fill="#455a64"/>
            <path id="Path_612166" data-name="Path 612166" d="M162.527,172.093c.023,0-.026-.208-.323-.338a2.116,2.116,0,0,0-1.263-.041,2.54,2.54,0,0,0-.827.338,1.385,1.385,0,0,0-.565.919,2.121,2.121,0,0,0,.949,2.106,2.184,2.184,0,0,0,2.31.1,1.5,1.5,0,0,0,.638-.86,2.144,2.144,0,0,0,.062-.9,1.806,1.806,0,0,0-.558-1.138c-.238-.2-.418-.213-.423-.192-.016.035.132.1.3.31a1.826,1.826,0,0,1,.374,1.049,1.459,1.459,0,0,1-.6,1.389,1.825,1.825,0,0,1-1.866-.126,1.757,1.757,0,0,1-.793-1.679,1.038,1.038,0,0,1,.382-.694,2.393,2.393,0,0,1,.7-.335,2.281,2.281,0,0,1,1.13-.1c.259.06.345.2.377.18" transform="translate(-26.03 -28.008)" fill="#455a64"/>
            <path id="Path_612167" data-name="Path 612167" d="M150.442,207.532a16.179,16.179,0,0,0,2.005,1.375c1.254.82,2.97,1.975,4.808,3.329s3.448,2.655,4.6,3.611a16.235,16.235,0,0,0,1.906,1.51,11.7,11.7,0,0,0-1.706-1.74,57.16,57.16,0,0,0-9.449-6.969,11.684,11.684,0,0,0-2.166-1.115" transform="translate(-24.549 -33.865)" fill="#455a64"/>
            <path id="Path_612168" data-name="Path 612168" d="M200.6,281.693a2.3,2.3,0,0,0,.717.024c.46-.009,1.125-.059,1.943-.152a34.719,34.719,0,0,0,12.221-3.83c.725-.39,1.3-.729,1.682-.984s.59-.4.575-.428a25.561,25.561,0,0,0-2.395,1.141,43.647,43.647,0,0,1-12.126,3.8,25.865,25.865,0,0,0-2.618.43" transform="translate(-32.734 -45.09)" fill="#455a64"/>
            <path id="Path_612169" data-name="Path 612169" d="M203.962,279.671a6.506,6.506,0,0,0,1.7-.452c1.027-.343,2.428-.876,3.936-1.555s2.836-1.374,3.774-1.915a6.516,6.516,0,0,0,1.464-.971c-.063-.11-2.417,1.148-5.416,2.493s-5.5,2.28-5.456,2.4" transform="translate(-33.282 -44.837)" fill="#455a64"/>
            <path id="Path_612170" data-name="Path 612170" d="M138.308,344.5l-.087,17.273s-17.586,5.712-17.912,8.9l33.484,1.371,1.239-26.907Z" transform="translate(-19.632 -56.216)" fill="#263238"/>
            <path id="Path_612171" data-name="Path 612171" d="M153.83,363.9a1.367,1.367,0,0,1,.881,1.6,1.315,1.315,0,0,1-1.577.888,1.444,1.444,0,0,1-.925-1.7,1.366,1.366,0,0,1,1.744-.741" transform="translate(-24.827 -59.37)" fill="#e0e0e0"/>
            <path id="Path_612172" data-name="Path 612172" d="M153.791,376.832l.018-2.717-32.11-.3s-1.518.587-1.392,1.644Z" transform="translate(-19.63 -60.999)" fill="#455a64"/>
            <path id="Path_612173" data-name="Path 612173" d="M141.074,364.886c0,.164.813.271,1.595.83.8.538,1.184,1.264,1.337,1.205.151-.026-.052-1.013-1.012-1.673s-1.951-.514-1.921-.362" transform="translate(-23.02 -59.521)" fill="#fff"/>
            <path id="Path_612174" data-name="Path 612174" d="M136.8,366.464c-.044.156.653.464,1.18,1.178.548.7.658,1.452.821,1.452.152.032.3-.921-.367-1.8s-1.623-.989-1.633-.833" transform="translate(-22.323 -59.79)" fill="#fff"/>
            <path id="Path_612175" data-name="Path 612175" d="M133.983,370.842c.147.041.408-.767.025-1.68s-1.133-1.3-1.208-1.167c-.1.131.379.631.682,1.385.321.747.34,1.439.5,1.461" transform="translate(-21.668 -60.046)" fill="#fff"/>
            <path id="Path_612176" data-name="Path 612176" d="M141.618,360.108c.063.152.822-.043,1.743.058.924.082,1.63.421,1.721.284.1-.115-.578-.748-1.665-.852s-1.874.377-1.8.51" transform="translate(-23.108 -58.677)" fill="#fff"/>
            <path id="Path_612177" data-name="Path 612177" d="M233.6,342.336l6.414,19.889,9.609,14.268a2.141,2.141,0,0,1-2.661,3.146c-4.018-1.841-18.761-8.685-19.149-10.167-.449-1.716-8.158-20.53-8.158-20.53Z" transform="translate(-35.843 -55.863)" fill="#263238"/>
            <path id="Path_612178" data-name="Path 612178" d="M250.418,384.573l-21.57-11.4.291.837a3.22,3.22,0,0,0,1.408,1.722c1.766,1.037,6.7,3.792,17.853,8.961a2.139,2.139,0,0,0,2.018-.118" transform="translate(-37.343 -60.894)" fill="#455a64"/>
            <g id="Group_1073819" data-name="Group 1073819" transform="translate(191.788 304.446)" opacity="0.6">
              <g id="Group_1073818" data-name="Group 1073818">
                <g id="Group_1073817" data-name="Group 1073817" clip-path="url(#clip-path-9)">
                  <path id="Path_612179" data-name="Path 612179" d="M230.739,363.868a1.3,1.3,0,0,1,.89,1.481,1.246,1.246,0,0,1-1.461.9,1.366,1.366,0,0,1-.935-1.574,1.292,1.292,0,0,1,1.623-.763" transform="translate(-229.186 -363.814)" fill="#fff"/>
                </g>
              </g>
            </g>
            <path id="Path_612180" data-name="Path 612180" d="M245.633,377.7a4.62,4.62,0,0,1,3.317-3.362c0-.054-.3-.121-.787-.026a3.415,3.415,0,0,0-2.566,2.6c-.09.486-.018.788.036.787" transform="translate(-40.069 -61.072)" fill="#fff"/>
            <path id="Path_612181" data-name="Path 612181" d="M248.422,380.462c.124.053.534-.809,1.453-1.457a17.466,17.466,0,0,1,1.841-.919,2.374,2.374,0,0,0-2.11.546c-1.044.745-1.305,1.812-1.184,1.829" transform="translate(-40.533 -61.683)" fill="#fff"/>
            <path id="Path_612182" data-name="Path 612182" d="M241.109,374.6a21.239,21.239,0,0,1,2.09-2.4,21.475,21.475,0,0,1,2.69-1.7,5.855,5.855,0,0,0-4.781,4.1" transform="translate(-39.341 -60.454)" fill="#fff"/>
            <path id="Path_612183" data-name="Path 612183" d="M238.177,367.962c.094.1,1.026-.735,2.427-1.28,1.393-.565,2.644-.6,2.644-.733a5.315,5.315,0,0,0-5.07,2.013" transform="translate(-38.864 -59.696)" fill="#fff"/>
            <path id="Path_612184" data-name="Path 612184" d="M235.751,361.058a6.8,6.8,0,0,1,5.336-1.653c.018-.053-.284-.225-.83-.33a4.666,4.666,0,0,0-4.008,1.241c-.392.4-.543.708-.5.741" transform="translate(-38.468 -58.583)" fill="#fff"/>
            <path id="Path_612185" data-name="Path 612185" d="M237.483,357.69a1.806,1.806,0,0,0-.233-.756,5.5,5.5,0,0,0-1.274-1.749,2.433,2.433,0,0,0-1.369-.755.86.86,0,0,0-.853.5,1.4,1.4,0,0,0,0,1,3.025,3.025,0,0,0,3.425,1.773,3.508,3.508,0,0,0,2.653-2.867,1.214,1.214,0,0,0-.279-.976.844.844,0,0,0-.981-.132,3,3,0,0,0-1.065,1.128,6.147,6.147,0,0,0-.813,2,1.887,1.887,0,0,0-.066.787,9.768,9.768,0,0,1,1.151-2.611,2.791,2.791,0,0,1,.952-.961.449.449,0,0,1,.535.069.833.833,0,0,1,.146.652,3.133,3.133,0,0,1-2.329,2.459,2.627,2.627,0,0,1-2.929-1.463,1.017,1.017,0,0,1-.028-.7.467.467,0,0,1,.467-.283,2.206,2.206,0,0,1,1.171.618,8.126,8.126,0,0,1,1.721,2.262" transform="translate(-38.129 -57.705)" fill="#fff"/>
            <path id="Path_612186" data-name="Path 612186" d="M109.259,107.756,117.245,116l.324,7.182-9.269,2.131h-.472l-.6-4.636-5.342-7.1Z" transform="translate(-16.626 -17.584)" fill="#ae7461"/>
            <path id="Path_612187" data-name="Path 612187" d="M84.089,84.661a48.624,48.624,0,1,1-70.976-66.48,48.624,48.624,0,0,1,70.976,66.48m-66.5-.129A45.367,45.367,0,0,0,79.614,18.31,45.367,45.367,0,0,0,17.587,84.532" transform="translate(0 -0.456)" fill="#455a64"/>
            <path id="Path_612188" data-name="Path 612188" d="M84.089,84.661a48.624,48.624,0,1,1-70.976-66.48,48.624,48.624,0,0,1,70.976,66.48m-66.5-.129A45.367,45.367,0,0,0,79.614,18.31,45.367,45.367,0,0,0,17.587,84.532" transform="translate(0 -0.456)" fill="#263238"/>
            <path id="Path_612189" data-name="Path 612189" d="M85.517,81.865a48.624,48.624,0,1,1-70.975-66.48,48.624,48.624,0,0,1,70.975,66.48m-66.5-.13A45.367,45.367,0,0,0,81.042,15.514,45.367,45.367,0,0,0,19.015,81.736" transform="translate(-0.233 0)" fill="#455a64"/>
            <path id="Path_612190" data-name="Path 612190" d="M154.549,158.794l1.547-1.5c1.38-1.336.606-4.388-.842-5.87L100.933,95.279l-7.263,7.028,54.24,56.063c1.831,1.8,4.862,2.143,6.638.424" transform="translate(-15.285 -15.548)" fill="#455a64"/>
            <path id="Path_612191" data-name="Path 612191" d="M105.665,103.3a1.278,1.278,0,0,0-1.1-.293,2.149,2.149,0,0,0-.862.6,9.854,9.854,0,0,0-2.8,6.812,3.018,3.018,0,0,0,1.245,2.808l1.09-.631c.339-.437,1.349-1.167,1.483-1.7.564-2.256-.245-2.162,1.169-6.074a1.348,1.348,0,0,0-.228-1.521" transform="translate(-16.466 -16.804)" fill="#ae7461"/>
            <path id="Path_612192" data-name="Path 612192" d="M105.894,106.817a5.362,5.362,0,0,1,1.08-1.423,1.569,1.569,0,0,1,1.437-.429c.753.237,1.12,1.321,1.033,2.329a8.768,8.768,0,0,1-.936,2.868q-1.341,2.908-2.684,5.818l-.52-.382a.735.735,0,0,1-1.159-.255,3.086,3.086,0,0,1-.255-1.584,15.184,15.184,0,0,1,2-6.94" transform="translate(-16.952 -17.12)" fill="#ae7461"/>
            <path id="Path_612193" data-name="Path 612193" d="M107.605,113.221a13.62,13.62,0,0,1,2.686-3.6,3.306,3.306,0,0,1,1.248-.947,1.173,1.173,0,0,1,1.4.412,1.62,1.62,0,0,1-.19,1.427,66.671,66.671,0,0,1-4.619,8.111l-1.6-1.616c-.728-1.312.46-2.422,1.078-3.787" transform="translate(-17.346 -17.721)" fill="#ae7461"/>
            <path id="Path_612194" data-name="Path 612194" d="M154.108,133.277l-1.473-.312-7.708-6.569-4.218-3.543a2.571,2.571,0,0,0-1.235-.569l-4.174-.7a2.373,2.373,0,0,0,1.249,2.863l2.288,1.184,2.094,2.474-.268.536s-13.72,2.129-14.577,3.175a1.426,1.426,0,0,0,.381,2.189,2.221,2.221,0,0,0,1.047.095s-.666,1.618,1.332,2.95c0,0-1.523,2,1.141,2.95a4.3,4.3,0,0,0,2.284,2,98.807,98.807,0,0,0,10.562,1.428c.856,0,9.836.014,9.836.014l1.975.323Z" transform="translate(-20.515 -19.841)" fill="#ae7461"/>
            <path id="Path_612195" data-name="Path 612195" d="M127.487,136.49a10.942,10.942,0,0,0,3.794.2,15.184,15.184,0,0,0,3.755-.557,18.739,18.739,0,0,0-3.782.127,36.212,36.212,0,0,0-3.767.226" transform="translate(-20.803 -22.205)" fill="#6f4439"/>
            <path id="Path_612196" data-name="Path 612196" d="M129.456,140.046c0,.061.357.11.928.186s1.363.183,2.256.238a19.541,19.541,0,0,0,2.276-.049,3.662,3.662,0,0,0,.936-.084c.017-.062-.347-.182-.933-.221-.588-.055-1.387-.02-2.254-.077s-1.676-.118-2.262-.112-.948.061-.947.119" transform="translate(-21.125 -22.833)" fill="#6f4439"/>
            <path id="Path_612197" data-name="Path 612197" d="M130.494,143.508a16.251,16.251,0,0,0,3.7.5,8.812,8.812,0,0,1,2.531.392c.605.228.88.552.935.5.041-.02-.168-.448-.808-.781a6.69,6.69,0,0,0-2.625-.546,16.258,16.258,0,0,0-3.732-.066" transform="translate(-21.294 -23.406)" fill="#6f4439"/>
            <path id="Path_612198" data-name="Path 612198" d="M180.135,84.91s5.8,1,10.2,9.641c2.43,4.777,13.787,33.5,14.461,36.018,2.882,10.776-2.695,17.721-8.064,18.193-5.91.52-36.474-9.342-36.474-9.342l-.675-13.059,27.88,4.233-13.395-26s-.514-17.316,6.07-19.684" transform="translate(-26.04 -13.856)" fill="#64d0ce"/>
            <path id="Path_612199" data-name="Path 612199" d="M202.158,146.639a4.75,4.75,0,0,0-.75-1.741,11.758,11.758,0,0,0-7.309-5.215,4.751,4.751,0,0,0-1.889-.143c-.005.075.714.127,1.815.438a13.261,13.261,0,0,1,7.127,5.086c.653.941.936,1.6,1.005,1.574" transform="translate(-31.365 -22.764)" fill="#263238"/>
            <path id="Path_612200" data-name="Path 612200" d="M189.026,151.667a.46.46,0,0,1-.144-.019l-.418-.09c-.371-.076-.9-.236-1.605-.427-1.394-.4-3.422-1.024-5.975-1.838-5.106-1.629-12.32-4.012-20.8-6.881l-.128-.044-.008-.136c-.2-3.757-.412-7.854-.636-12.126l-.014-.267.264.043,6.859,1.11,21.025,3.431-.206.285-9.26-18.129-2.595-5.154-.674-1.372a3.2,3.2,0,0,1-.212-.481,3.322,3.322,0,0,1,.269.453l.728,1.345,2.694,5.1c2.3,4.423,5.551,10.663,9.4,18.055l.181.346-.387-.063-21.032-3.389-6.859-1.114.25-.224c.213,4.273.418,8.37.607,12.128l-.136-.18,20.747,7.029,5.936,1.946c.693.209,1.222.39,1.584.486l.409.121a.5.5,0,0,1,.136.052" transform="translate(-25.994 -17.88)" fill="#263238"/>
            <path id="Path_612201" data-name="Path 612201" d="M184.1,85.539c.041.069-.789.547-1.945,1.543A16.544,16.544,0,0,0,176.6,97.3c-.207,1.512-.156,2.468-.236,2.471a2.063,2.063,0,0,1-.1-.668,10.671,10.671,0,0,1,.028-1.838,14.421,14.421,0,0,1,.5-2.687,15.388,15.388,0,0,1,3.18-5.853,14.374,14.374,0,0,1,1.98-1.883,10.633,10.633,0,0,1,1.527-1.023,2.057,2.057,0,0,1,.613-.282" transform="translate(-28.759 -13.958)" fill="#263238"/>
          </g>
        </g>
      </g>
    </g>
  </g>
</svg>
