<svg xmlns="http://www.w3.org/2000/svg" xmlns:xlink="http://www.w3.org/1999/xlink" width="153.333" height="257.848" viewBox="0 0 153.333 257.848">
  <defs>
    <clipPath id="clip-path">
      <rect id="Rectangle_377904" data-name="Rectangle 377904" width="96.918" height="105.773" fill="none"/>
    </clipPath>
    <clipPath id="clip-path-2">
      <rect id="Rectangle_378071" data-name="Rectangle 378071" width="61.2" height="61.2" transform="translate(0 0)" fill="#66542f"/>
    </clipPath>
  </defs>
  <g id="Group_1074269" data-name="Group 1074269" transform="translate(11965.669 12192.401)">
    <path id="Path_609949" data-name="Path 609949" d="M85.717,124.628a148.961,148.961,0,0,1-51.205-21.949A268.773,268.773,0,0,1,30,70.67,148.961,148.961,0,0,0,78.993,97.2c4.539,14.135,4.945,17.529,6.724,27.429" transform="translate(-11995.673 -12059.182)" fill="#fff"/>
    <g id="Group_1072529" data-name="Group 1072529" transform="translate(-12855.511 -12359.207)">
      <g id="Group_1072446" data-name="Group 1072446" transform="translate(920.856 193.52) rotate(-16)">
        <g id="Group_1072445" data-name="Group 1072445" clip-path="url(#clip-path)">
          <path id="Path_609694" data-name="Path 609694" d="M5,0H91.918a5,5,0,0,1,5,5V92.449a5,5,0,0,1-5,5H5a5,5,0,0,1-5-5V5A5,5,0,0,1,5,0Z" transform="translate(0 8.324)" fill="#fff6e2"/>
          <path id="Path_609692" data-name="Path 609692" d="M101.046,27.419C100.984,27.141,94.244,0,86.967,0c-.09,0-.181,0-.272.013a4.021,4.021,0,0,0-3.445,2.045c-.966,1.831-.422,4.457.315,6.549h1.708c-.753-1.969-1.355-4.4-.613-5.805a2.5,2.5,0,0,1,2.185-1.2c.049,0,.1-.007.147-.007,4.422,0,10.744,18.247,12.5,26.173a5.036,5.036,0,0,1-2.626,5.86c-2.1.813-4.446-.61-6.263-3.8A96.813,96.813,0,0,1,82.284,9.209a.8.8,0,1,0-1.543.4,98.589,98.589,0,0,0,8.475,21c2.264,3.977,4.755,4.819,6.456,4.819a4.967,4.967,0,0,0,1.764-.317c2.79-1.075,4.341-4.381,3.609-7.693" transform="translate(-16.419)" fill="#515151"/>
          <path id="Path_609693" data-name="Path 609693" d="M90.893,7.176a.638.638,0,1,0-1.178.491l.969,2.319h1.384Z" transform="translate(-18.24 -1.38)" fill="#515151"/>
        </g>
      </g>
      <g id="Group_1072926" data-name="Group 1072926" transform="matrix(0.966, -0.259, 0.259, 0.966, 946.634, 215.254)">
        <g id="Group_1072917" data-name="Group 1072917" clip-path="url(#clip-path-2)">
          <path id="Path_610763" data-name="Path 610763" d="M59.9,17.9H56.1V11.5a1.324,1.324,0,0,0-1.3-1.3H47.2V1.3a1.3,1.3,0,1,0-2.6,0V30.6a1.231,1.231,0,0,0,.7,1.1l1.3.7-5.8,9.7L35,32.4l1.3-.7a1.354,1.354,0,0,0,.7-1.1V1.3a1.3,1.3,0,1,0-2.6,0v8.9H26.8V6.4a1.323,1.323,0,0,0-1.3-1.3H7.7A1.323,1.323,0,0,0,6.4,6.4v3.8H1.3A1.324,1.324,0,0,0,0,11.5V56.1a5.121,5.121,0,0,0,5.1,5.1H54.8a6.446,6.446,0,0,0,6.4-6.4V19.1a1.241,1.241,0,0,0-1.3-1.2m-6.4,0H47.1V12.8h6.4ZM2.6,56.1V12.8H7.7A1.324,1.324,0,0,0,9,11.5V7.7H24.3v3.8a1.325,1.325,0,0,0,1.3,1.3h8.9v5.1H8.9a1.325,1.325,0,0,0-1.3,1.3v37a2.476,2.476,0,0,1-2.5,2.5,2.629,2.629,0,0,1-2.5-2.6m56-1.3a3.9,3.9,0,0,1-3.9,3.9H9.5a5.513,5.513,0,0,0,.7-2.5V20.4H34.4v9.4l-1.8.9a1.236,1.236,0,0,0-.5,1.8l7.6,12.7a1.308,1.308,0,0,0,2.2,0l7.6-12.7a1.31,1.31,0,0,0-.5-1.8l-1.8-.9V20.4H58.7Z" fill="#66542f"/>
          <rect id="Rectangle_378066" data-name="Rectangle 378066" width="2.5" height="2.499" transform="translate(39.5 28.1)" fill="#66542f"/>
          <rect id="Rectangle_378067" data-name="Rectangle 378067" width="2.5" height="2.5" transform="translate(39.5 21.7)" fill="#66542f"/>
          <rect id="Rectangle_378068" data-name="Rectangle 378068" width="2.5" height="2.5" transform="translate(39.5 15.3)" fill="#66542f"/>
          <rect id="Rectangle_378069" data-name="Rectangle 378069" width="2.5" height="2.5" transform="translate(39.5 8.9)" fill="#66542f"/>
          <rect id="Rectangle_378070" data-name="Rectangle 378070" width="2.5" height="2.5" transform="translate(39.5 2.6)" fill="#66542f"/>
          <path id="Path_610764" data-name="Path 610764" d="M53.5,52.3H15.3a1.3,1.3,0,0,0,0,2.6H53.5a1.325,1.325,0,0,0,1.3-1.3,1.26,1.26,0,0,0-1.3-1.3" fill="#66542f"/>
          <path id="Path_610765" data-name="Path 610765" d="M15.3,26.8h14a1.3,1.3,0,1,0,0-2.6h-14a1.3,1.3,0,1,0,0,2.6" fill="#66542f"/>
          <path id="Path_610766" data-name="Path 610766" d="M15.3,31.9h8.9a1.3,1.3,0,0,0,0-2.6H15.3a1.3,1.3,0,1,0,0,2.6" fill="#66542f"/>
        </g>
      </g>
    </g>
  </g>
</svg>
