<svg id="Group_1072988" data-name="Group 1072988" xmlns="http://www.w3.org/2000/svg" xmlns:xlink="http://www.w3.org/1999/xlink" width="295" height="131.324" viewBox="0 0 295 131.324">
  <defs>
    <clipPath id="clip-path">
      <rect id="Rectangle_378176" data-name="Rectangle 378176" width="295" height="131.324" fill="none"/>
    </clipPath>
    <clipPath id="clip-path-3">
      <rect id="Rectangle_378172" data-name="Rectangle 378172" width="23.475" height="23.475" fill="none"/>
    </clipPath>
    <clipPath id="clip-path-4">
      <rect id="Rectangle_378173" data-name="Rectangle 378173" width="23.475" height="14.294" fill="none"/>
    </clipPath>
    <clipPath id="clip-path-5">
      <rect id="Rectangle_378174" data-name="Rectangle 378174" width="13.386" height="5.845" fill="none"/>
    </clipPath>
  </defs>
  <g id="Group_1072987" data-name="Group 1072987" clip-path="url(#clip-path)">
    <g id="Group_1072986" data-name="Group 1072986" transform="translate(0 0)">
      <g id="Group_1072985" data-name="Group 1072985" clip-path="url(#clip-path)">
        <path id="Path_610807" data-name="Path 610807" d="M168.9,32.367c24.125,1.006,38.409,1.529,51.266-9.647,19.649-17.081,69.59-38.365,125.093-5.544,59.655,35.276,43.491,103.529,6.633,105.851-3.457.218-216.852,1.111-218.371.369-57.46-28.069-26.528-93.61,35.38-91.029" transform="translate(-97.245 0.001)" fill="#cae7f5"/>
        <path id="Path_610808" data-name="Path 610808" d="M330.917,2031.9c-76.242,0-138.048,3.418-138.048,7.635s61.806,7.635,138.048,7.635,138.048-3.418,138.048-7.635-61.806-7.635-138.048-7.635" transform="translate(-181.853 -1915.841)" fill="#b3d9e8"/>
        <path id="Path_610809" data-name="Path 610809" d="M4608.339,1598.271c-.082.084-.126.13-.125.13s.044-.044.125-.13" transform="translate(-4345.011 -1506.984)" fill="#a9d9ed"/>
        <path id="Path_610810" data-name="Path 610810" d="M4321.9,1046.826c-2.738-1.135-5.5-.049-7.168.551-8.514,3.062-16.237,3.414-16.385,2.922-.222-.739,16.379-4.01,20.458-14.209.441-1.1,2.11-5.276.278-7.575a4.821,4.821,0,0,0-3.459-1.521c-3.662-.265-6.7,2.588-8.4,4.234-4.768,4.605-12.4,12.361-13.466,13.453-.082.086-.125.131-.126.13l.126-.13c1.409-1.493,14.2-15.533,13.866-27.976-.031-1.163-.127-4.754-1.849-5.443-2.037-.814-5.23,2.881-6.516,4.369a30.967,30.967,0,0,0-5.648,9.9c-3.568,9.741-5.312,18.61-5.556,18.564a31.419,31.419,0,0,0,.072-10.617c-.264-1.339-1.293-6.562-3.724-6.9-.591-.083-1.75.009-3.408,2.147-11.457,14.771-4.8,40.385-1.227,44.745,8.682,10.6,37.6-1.386,38.527-6.928.942-5.61-23.507.437-23.661-3.062-.022-.509,14.05-.1,24.627-6,1.43-.8,6.442-3.6,6.155-6.784-.167-1.852-2.074-3.263-3.519-3.862" transform="translate(-4030.431 -953.394)" fill="#84c3f7"/>
        <path id="Path_610811" data-name="Path 610811" d="M4608.339,1598.271c-.082.084-.126.13-.125.13s.044-.044.125-.13" transform="translate(-4345.011 -1506.984)" fill="#a9d9ed"/>
        <path id="Path_610812" data-name="Path 610812" d="M4305.777,1011.262c-2.037-.814-5.229,2.881-6.516,4.369a30.973,30.973,0,0,0-5.647,9.9c-3.568,9.741-5.312,18.61-5.555,18.564a31.435,31.435,0,0,0,.071-10.617c-.264-1.339-1.293-6.562-3.724-6.9-.591-.083-1.751.009-3.408,2.147-11.456,14.771-4.8,40.385-1.227,44.745a12.158,12.158,0,0,0,7.922,3.991c2.338-4.534,4.427-10.5,2.047-14.554-1.14-1.943-3.682-4.082-4.538-3.536-1.135.725,1.2,5.865.826,6.034-.56.254-7.946-10.323-5.61-20.284.172-.734,1.314-5.605,3.369-5.8.433-.041,1.186.1,2.315,1.578,3.551,4.649,2.235,11.282,2.8,11.346.617.071,1.713-8.018,4.772-17.713a78.356,78.356,0,0,1,3.3-8.631c1.848-4.1,2.916-6.423,5.078-8.793a20.339,20.339,0,0,1,5.094-4.027,2.709,2.709,0,0,0-1.366-1.817" transform="translate(-4030.432 -953.394)" fill="#67aeef"/>
        <path id="Path_610813" data-name="Path 610813" d="M4724.363,1186.571c-1,1.061-2.186,2.788-2.121,3.308.059.464,1.1-.084,1.916-.82,1.345-1.217,2.642-3.479,2.527-3.978-.105-.457-1.406.52-2.322,1.49" transform="translate(-4452.525 -1117.285)" fill="#67aeef"/>
        <path id="Path_610814" data-name="Path 610814" d="M4646.379,1349.085c-1.488,1.874-1.843,6.119-1.454,6.273.5.2,3.042-6.138,2.623-6.989-.176-.358-.848.311-1.169.716" transform="translate(-4379.487 -1271.26)" fill="#67aeef"/>
        <path id="Path_610815" data-name="Path 610815" d="M4859.122,1345.426c-1.053,1.15-1.911,2.942-1.573,3.229.664.565,6.192-4.47,5.737-5.213-.258-.422-2.611.288-4.165,1.984" transform="translate(-4580.035 -1266.597)" fill="#67aeef"/>
        <path id="Path_610816" data-name="Path 610816" d="M4836.123,1492.371c-1.251.285-2.828,1.1-2.749,1.731.078.618,1.722,1.034,3.1.767,1.526-.3,3.005-1.49,2.842-2.11s-1.923-.676-3.19-.388" transform="translate(-4557.309 -1406.977)" fill="#67aeef"/>
        <path id="Path_610817" data-name="Path 610817" d="M4719.009,1467.556c-.29-.265-2.271,1.117-3.306,3.2-.534,1.074-1,2.693-.7,2.841.6.3,4.51-5.586,4.009-6.042" transform="translate(-4445.613 -1383.705)" fill="#67aeef"/>
        <path id="Path_610818" data-name="Path 610818" d="M4410.728,1569.792c-.5.153-.481,2.649.378,4.717.384.923,1.174,2.337,1.582,2.2.478-.159.376-2.423-.291-4.293-.4-1.111-1.231-2.758-1.669-2.624" transform="translate(-4158.491 -1480.125)" fill="#67aeef"/>
        <path id="Path_610819" data-name="Path 610819" d="M4586.815,1721.666c-1.531.825-2.323,2.709-1.937,3.138.666.742,5.49-2.137,5.221-3.129-.148-.551-1.925-.741-3.284-.009" transform="translate(-4322.917 -1622.879)" fill="#67aeef"/>
        <path id="Path_610820" data-name="Path 610820" d="M4732.922,1802.906c-1.2-.352-2.8-.41-2.874-.108-.141.6,5.725,2.84,6.006,2.291.157-.307-1.34-1.658-3.132-2.183" transform="translate(-4459.885 -1699.646)" fill="#67aeef"/>
        <path id="Path_610821" data-name="Path 610821" d="M4845.863,1717.413c-.592.386-1.791,1.309-1.609,1.813.176.487,1.6.476,2.691.063,1.6-.606,2.909-2.24,2.619-2.769s-2.305-.017-3.7.893" transform="translate(-4567.552 -1618.274)" fill="#67aeef"/>
        <path id="Path_610822" data-name="Path 610822" d="M5000.44,1720.99c-1.785.141-3.468,1.321-3.342,1.786.226.836,6.5.093,6.574-.784.037-.468-1.678-1.125-3.232-1" transform="translate(-4711.678 -1622.68)" fill="#67aeef"/>
        <path id="Path_610823" data-name="Path 610823" d="M4576.5,1980.229c-2.063,1.454-3.2,3.984-2.812,4.329.666.6,6.66-4.709,6.2-5.5-.232-.4-2.116.279-3.383,1.172" transform="translate(-4312.387 -1865.911)" fill="#67aeef"/>
        <path id="Path_610824" data-name="Path 610824" d="M4691.844,2064.678a6.848,6.848,0,0,0-1.244-.182c-.539-.022-1.4-.057-1.447.118-.126.479,5.728,2.84,6.006,2.292.169-.333-1.679-1.809-3.315-2.228" transform="translate(-4421.326 -1946.563)" fill="#67aeef"/>
        <path id="Path_610825" data-name="Path 610825" d="M4789.544,1967.947c-1.4.726-2.647,2.21-2.391,2.624.489.79,6.682-1.906,6.5-2.813-.1-.514-2.313-.743-4.106.189" transform="translate(-4513.699 -1854.946)" fill="#67aeef"/>
        <path id="Path_610826" data-name="Path 610826" d="M49.817,1004.872c-1.348-1.451-5-1.352-6.989,3.379-2.436,5.791-2.582,13.42-2.779,13.4-.126-.016.264-6.5-.135-13.3-.781-13.307-3.989-17.83-5.128-19.264-.719-.9-3.274-4.122-5.328-3.416-1.761.606-2.8,3.806-2.762,7.465.134,13.3,4.649,27.891,2.877,27.906,0,0-4.241-17.882-9.781-25.272-2.549-3.4-8.241-7.521-11.164-5.511-1.6,1.1-1.946,3.783-2.087,4.872-.409,3.159.5,5.914,2.509,10.472,3.255,7.4,8.232,14.729,7.873,15.064s-5.026-7.484-9.73-8.558c-2.187-.5-5.338-.132-6.621,2.178-1.542,2.776.306,7.113,2.341,11.745,1.9,4.336,4.751,10.644,10.955,16.364,4.338,4,9.629,8.878,16.095,8.566,12.983-.627,18.957-21.613,20-25.288.966-3.392,4.5-15.8-.147-20.8" transform="translate(0.001 -929.272)" fill="#84c3f7"/>
        <path id="Path_610827" data-name="Path 610827" d="M504.7,1004.872c-1.348-1.451-5-1.352-6.989,3.379-2.436,5.791-2.582,13.42-2.779,13.4-.126-.016.264-6.5-.135-13.3-.781-13.307-3.989-17.83-5.128-19.264-.719-.9-3.274-4.122-5.328-3.416a3.611,3.611,0,0,0-1.9,2.195,6.106,6.106,0,0,1,2.56.645,7.551,7.551,0,0,1,3.352,4.147c5.362,13.15,2.192,28.782,2.192,28.782-1.672,8.244-4.479,15.2-4.08,15.348.445.163,3.333-8.693,5.291-8.361,1.459.247,1.8,5.492,1.791,7.829-.011,2.65-.5,7.4-4,13.518,9.749-4.589,14.393-20.9,15.3-24.1.966-3.392,4.5-15.8-.148-20.8" transform="translate(-454.888 -929.272)" fill="#67aeef"/>
        <path id="Path_610828" data-name="Path 610828" d="M66.448,1629.954c-1-.45-3.342-1.255-3.879-.495-.649.921,1.23,4.3,3.965,4.811,1.331.25,3.074-.139,3.325-.986.318-1.076-1.852-2.632-3.411-3.331" transform="translate(-58.874 -1536.096)" fill="#67aeef"/>
        <path id="Path_610829" data-name="Path 610829" d="M284.24,1659c-.45-.012-.924,1.4-1.025,2.568-.178,2.055.727,4.2,1.275,4.15.522-.049.786-2.1.712-3.563-.066-1.323-.456-3.141-.962-3.155" transform="translate(-267.017 -1564.244)" fill="#67aeef"/>
        <path id="Path_610830" data-name="Path 610830" d="M221.324,1839.663c-1.358-.743-3.82-1.828-4.168-1.32-.362.529,1.6,2.743,3.87,4.132,2.027,1.24,4.738,2.09,5.064,1.54.361-.608-2.184-2.941-4.766-4.352" transform="translate(-204.712 -1733.221)" fill="#67aeef"/>
        <path id="Path_610831" data-name="Path 610831" d="M285.465,1167.791c-.432-.01-.857,1.7-.977,2.907-.268,2.7.746,5.416,1.272,5.362.479-.049.585-2.389.614-3.03.109-2.411-.357-5.227-.908-5.24" transform="translate(-268.197 -1101.092)" fill="#67aeef"/>
        <path id="Path_610832" data-name="Path 610832" d="M242.3,1356.216c-1.181-1.311-2.97-2.5-3.414-2.118s.517,2.266,1.349,3.447c1.352,1.916,3.557,3.649,4.09,3.235.517-.4-.492-2.862-2.026-4.564" transform="translate(-225.134 -1276.689)" fill="#67aeef"/>
        <path id="Path_610833" data-name="Path 610833" d="M418.226,1500.115c-.456-.052-1.169,1.57-1.293,3.125-.19,2.38.987,4.72,1.516,4.635.577-.092.512-3.085.495-3.878-.011-.506-.083-3.81-.718-3.882" transform="translate(-393.101 -1414.433)" fill="#67aeef"/>
        <path id="Path_610834" data-name="Path 610834" d="M401.38,1713.118c-.708.291-.641,2.753.3,4.632.987,1.963,3.056,3.537,3.727,3.113.712-.45-.117-3.177-1.224-5.023-.663-1.1-2.1-3.014-2.806-2.723" transform="translate(-378.006 -1615.243)" fill="#67aeef"/>
        <path id="Path_610835" data-name="Path 610835" d="M411.056,1909.234c-.953-.682-2.379-1.226-2.714-.831-.561.662,2.156,3.711,2.27,3.837.713.793,2.412,2.683,2.928,2.359.586-.368-.172-3.711-2.484-5.365" transform="translate(-384.947 -1799.277)" fill="#67aeef"/>
        <path id="Path_610836" data-name="Path 610836" d="M509.631,1116.078c-.6.08-.793,2.769-.352,4.9.111.535.37,1.783.772,1.8.437.014.949-1.437,1-2.738.079-1.969-.878-4.028-1.421-3.956" transform="translate(-479.965 -1052.331)" fill="#67aeef"/>
        <path id="Path_610837" data-name="Path 610837" d="M557.3,1315.789c-.569-.064-1.241,1.721-1.51,2.809-.621,2.509-.108,5.381.593,5.458.6.065,1.342-1.923,1.609-3.342.426-2.267-.027-4.849-.691-4.924" transform="translate(-523.786 -1240.635)" fill="#67aeef"/>
        <path id="Path_610838" data-name="Path 610838" d="M514.489,1607.6c-.494-.21-1.633,1.469-2.261,2.4-.184.271-2.135,3.147-1.561,3.682.369.344,1.731-.329,2.6-1.23,1.664-1.729,1.8-4.6,1.225-4.847" transform="translate(-481.4 -1515.759)" fill="#67aeef"/>
        <path id="Path_610839" data-name="Path 610839" d="M594.448,1810.923c-.454-.1-1.155,1.534-1.558,2.469-.969,2.254-1.873,5.613-1.251,5.889.533.237,2.226-1.774,2.9-4.042.58-1.964.419-4.208-.086-4.316" transform="translate(-557.654 -1707.486)" fill="#67aeef"/>
        <rect id="Rectangle_378113" data-name="Rectangle 378113" width="59.643" height="108.132" transform="translate(123.978 15.907)" fill="#1e43ba"/>
        <path id="Path_610840" data-name="Path 610840" d="M2077.28,380.076l-6.225-101.567h-47.844V386.64h68.064v-2.4Z" transform="translate(-1907.654 -262.601)" fill="#1138a5"/>
        <rect id="Rectangle_378114" data-name="Rectangle 378114" width="47.002" height="108.132" transform="translate(113.991 15.907)" fill="#2a62d1"/>
        <rect id="Rectangle_378115" data-name="Rectangle 378115" width="31.528" height="25.969" transform="translate(122.242 88.08)" fill="#234fcc"/>
        <rect id="Rectangle_378116" data-name="Rectangle 378116" width="31.528" height="24.576" transform="translate(120.071 89.473)" fill="#2d6ed6"/>
        <rect id="Rectangle_378117" data-name="Rectangle 378117" width="37.641" height="4.341" transform="translate(115.558 80.106)" fill="#214ecc"/>
        <path id="Path_610841" data-name="Path 610841" d="M2133.768,1543.512H2102.24l2.171-1.393h31.528Z" transform="translate(-1982.169 -1454.04)" fill="#3d84ea"/>
        <rect id="Rectangle_378118" data-name="Rectangle 378118" width="8.287" height="2.007" transform="translate(133.437 94.238)" fill="#e88a03"/>
        <rect id="Rectangle_378119" data-name="Rectangle 378119" width="8.796" height="2.007" transform="translate(131.609 94.238)" fill="#ffc533"/>
        <rect id="Rectangle_378120" data-name="Rectangle 378120" width="31.528" height="26.654" transform="translate(122.242 22.625)" fill="#234fcc"/>
        <rect id="Rectangle_378121" data-name="Rectangle 378121" width="31.528" height="25.396" transform="translate(120.071 23.883)" fill="#2d6ed6"/>
        <path id="Path_610842" data-name="Path 610842" d="M2133.768,397.512H2102.24l2.171-1.393h31.528Z" transform="translate(-1982.169 -373.494)" fill="#3d84ea"/>
        <rect id="Rectangle_378122" data-name="Rectangle 378122" width="8.287" height="2.007" transform="translate(133.437 29.469)" fill="#e88a03"/>
        <rect id="Rectangle_378123" data-name="Rectangle 378123" width="8.796" height="2.007" transform="translate(131.609 29.469)" fill="#ffc533"/>
        <path id="Path_610843" data-name="Path 610843" d="M2239.725,420.51h-4.341c-.037,1.906.114,3.925.038,6.283-.2,6.274-.349,7.392-.914,8.91-.333.9-2.476,6.405-7.768,8.567a11.832,11.832,0,0,1-3.2.8c-2.221.265-4.951.5-7.8.7h25.045Z" transform="translate(-2089.192 -396.492)" fill="#2f62d3"/>
        <path id="Path_610844" data-name="Path 610844" d="M2566.978,396.119h-5.738l-1.85,1.393h5.417Z" transform="translate(-2413.208 -373.494)" fill="#337ae2"/>
        <path id="Path_610845" data-name="Path 610845" d="M2132.145,864.613h-29.372l-.533-.822h29.9Z" transform="translate(-1982.169 -814.455)" fill="#214ecc"/>
        <path id="Path_610846" data-name="Path 610846" d="M2135.939,1998.248h-33.1l-.6-.822h33.7Z" transform="translate(-1982.169 -1883.341)" fill="#214ecc"/>
        <path id="Path_610847" data-name="Path 610847" d="M2351.426,1662.161c-1.973,12.112-8.052,17.12-18.343,19.113h18.343Z" transform="translate(-2199.827 -1567.225)" fill="#3163d3"/>
        <path id="Path_610848" data-name="Path 610848" d="M2092.6,747.007h-17.108l-3.99-3.816h-9.888v24.286h.016v.114h30.986Z" transform="translate(-1943.864 -700.742)" fill="#ef8800"/>
        <path id="Path_610849" data-name="Path 610849" d="M2061.494,747.007l-3.99-3.816h-9.888v24.286h30.358v-20.47Z" transform="translate(-1930.664 -700.742)" fill="#f7b103"/>
        <rect id="Rectangle_378124" data-name="Rectangle 378124" width="24.015" height="20.009" transform="translate(120.245 45.014)" fill="#dce3f4"/>
        <path id="Path_610850" data-name="Path 610850" d="M2061.913,872.31l1.834-1.863h14.5v17.132H2047.89V872.31Z" transform="translate(-1930.923 -820.73)" fill="#ffc533"/>
        <path id="Path_610851" data-name="Path 610851" d="M2049.7,904.751l12.217-1.689H2047.89v15.269h.321Z" transform="translate(-1930.923 -851.483)" fill="#ffdd50"/>
        <path id="Path_610852" data-name="Path 610852" d="M2141.677,900.021a24.546,24.546,0,0,1-1.585,5.026,15.751,15.751,0,0,1-6.34,7.282,14.744,14.744,0,0,1-5.74,1.8c-3.015.371-7.389.834-12.851,1.335h26.515Z" transform="translate(-1994.353 -848.615)" fill="#ffb31a"/>
        <path id="Path_610853" data-name="Path 610853" d="M1983.107,747.007H1966l-3.99-3.816h-9.888v24.286h.016v.114h30.986Z" transform="translate(-1840.624 -700.742)" fill="#ef8800"/>
        <path id="Path_610854" data-name="Path 610854" d="M1952,747.007l-3.99-3.816h-9.888v24.286h30.358v-20.47Z" transform="translate(-1827.424 -700.742)" fill="#f7b103"/>
        <rect id="Rectangle_378125" data-name="Rectangle 378125" width="24.015" height="25.356" transform="translate(113.991 39.668)" fill="#ebf0ff"/>
        <path id="Path_610855" data-name="Path 610855" d="M1952.418,872.31l1.835-1.863h14.5v17.132H1938.4V872.31Z" transform="translate(-1827.682 -820.73)" fill="#ffc533"/>
        <path id="Path_610856" data-name="Path 610856" d="M1940.2,904.751l12.217-1.689H1938.4v15.269h.321Z" transform="translate(-1827.682 -851.483)" fill="#ffdd50"/>
        <path id="Path_610857" data-name="Path 610857" d="M2032.183,900.021a24.546,24.546,0,0,1-1.585,5.026,15.754,15.754,0,0,1-6.34,7.282,14.745,14.745,0,0,1-5.74,1.8c-3.015.371-7.389.834-12.851,1.335h26.515Z" transform="translate(-1891.112 -848.615)" fill="#ffb31a"/>
        <rect id="Rectangle_378126" data-name="Rectangle 378126" width="5.268" height="1.024" transform="translate(116.952 42.448)" fill="#dce3f4"/>
        <rect id="Rectangle_378127" data-name="Rectangle 378127" width="3.858" height="1.024" transform="translate(116.952 45.014)" fill="#dce3f4"/>
        <rect id="Rectangle_378128" data-name="Rectangle 378128" width="5.733" height="1.024" transform="translate(122.05 45.014)" fill="#dce3f4"/>
        <rect id="Rectangle_378129" data-name="Rectangle 378129" width="5.733" height="1.024" transform="translate(128.743 45.014)" fill="#dce3f4"/>
        <rect id="Rectangle_378130" data-name="Rectangle 378130" width="5.733" height="1.024" transform="translate(117.034 47.325)" fill="#dce3f4"/>
        <rect id="Rectangle_378131" data-name="Rectangle 378131" width="4.445" height="1.024" transform="translate(124.298 47.325)" fill="#dce3f4"/>
        <rect id="Rectangle_378132" data-name="Rectangle 378132" width="4.445" height="1.024" transform="translate(130.03 47.325)" fill="#dce3f4"/>
        <rect id="Rectangle_378133" data-name="Rectangle 378133" width="12.051" height="24.655" transform="translate(141.147 57.077)" fill="#1e43ba"/>
        <path id="Path_610858" data-name="Path 610858" d="M2473.039,1021.227l-1.8-21.914v24.655h12.052v-.994Z" transform="translate(-2330.093 -942.236)" fill="#1138a5"/>
        <rect id="Rectangle_378134" data-name="Rectangle 378134" width="31.528" height="26.654" transform="translate(109.619 55.181)" fill="#234fcc"/>
        <rect id="Rectangle_378135" data-name="Rectangle 378135" width="31.528" height="25.396" transform="translate(107.449 56.439)" fill="#2d6ed6"/>
        <path id="Path_610859" data-name="Path 610859" d="M1912.769,967.512H1881.24l2.17-1.393h31.528Z" transform="translate(-1773.792 -910.938)" fill="#3d84ea"/>
        <rect id="Rectangle_378136" data-name="Rectangle 378136" width="8.287" height="2.007" transform="translate(120.814 62.025)" fill="#e88a03"/>
        <rect id="Rectangle_378137" data-name="Rectangle 378137" width="8.796" height="2.007" transform="translate(118.986 62.025)" fill="#ffc533"/>
        <path id="Path_610860" data-name="Path 610860" d="M1887.818,990.15l-6.578,8.434v5.974l11.238-14.408Z" transform="translate(-1773.791 -933.597)" fill="#3075d8"/>
        <path id="Path_610861" data-name="Path 610861" d="M1908.351,1084.324c-11.157-1.409-25.267-2.309-25.267-2.309s-.988-11.094-1.845-18.8v21.109Z" transform="translate(-1773.791 -1002.488)" fill="#3378dd"/>
        <rect id="Rectangle_378138" data-name="Rectangle 378138" width="29.17" height="45.52" transform="translate(205.515 70.235)" fill="#8585e0"/>
        <rect id="Rectangle_378139" data-name="Rectangle 378139" width="28.447" height="45.52" transform="translate(197.382 70.235)" fill="#9494ed"/>
        <path id="Path_610862" data-name="Path 610862" d="M3990.537,1306.612c0,1.687-.772,2.983-2.142,3.055-1.782.094-2.827-1.368-2.827-3.055s.788-3.055,2.827-3.055c1.372,0,2.142,1.368,2.142,3.055" transform="translate(-3757.927 -1229.103)" fill="#7878ce"/>
        <path id="Path_610863" data-name="Path 610863" d="M3996.536,1306.612a2.538,2.538,0,1,1-2.484-3.055,2.814,2.814,0,0,1,2.484,3.055" transform="translate(-3763.585 -1229.103)" fill="#f7f4f9"/>
        <path id="Path_610864" data-name="Path 610864" d="M4003.48,1318.525a2.569,2.569,0,1,1,1.914-2.484,2.258,2.258,0,0,1-1.914,2.484" transform="translate(-3773.013 -1238.532)" fill="#5353aa"/>
        <path id="Path_610865" data-name="Path 610865" d="M4014.336,1313.557a1.682,1.682,0,0,0-1.257.612,1.666,1.666,0,0,1,.542-.091,2.088,2.088,0,0,1,1.914,2.223,2.168,2.168,0,0,1-1.546,2.182,1.5,1.5,0,0,0,.348.042,2.569,2.569,0,0,0,0-4.968" transform="translate(-3783.868 -1238.532)" fill="#7878ce"/>
        <rect id="Rectangle_378140" data-name="Rectangle 378140" width="4.97" height="9.139" transform="translate(227.982 82.515)" fill="#ebf0ff"/>
        <rect id="Rectangle_378141" data-name="Rectangle 378141" width="14.622" height="6.076" transform="translate(203.996 76.681)" fill="#fafbff"/>
        <rect id="Rectangle_378142" data-name="Rectangle 378142" width="3.256" height="0.685" transform="translate(205.196 78.06)" fill="#eaedf4"/>
        <rect id="Rectangle_378143" data-name="Rectangle 378143" width="3.256" height="0.685" transform="translate(209.238 78.06)" fill="#eaedf4"/>
        <rect id="Rectangle_378144" data-name="Rectangle 378144" width="3.256" height="0.685" transform="translate(228.839 83.942)" fill="#dae0ea"/>
        <rect id="Rectangle_378145" data-name="Rectangle 378145" width="3.256" height="0.685" transform="translate(228.839 85.21)" fill="#dae0ea"/>
        <rect id="Rectangle_378146" data-name="Rectangle 378146" width="3.256" height="0.685" transform="translate(228.839 86.741)" fill="#dae0ea"/>
        <rect id="Rectangle_378147" data-name="Rectangle 378147" width="2.742" height="0.685" transform="translate(205.196 79.377)" fill="#eaedf4"/>
        <rect id="Rectangle_378148" data-name="Rectangle 378148" width="3.994" height="0.685" transform="translate(208.741 79.377)" fill="#eaedf4"/>
        <rect id="Rectangle_378149" data-name="Rectangle 378149" width="3.994" height="0.685" transform="translate(205.196 80.801)" fill="#eaedf4"/>
        <rect id="Rectangle_378150" data-name="Rectangle 378150" width="3.568" height="0.685" transform="translate(213.649 79.377)" fill="#eaedf4"/>
        <rect id="Rectangle_378151" data-name="Rectangle 378151" width="29.17" height="45.52" transform="translate(193.566 68.415)" fill="#f2412a"/>
        <rect id="Rectangle_378152" data-name="Rectangle 378152" width="28.447" height="45.52" transform="translate(185.433 68.415)" fill="#ff6a48"/>
        <path id="Path_610866" data-name="Path 610866" d="M3781.336,1274.744c0,1.687-.771,2.983-2.142,3.055-1.782.094-2.828-1.368-2.828-3.055s.788-3.055,2.828-3.055c1.372,0,2.142,1.368,2.142,3.055" transform="translate(-3560.676 -1199.055)" fill="#e52d1f"/>
        <path id="Path_610867" data-name="Path 610867" d="M3787.336,1274.744a2.538,2.538,0,1,1-2.485-3.055,2.814,2.814,0,0,1,2.485,3.055" transform="translate(-3566.333 -1199.055)" fill="#f7f4f9"/>
        <path id="Path_610868" data-name="Path 610868" d="M3794.281,1286.658a2.569,2.569,0,1,1,1.913-2.484,2.258,2.258,0,0,1-1.913,2.484" transform="translate(-3575.762 -1208.485)" fill="#a00712"/>
        <path id="Path_610869" data-name="Path 610869" d="M3805.135,1281.689a1.682,1.682,0,0,0-1.256.612,1.662,1.662,0,0,1,.541-.091,2.088,2.088,0,0,1,1.914,2.223,2.168,2.168,0,0,1-1.546,2.182,1.494,1.494,0,0,0,.347.042,2.569,2.569,0,0,0,0-4.968" transform="translate(-3586.617 -1208.484)" fill="#bc140f"/>
        <rect id="Rectangle_378153" data-name="Rectangle 378153" width="4.97" height="9.139" transform="translate(216.034 80.694)" fill="#ebf0ff"/>
        <rect id="Rectangle_378154" data-name="Rectangle 378154" width="37.772" height="29.179" transform="translate(198.917 93.991)" fill="#f9a30b"/>
        <path id="Path_610870" data-name="Path 610870" d="M3506.828,1669.741a11.071,11.071,0,0,1-2.817-4.829c-1.671-5.2-2.062-13.832-2.13-19.292h-19.19V1674.8h37.773v-1.007a42.838,42.838,0,0,1-7.4-1.134c-3.206-.787-4.871-1.6-6.238-2.918" transform="translate(-3283.773 -1551.629)" fill="#f49600"/>
        <rect id="Rectangle_378155" data-name="Rectangle 378155" width="37.772" height="10.696" transform="translate(198.917 90.05)" fill="#f49600"/>
        <rect id="Rectangle_378156" data-name="Rectangle 378156" width="34.589" height="29.179" transform="translate(183.214 93.991)" fill="#ffc533"/>
        <path id="Path_610871" data-name="Path 610871" d="M3210.425,1672.357l-2.262-26.737h-.4V1674.8h34.589v-.607Z" transform="translate(-3024.546 -1551.628)" fill="#ffd243"/>
        <rect id="Rectangle_378157" data-name="Rectangle 378157" width="34.589" height="10.696" transform="translate(183.214 90.05)" fill="#ffb715"/>
        <path id="Path_610872" data-name="Path 610872" d="M3407.293,1760.4h-9.932a2.4,2.4,0,0,1,0-4.8h9.932a2.4,2.4,0,0,1,0,4.8" transform="translate(-3201.052 -1655.327)" fill="#ef8800"/>
        <path id="Path_610873" data-name="Path 610873" d="M3396.694,1758.79h0a2.4,2.4,0,0,1,2.4-2.4h9.976a2.4,2.4,0,0,0-1.779-.788h-9.932a2.4,2.4,0,0,0-.043,4.8,2.391,2.391,0,0,1-.623-1.614" transform="translate(-3201.052 -1655.328)" fill="#e57200"/>
        <rect id="Rectangle_378158" data-name="Rectangle 378158" width="40.417" height="8.988" transform="translate(198.163 88.717)" fill="#ffc533"/>
        <path id="Path_610874" data-name="Path 610874" d="M3492.317,1560.816l-1.308-7.534h-21.53v8.988H3509.9v-.6Z" transform="translate(-3271.316 -1464.565)" fill="#fcb517"/>
        <rect id="Rectangle_378159" data-name="Rectangle 378159" width="37.68" height="8.988" transform="translate(181.446 88.717)" fill="#ffdd50"/>
        <path id="Path_610875" data-name="Path 610875" d="M3178.567,1560.816l-.956-7.534h-.813v8.988h37.68v-.75Z" transform="translate(-2995.353 -1464.565)" fill="#ffe652"/>
        <rect id="Rectangle_378160" data-name="Rectangle 378160" width="14.622" height="6.076" transform="translate(192.048 74.861)" fill="#fafbff"/>
        <rect id="Rectangle_378161" data-name="Rectangle 378161" width="3.256" height="0.685" transform="translate(193.247 76.239)" fill="#eaedf4"/>
        <rect id="Rectangle_378162" data-name="Rectangle 378162" width="3.256" height="0.685" transform="translate(197.289 76.239)" fill="#eaedf4"/>
        <rect id="Rectangle_378163" data-name="Rectangle 378163" width="3.256" height="0.685" transform="translate(216.891 82.122)" fill="#dae0ea"/>
        <rect id="Rectangle_378164" data-name="Rectangle 378164" width="3.256" height="0.685" transform="translate(216.891 83.39)" fill="#dae0ea"/>
        <rect id="Rectangle_378165" data-name="Rectangle 378165" width="3.256" height="0.685" transform="translate(216.891 84.921)" fill="#dae0ea"/>
        <rect id="Rectangle_378166" data-name="Rectangle 378166" width="2.742" height="0.685" transform="translate(193.247 77.557)" fill="#eaedf4"/>
        <rect id="Rectangle_378167" data-name="Rectangle 378167" width="3.994" height="0.685" transform="translate(196.792 77.557)" fill="#eaedf4"/>
        <rect id="Rectangle_378168" data-name="Rectangle 378168" width="3.994" height="0.685" transform="translate(193.247 78.981)" fill="#eaedf4"/>
        <rect id="Rectangle_378169" data-name="Rectangle 378169" width="3.568" height="0.685" transform="translate(201.7 77.557)" fill="#eaedf4"/>
        <path id="Path_610876" data-name="Path 610876" d="M2704.7,1058.609a.429.429,0,0,1,.2-.084c.172-.035.682-.147.806-.194a1.608,1.608,0,0,0,.192-2.163,1.84,1.84,0,0,0-.963-.143,1.123,1.123,0,0,0-.319.04,1.148,1.148,0,0,0-.318.146,2.075,2.075,0,0,0-.354.311c-.039.039-.1.106-.226.241a1.593,1.593,0,0,0-.22.268,1.69,1.69,0,0,0-.085.168c-.043.092-.074.174-.135.335s-.071.2-.068.249a.24.24,0,0,0,.073.177.232.232,0,0,0,.233.021c.076-.033.1-.092.182-.246a3.4,3.4,0,0,1,.225-.347,1.473,1.473,0,0,1,.264-.263,1.166,1.166,0,0,1,.548-.267c.008.015-.14.08-.362.27a2.186,2.186,0,0,0-.315.324c-.033.043-.081.119-.177.273a2.76,2.76,0,0,0-.21.38c-.088.2-.072.254-.062.277a.231.231,0,0,0,.239.12c.066-.012.105-.059.242-.265.157-.237.137-.223.182-.281a1.489,1.489,0,0,1,.438-.35c.177-.112.332-.209.369-.172s-.1.264-.178.366a1.616,1.616,0,0,1-.161.177c-.132.129-.16.123-.259.219a1.33,1.33,0,0,0-.257.361c-.1.184-.089.239-.078.266a.206.206,0,0,0,.177.126c.1,0,.175-.081.244-.159s.071-.124.14-.18" transform="translate(-2548.809 -995.708)" fill="#d16e54"/>
        <path id="Path_610877" data-name="Path 610877" d="M2703.694,1066.751a3.371,3.371,0,0,1,.225-.347,1.475,1.475,0,0,1,.264-.263,1.665,1.665,0,0,1,.258-.166,2.328,2.328,0,0,1,.3-.219c.2-.12.332-.161.294-.165-.514-.051-1.067.323-1.485,1.111-.062.116-.134.134-.184.129s-.108-.061-.144-.146a.262.262,0,0,0-.018.113.24.24,0,0,0,.073.177.232.232,0,0,0,.233.021c.076-.033.1-.092.182-.246" transform="translate(-2548.809 -1004.725)" fill="#c36252"/>
        <path id="Path_610878" data-name="Path 610878" d="M2720.034,1095.286a.431.431,0,0,1,.2-.085c.146-.029.534-.114.724-.168a.058.058,0,0,0,0-.038c-.054-.138-.845-.082-1.019.213a.4.4,0,0,1-.184.184.214.214,0,0,1-.194,0,.162.162,0,0,1-.057-.058c-.044.1-.035.141-.027.162a.206.206,0,0,0,.177.126c.1,0,.175-.082.244-.159s.071-.124.14-.18" transform="translate(-2564.143 -1032.386)" fill="#c36252"/>
        <path id="Path_610879" data-name="Path 610879" d="M2710.726,1078.083a1.493,1.493,0,0,1,.438-.35c.161-.1.3-.191.355-.179.092-.1.112-.147.1-.167-.047-.069-.574.116-.851.45-.217.261-.372.579-.432.61a.172.172,0,0,1-.158-.011.2.2,0,0,1-.088-.114c-.047.129-.034.168-.026.187a.232.232,0,0,0,.239.12c.066-.012.105-.059.242-.265.157-.237.137-.223.182-.281" transform="translate(-2555.266 -1015.838)" fill="#c36252"/>
        <path id="Path_610880" data-name="Path 610880" d="M2739.945,1056.243c-.419-.188-.763-.365-1.018-.494-.852-.433-.788-.459-1.563-.847-.289-.144-.561-.321-.853-.458a1.55,1.55,0,0,1-.529-.342,1.689,1.689,0,0,1-.263-.428,3.531,3.531,0,0,1-.177-.427,3.741,3.741,0,0,1-.226-.787,1.767,1.767,0,0,0-.116-.545c-.006-.011-.042-.083-.086-.181a1.6,1.6,0,0,1-.079-.192c-.041-.135-.011-.153-.047-.218-.023-.042-.053-.068-.235-.168-.16-.088-.188-.1-.268-.142a1.047,1.047,0,0,1-.1-.065,1.363,1.363,0,0,1-.552.376l0,0c.014.024,0,.049-.012.109s-.026.13-.044.194c-.052.183.024.269-.012.544a1.377,1.377,0,0,1-.046.216,1.837,1.837,0,0,1-.177.4,1.344,1.344,0,0,0-.133.84,1.227,1.227,0,0,0,.189.415,2.184,2.184,0,0,0,.377.432,2.535,2.535,0,0,0,.4.355.4.4,0,0,1,.13.107.809.809,0,0,1,.076.155.5.5,0,0,0,.188.181,5.34,5.34,0,0,0,.528.271c.075.041.141.086.273.177,0,0,.282.193.536.405a18.091,18.091,0,0,1,1.38,1.421c.8.892,1.193,1.337,1.474,1.365a1.094,1.094,0,0,0,.48-.069l1.075-2.273a2.476,2.476,0,0,0-.576-.332" transform="translate(-2577.268 -990.922)" fill="#eb8e6c"/>
        <path id="Path_610881" data-name="Path 610881" d="M2739.462,1056.579a.992.992,0,0,0-.042-.162c-.017-.053-.036-.1-.052-.145-.039-.1-.041-.094-.047-.118a.349.349,0,0,1,0-.158,1.6,1.6,0,0,0-.075.2c-.017.064-.026.131-.044.195-.052.183.024.269-.012.544a1.34,1.34,0,0,1-.034.174c.054-.077.092.078.129.029a1.076,1.076,0,0,0,.179-.554" transform="translate(-2582.704 -995.682)" fill="#d16e54"/>
        <path id="Path_610882" data-name="Path 610882" d="M2712.906,1049.3a2.752,2.752,0,0,0-.61-.453,5.066,5.066,0,0,1-.543-.375,1.3,1.3,0,0,1-.321-.337c-.054-.09-.121-.229-.146-.282a2.258,2.258,0,0,0-.1-.22,4.087,4.087,0,0,0-.389-.486.407.407,0,0,0-.368-.121.358.358,0,0,0-.206.336.56.56,0,0,0,.08.239c.074.151.791,1.49.833,1.559.051.084.092.142.106.162a1.823,1.823,0,0,1,.224.543c.1.375.728,1.1,1.086,1.149.431.053.742-1.225.359-1.715" transform="translate(-2555.422 -987.215)" fill="#eb8e6c"/>
        <path id="Path_610883" data-name="Path 610883" d="M2709.71,1046.047a.182.182,0,0,0,0-.126.337.337,0,0,0-.084-.136.492.492,0,0,0-.193-.172.239.239,0,0,0-.149-.018.222.222,0,0,0-.126.086.267.267,0,0,0-.04.17.489.489,0,0,0,.135.306.229.229,0,0,0,.086.06.215.215,0,0,0,.1.011c.029,0,.048-.013.161-.091.084-.058.095-.069.1-.089" transform="translate(-2554.388 -985.868)" fill="#ffdbb6"/>
        <path id="Path_610884" data-name="Path 610884" d="M2714.341,1053.153l0-.008a.231.231,0,0,0-.138-.015.214.214,0,0,0-.174.2.213.213,0,0,0,.043,0c.029,0,.048-.013.161-.091.084-.058.095-.069.1-.089" transform="translate(-2559.018 -992.975)" fill="#ffebd9"/>
        <path id="Path_610885" data-name="Path 610885" d="M2709.329,1045.675a.307.307,0,0,1,.224.02.307.307,0,0,0-.116-.083.239.239,0,0,0-.149-.018.221.221,0,0,0-.126.086.266.266,0,0,0-.04.17.326.326,0,0,0,0,.043.32.32,0,0,1,.2-.218" transform="translate(-2554.388 -985.868)" fill="#ffebd9"/>
        <path id="Path_610886" data-name="Path 610886" d="M2758.709,1126.02a7.623,7.623,0,0,1-1.51-1.347,8.031,8.031,0,0,0-1.038-1.1,4.026,4.026,0,0,0-1.239-.829,6.614,6.614,0,0,1-.806-.329c-.123-.062-.231-.121-.322-.174a.728.728,0,0,0,.032.078.5.5,0,0,0,.188.18,5.242,5.242,0,0,0,.529.271c.075.041.141.086.272.176,0,0,.281.193.535.405a18.049,18.049,0,0,1,1.38,1.421c.8.892,1.193,1.338,1.474,1.365a1,1,0,0,0,.489-.087Z" transform="translate(-2596.508 -1058.144)" fill="#d16e54"/>
        <path id="Path_610887" data-name="Path 610887" d="M2898.892,1188.841a10.918,10.918,0,0,1,3.9-.492c1.932-.054,4.279-.086,5.31.376,1.223.547,1.286,1.028,1.324,1.391.576,5.412-11.562,3.61-12.069,3.113-1.118-1.1-3.188-3.2,1.539-4.389" transform="translate(-2730.523 -1120.447)" fill="#8abff9"/>
        <path id="Path_610888" data-name="Path 610888" d="M2770.882,1112.059c-.022-1.265-8.37-5.92-9.853-6.732a7.5,7.5,0,0,1-1.666,1.919c1.276,2.14,2.972,3.211,4.759,4.745s4.134,3.248,5.068,3.038c.684-.154,1.705-2.213,1.692-2.97" transform="translate(-2601.76 -1042.195)" fill="#8abff9"/>
        <path id="Path_610889" data-name="Path 610889" d="M2777.878,1139.793a31.347,31.347,0,0,1-5.823.516,10.112,10.112,0,0,1-3.2-.359,12.245,12.245,0,0,1-3.287-1.861,35.054,35.054,0,0,1-3.735-2.94c-.771-.7-1.452-1.384-2.049-2.026a1.923,1.923,0,0,1-.419.332c1.276,2.139,2.972,3.211,4.759,4.745a16.184,16.184,0,0,0,4.467,2.985h0c.467.459,10.847,2.03,11.987-1.989-.927.224-1.837.427-2.7.6" transform="translate(-2601.76 -1068.403)" fill="#83bdf2"/>
        <path id="Path_610890" data-name="Path 610890" d="M3199.7,2107.356a1.964,1.964,0,0,0-2.628-.386c-.214.276-.014.567-.309,1.185-.215.449-.4.458-.49.747a1.785,1.785,0,0,0,1.237,1.984,1.818,1.818,0,0,0,2.087-.928c.031-.07.324-.194.1-.747-.236-.593.122-1.635,0-1.855" transform="translate(-3013.672 -1986.3)" fill="#eb8e6c"/>
        <path id="Path_610891" data-name="Path 610891" d="M3049.636,2091.368c.051-.607.178-.7.077-.954-.329-.839-2.166-1.177-2.655-.593-.329.393.172.942-.258,1.8a1.054,1.054,0,0,0-.206.67c.043.252.227.384.49.619.813.725.686.915,1.057,1.057a1.424,1.424,0,0,0,1.572-.413c.313-.485-.185-.913-.077-2.19" transform="translate(-2872.578 -1970.183)" fill="#eb8e6c"/>
        <path id="Path_610892" data-name="Path 610892" d="M3045.105,1507.274c-1.653-1.972-4.615-5.385-5.855-4.216-.777.733-1.5,7.44-1.026,13.49.118,1.512.357,3,.5,3.789a20.172,20.172,0,0,1,.6,3.989c0,.772-.068,1.746-.1,2.194-.069.966-.14,1.519-.2,2.094-.27,2.62-.077,2.68-.2,5.086-.079,1.545,0,3.74,0,3.74l3.141.3a19.886,19.886,0,0,1,.149-2.343c.265-1.685.593-1.691.9-3.191a28.292,28.292,0,0,0,.171-5.784,5.05,5.05,0,0,1,.195-1.677c.6-2.064,1.14-8.567.422-11.724-.21-.924,3.523-3.1,1.306-5.745" transform="translate(-2864.551 -1416.985)" fill="#fff"/>
        <path id="Path_610893" data-name="Path 610893" d="M3094.721,1614.241c-.716.375.54,7.993.524,9.53a24.131,24.131,0,0,1-.232,2.841c-.169,1.4-.243,1.383-.348,2.435-.024.241-.092.962-.116,3.073-.025,2.19.042,2.017,0,2.725a25.967,25.967,0,0,1-.87,4.232,15.4,15.4,0,0,0-.23,3.643l.707.067a19.832,19.832,0,0,1,.149-2.344c.264-1.685.593-1.691.9-3.191a28.255,28.255,0,0,0,.171-5.784,5.05,5.05,0,0,1,.2-1.677c.6-2.064,1.14-8.567.422-11.724-.054-.236.151-.554.447-.941-.738-.994-1.43-3.036-1.717-2.886" transform="translate(-2916.743 -1522.035)" fill="#ebf0ff"/>
        <path id="Path_610894" data-name="Path 610894" d="M3115.722,1510.621a23.062,23.062,0,0,1-.1-4.587,22.157,22.157,0,0,1,.2-4.288c1.2-5.367.3-10.6-.336-11.3-1.949-2.115-7.525-.475-8.116,1.183-.066.186.344,3.271.574,4.728a107.942,107.942,0,0,0,3.066,15.518c.291.925.885,1.777,1.222,2.631a8.973,8.973,0,0,1,.5,2.393c.265,2.223.052,2.42.3,4.687.13,1.193-.311,3.894-.05,4.28,0,0,3.132.162,3.141-.092.1-2.643.88-5.586.9-7.978a17.739,17.739,0,0,0-.3-3.69c-.357-1.847-.695-1.883-1-3.49" transform="translate(-2929.882 -1404.377)" fill="#fff"/>
        <path id="Path_610895" data-name="Path 610895" d="M3150.1,2137.665c-.13.008-.061.665-.4.8-.06.024-.213.063-.8-.3-.552-.342-.566-.469-.9-.648s-1.042-.435-1.4-.15c-.229.185-.083.408-.3,1.047a3.641,3.641,0,0,1-.7,1.2,4.286,4.286,0,0,1-.748.7c-.408.293-.583.3-.848.6a1.176,1.176,0,0,0-.349.7.839.839,0,0,0,.2.648c.148.145.325.161.648.2.366.043.729.115,1.1.149a9.5,9.5,0,0,0,1.545.15,2.941,2.941,0,0,0,1.147-.349c.445-.248.4-.392.9-.7.577-.357.8-.264,1.047-.548.145-.167.244-.4.25-1.147.009-1.185-.225-2.354-.4-2.343" transform="translate(-2964.11 -2015.166)" fill="#8989e5"/>
        <path id="Path_610896" data-name="Path 610896" d="M2968.021,2133.937c-.153,0-.119.523-.549.8a.845.845,0,0,1-.748.1c-.3-.131-.255-.426-.549-.8a1.45,1.45,0,0,0-1.446-.6c-.163.069-.135.147-.549.7-.239.319-.434.541-.748.9a8.654,8.654,0,0,1-.6.648,3.587,3.587,0,0,1-1.147.748c-.711.271-1,.058-1.346.4a1.377,1.377,0,0,0-.349.748.962.962,0,0,0,.05.6c.145.274.482.374.948.449a5.693,5.693,0,0,0,2.144.05c.849-.143.768-.286,1.944-.548.945-.211,1.7-.3,1.7-.3,1.071-.126,1.349-.039,1.6-.3s.217-.692.149-1.546c-.072-.911-.273-2.048-.5-2.044" transform="translate(-2790.907 -2011.538)" fill="#8989e5"/>
        <path id="Path_610897" data-name="Path 610897" d="M3148.8,2184.2a3.758,3.758,0,0,1-1.246.4,4.661,4.661,0,0,1-1.346,0c-.479-.069-.664-.173-1.3-.249-.167-.02-.669-.032-1.066-.04a.99.99,0,0,0-.181.489.842.842,0,0,0,.2.648c.148.145.325.161.648.2.367.043.73.115,1.1.149a9.55,9.55,0,0,0,1.546.15,2.951,2.951,0,0,0,1.147-.349c.445-.249.4-.393.9-.7.577-.357.8-.264,1.047-.548.144-.166.243-.4.249-1.147,0-.052,0-.1,0-.156a16.677,16.677,0,0,1-1.7,1.153" transform="translate(-2964.11 -2058.359)" fill="#5353aa"/>
        <path id="Path_610898" data-name="Path 610898" d="M2966.525,2186.957a16.624,16.624,0,0,1-2.942.6,8.742,8.742,0,0,1-3.548-.1,1.5,1.5,0,0,0-.042.2.963.963,0,0,0,.05.6c.145.274.482.373.948.448a5.688,5.688,0,0,0,2.144.05c.849-.143.768-.286,1.944-.548.945-.211,1.7-.3,1.7-.3,1.071-.126,1.349-.039,1.6-.3.2-.21.218-.535.182-1.1-.788.18-1.744.381-2.027.457" transform="translate(-2790.907 -2061.616)" fill="#5353aa"/>
        <path id="Path_610899" data-name="Path 610899" d="M3050.622,2135.081a.731.731,0,0,1-.446-.077.352.352,0,0,1-.146-.227,1.476,1.476,0,0,0-.168-.362,1.924,1.924,0,0,0-.693-.624,2.182,2.182,0,0,0-.524-.214l-.047.177a2.007,2.007,0,0,1,.48.2,1.732,1.732,0,0,1,.63.564,1.335,1.335,0,0,1,.149.322.52.52,0,0,0,.22.322.787.787,0,0,0,.43.111c.05,0,.094,0,.127-.005a1.174,1.174,0,0,0,.495-.149l-.089-.159a1,1,0,0,1-.418.126" transform="translate(-2874.473 -2011.716)" fill="#5353aa"/>
        <path id="Path_610900" data-name="Path 610900" d="M3214.446,2140.675c-.141.066-.3.015-.521-.071a2.463,2.463,0,0,1-.484-.264,2.617,2.617,0,0,1-.284-.221,2.515,2.515,0,0,0-.24-.189,2.769,2.769,0,0,0-.59-.307l-.064.171a2.553,2.553,0,0,1,.551.286,2.3,2.3,0,0,1,.224.177,2.914,2.914,0,0,0,.3.234,2.694,2.694,0,0,0,.521.283,1.289,1.289,0,0,0,.446.114.505.505,0,0,0,.219-.049.555.555,0,0,0,.219-.19l-.15-.1a.377.377,0,0,1-.146.129" transform="translate(-3028.79 -2017.415)" fill="#5353aa"/>
        <path id="Path_610901" data-name="Path 610901" d="M3220.738,1547.254a29.221,29.221,0,0,0-.958-3.193,6.978,6.978,0,0,1-.447-1.341,11.319,11.319,0,0,1,0-2.554,12.828,12.828,0,0,0-.192-2.107c-.475-3.65.739-9.38-.842-15.5.207.666,2.25.307,2.322.623,1.788,7.814-.343,12.138-.4,14.071a23.063,23.063,0,0,0,.1,4.587c.3,1.607.64,1.643,1,3.49a17.739,17.739,0,0,1,.3,3.69c-.018,2.391-.8,5.335-.9,7.978,0,.08-.319.119-.75.134.3-1.884.5-3.5.638-4.775.4-3.724.266-4.544.128-5.108" transform="translate(-3034.483 -1435.601)" fill="#ebf0ff"/>
        <path id="Path_610902" data-name="Path 610902" d="M3094.7,1025.471a5.042,5.042,0,0,0-.111,1.694c0,.232.007.347,0,.427a5.909,5.909,0,0,1-.4,1.231,2.433,2.433,0,0,0-.1.929,6.8,6.8,0,0,0,.326,1.03,3.589,3.589,0,0,1,.076,1.105,13.732,13.732,0,0,1-.277,1.532,2.841,2.841,0,0,0,.352,2.035,1.859,1.859,0,0,0,1.13.754,2.039,2.039,0,0,0,1.482-.4,3.623,3.623,0,0,0,1.432-1.959c.615-1.97-.582-3.89-1.382-5.174-1.082-1.737-2.295-3.36-2.526-3.2" transform="translate(-2917.352 -966.89)" fill="#050d33"/>
        <path id="Path_610903" data-name="Path 610903" d="M3028.2,1163.671c.115-.125-1.018-.651-.122-.756,2.167-.252,4.354-.712,4.948-.826,1-.192.5-.136,1.34-.277,1.285-.215,1.536-.541,2.458-.222a21.557,21.557,0,0,1,5.289,2.872c.244.159-.735.148-1.02.5a1.518,1.518,0,0,0-.291.766c-.287,1.691-.323-.278-1.038,5.023-.27,2-.4,3-.415,3.618a28.67,28.67,0,0,0,.25,3.576c.308,3.077.355,3.368.415,4.044.266,2.993-14.151,2.772-13.619-.34.369-2.159.5-2.371.664-3.874a41.873,41.873,0,0,0,.208-4.512c.01-2.093-.141-1.94-.083-3.874.137-4.608.674-5.349,1.017-5.718" transform="translate(-2853.526 -1095.118)" fill="#92c6ff"/>
        <path id="Path_610904" data-name="Path 610904" d="M3113.459,1252.945h0c.076,0,.136-.041.134-.088-.109-2.1-.223-5.185-.154-8.11.012-.514.024-.766.04-1.115.019-.41.042-.92.079-2.1.014-.444.024-.813.033-1.124a10.784,10.784,0,0,1,.164-2.176c.04-.2.086-.39.139-.616.1-.428.226-.962.375-1.77.067-.362.129-.726.185-1.085.007-.047-.049-.088-.125-.093s-.143.03-.15.076c-.056.358-.118.721-.184,1.082-.149.806-.274,1.337-.374,1.765-.053.226-.1.422-.139.619a10.881,10.881,0,0,0-.166,2.194c-.009.311-.019.68-.033,1.124-.036,1.176-.06,1.685-.079,2.094-.016.35-.028.6-.04,1.118-.069,2.928.044,6.015.154,8.118,0,.047.066.084.143.082" transform="translate(-2935.332 -1164.155)" fill="#78b7ef"/>
        <path id="Path_610905" data-name="Path 610905" d="M3124.732,1164.584a1.087,1.087,0,0,0,.17.717,1.027,1.027,0,0,0,.68.321,1.611,1.611,0,0,0,.812-.113,6.039,6.039,0,0,0,1.661-.982,12.027,12.027,0,0,0,1.435-1.434c.271-.319.586-.711.924-1.177-.279-.115-.564-.225-.856-.326-.922-.319-1.173.007-2.458.222-.845.141-.339.086-1.34.277-.156.03-.4.077-.7.139-.107.394-.179.739-.228,1.016a6.784,6.784,0,0,0-.094,1.34" transform="translate(-2946.257 -1095.118)" fill="#fff"/>
        <path id="Path_610906" data-name="Path 610906" d="M3130.687,1083.1c-.046.218.254.543.23,1.068a.553.553,0,0,1-.446.518l-.106.021c-.346.922-.619,3.076.035,3.126,2.24.172,4.706-3.633,4.754-4.128a1.425,1.425,0,0,0-.287-.862c-.8-1.473.268-3.421,0-3.528-.224-.089-.526,1.446-1.887,2.42-1.2.861-2.134.614-2.293,1.365" transform="translate(-2951.229 -1017.668)" fill="#eb8e6c"/>
        <path id="Path_610907" data-name="Path 610907" d="M3207.421,1269.681c-.6-1.982-.023-1.253-.226-3.309-.658-6.687.744-10.077,1.107-10.9a5.025,5.025,0,0,1,1.788-2.384,4.117,4.117,0,0,1,.855-.43c-.143.3,2.876-.493,1.5,2.545a22.322,22.322,0,0,0-1.462,12.984c.107.677-3.365,2.153-3.566,1.491" transform="translate(-3023.85 -1181.114)" fill="#8abff9"/>
        <path id="Path_610908" data-name="Path 610908" d="M3245.948,1227.886a42.6,42.6,0,0,1-.485-6.874,4.23,4.23,0,0,1,1.948-2.69c4.492-1.842,2.806,10.834,2.36,11.344-.986,1.126-2.8,2.743-3.823-1.781" transform="translate(-3060.066 -1148.564)" fill="#99cfff"/>
        <path id="Path_610909" data-name="Path 610909" d="M3114.1,1510.547c-.174.2-.114.164-.423.544a1.3,1.3,0,0,0-.2.3,1.348,1.348,0,0,0-.1.4,2.316,2.316,0,0,1-.427.792c-.208.309-.222.276-.409.562a5.86,5.86,0,0,0-.356.624c-.159.327-.141.376-.316.712a3.944,3.944,0,0,1-.285.456c-.023.032-.118.127-.307.317a.212.212,0,0,1-.14.079.2.2,0,0,1-.175-.127.227.227,0,0,1,0-.138.777.777,0,0,1,.173-.319l.19-.249c.092-.144.068-.192.185-.6.065-.226.118-.369.087-.385-.009,0-.024,0-.064.037a.839.839,0,0,0-.189.228c-.071.141-.158.273-.225.416-.01.022-.128.247-.362.7-.431.828-.117.2-.219.4a1.04,1.04,0,0,1-.221.326c-.074.069-.145.132-.236.121a.245.245,0,0,1-.194-.206.324.324,0,0,1,.081-.218c.1-.147.153-.317.238-.47.039-.069.12-.279.281-.7a3.294,3.294,0,0,0,.24-.669,1.516,1.516,0,0,0-.22.334c-.119.206-.186.343-.286.541-.309.613-.28.5-.346.667-.079.2-.2.38-.289.574a.256.256,0,0,1-.128.139.252.252,0,0,1-.242-.049.3.3,0,0,1-.1-.242,1.3,1.3,0,0,1,.147-.454c.13-.274.068-.221.264-.673.046-.1.1-.24.192-.419.053-.108.121-.265.256-.578.036-.084.079-.185.054-.2s-.074.031-.1.049a5.536,5.536,0,0,0-.651,1.151c-.055.145-.094.285-.206.531-.075.165-.135.271-.244.3a.222.222,0,0,1-.2-.038c-.051-.045-.067-.118-.059-.26a2.055,2.055,0,0,1,.136-.57c.1-.32.073-.271.136-.44.021-.056.071-.185.251-.553.156-.318.182-.35.287-.574a2.028,2.028,0,0,0,.209-.548c-.014-.007-.056.082-.172.174-.056.045-.368.34-.6.286-.117-.027-.241-.093-.238-.163,0-.036.034-.048.135-.126a2.412,2.412,0,0,0,.26-.24,1.49,1.49,0,0,0,.138-.181,2.906,2.906,0,0,0,.21-.374c.031-.06.029-.05.373-.537a1.87,1.87,0,0,1,.344-.425,1.37,1.37,0,0,1,.26-.164,5.394,5.394,0,0,1,.993-.348,3.992,3.992,0,0,0,.6-.2,2.065,2.065,0,0,0,.626-.668l.062-.068c.228-.253,1.029-1.218,1.783-2.133l1.464,1.949-1.043.954a8.019,8.019,0,0,0-.681.655" transform="translate(-2931.023 -1420.916)" fill="#eb8e6c"/>
        <path id="Path_610910" data-name="Path 610910" d="M3113.255,1577.6a1.477,1.477,0,0,0,.219-.334,3.973,3.973,0,0,1,.618-.882s-.139.213-.385.616c-.095.155-.144.238-.2.347s-.092.183-.127.261a.933.933,0,0,1-.152.159c-.056.045-.368.34-.6.285l-.017,0a1.928,1.928,0,0,0,.306-.164,1.575,1.575,0,0,0,.34-.285" transform="translate(-2934.829 -1486.346)" fill="#db7c5e"/>
        <path id="Path_610911" data-name="Path 610911" d="M3108.877,1596.137a2.383,2.383,0,0,0,.26-.24l.023-.026a.305.305,0,0,1,.039.2.389.389,0,0,1-.241.259.524.524,0,0,1-.125.043c-.054-.03-.092-.068-.091-.107s.035-.048.135-.126" transform="translate(-2931.183 -1504.721)" fill="#ffd5ca"/>
        <path id="Path_610912" data-name="Path 610912" d="M3150.635,1648.867a.14.14,0,0,1,.076-.042c.029,0,.055.009.107.034s.062.03.068.042c.028.055-.066.159-.133.19-.017.008-.031,0-.05,0-.078-.013-.147-.065-.143-.107a.518.518,0,0,1,.075-.114" transform="translate(-2970.613 -1554.65)" fill="#ffd5ca"/>
        <path id="Path_610913" data-name="Path 610913" d="M3122.636,1650.067a.625.625,0,0,0,.138.049l-.005.022a.65.65,0,0,1-.143-.051.613.613,0,0,1-.1-.061l.013-.018a.612.612,0,0,0,.1.059" transform="translate(-2944.181 -1555.766)" fill="#c36252"/>
        <path id="Path_610914" data-name="Path 610914" d="M3122.523,1648.958a.576.576,0,0,0,.161.038l0,.023a.612.612,0,0,1-.3-.113l.014-.018a.579.579,0,0,0,.129.07" transform="translate(-2944.043 -1554.71)" fill="#c36252"/>
        <path id="Path_610915" data-name="Path 610915" d="M3111.56,1640.11a.975.975,0,0,0,.118.069l-.01.02a1.05,1.05,0,0,1-.12-.07,1,1,0,0,1-.1-.074l.015-.017a1.036,1.036,0,0,0,.094.072" transform="translate(-2933.738 -1546.366)" fill="#c36252"/>
        <path id="Path_610916" data-name="Path 610916" d="M3136.279,1651.23a.885.885,0,0,0,.129.063l-.008.021a.906.906,0,0,1-.132-.065.831.831,0,0,1-.077-.051l.014-.018a.84.84,0,0,0,.075.05" transform="translate(-2957.064 -1556.871)" fill="#c36252"/>
        <path id="Path_610917" data-name="Path 610917" d="M3115.176,1625.117a.593.593,0,0,0,.22.1l0,.022a.612.612,0,0,1-.347-.215l.018-.014a.578.578,0,0,0,.114.108" transform="translate(-2937.125 -1532.195)" fill="#c36252"/>
        <path id="Path_610918" data-name="Path 610918" d="M3116.46,1624.654a.913.913,0,0,0,.16.087l-.009.021a.932.932,0,0,1-.164-.089.913.913,0,0,1-.078-.06l.015-.017a.826.826,0,0,0,.075.058" transform="translate(-2938.375 -1531.806)" fill="#c36252"/>
        <path id="Path_610919" data-name="Path 610919" d="M3116.4,1623.341a.661.661,0,0,1,.115.071.693.693,0,0,1,.077.069l-.017.016a.653.653,0,0,0-.186-.135.645.645,0,0,0-.109-.042l.006-.022a.68.68,0,0,1,.113.043" transform="translate(-2938.29 -1530.582)" fill="#c36252"/>
        <path id="Path_610920" data-name="Path 610920" d="M3128.524,1633.7a.417.417,0,0,0,.179.067.387.387,0,0,0,.067,0v.023a.42.42,0,0,1-.071,0,.438.438,0,0,1-.188-.071.421.421,0,0,1-.1-.088l.018-.014a.417.417,0,0,0,.09.083" transform="translate(-2949.733 -1540.308)" fill="#c36252"/>
        <path id="Path_610921" data-name="Path 610921" d="M3129.263,1632.714a.469.469,0,0,0,.218.062v.023a.489.489,0,0,1-.229-.065.479.479,0,0,1-.093-.071l.016-.016a.448.448,0,0,0,.088.068" transform="translate(-2950.434 -1539.397)" fill="#c36252"/>
        <path id="Path_610922" data-name="Path 610922" d="M3129.843,1631.575a.746.746,0,0,1,.177.092l-.013.019a.71.71,0,0,0-.172-.089.722.722,0,0,0-.136-.034l0-.023a.746.746,0,0,1,.141.035" transform="translate(-2950.943 -1538.353)" fill="#c36252"/>
        <path id="Path_610923" data-name="Path 610923" d="M3141.979,1636.936a.4.4,0,0,0,.258.037l0,.022a.42.42,0,0,1-.272-.039.387.387,0,0,1-.1-.075l.017-.016a.376.376,0,0,0,.092.071" transform="translate(-2962.42 -1543.374)" fill="#c36252"/>
        <path id="Path_610924" data-name="Path 610924" d="M3142.55,1635.952a2.178,2.178,0,0,0,.229.054l0,.023a2.277,2.277,0,0,1-.231-.055q-.075-.022-.149-.05l.008-.021c.048.018.1.035.148.049" transform="translate(-2962.913 -1542.467)" fill="#c36252"/>
        <path id="Path_610925" data-name="Path 610925" d="M3143.256,1634.755a.436.436,0,0,1,.245.092h0l-.014.018a.407.407,0,0,0-.233-.088.4.4,0,0,0-.105.01l-.005-.022a.41.41,0,0,1,.112-.01" transform="translate(-2963.621 -1541.384)" fill="#c36252"/>
        <path id="Path_610926" data-name="Path 610926" d="M3119.689,1592.107a.726.726,0,0,0,.137.07l-.008.021a.768.768,0,0,1-.141-.072.754.754,0,0,1-.1-.074l.015-.017a.72.72,0,0,0,.094.072" transform="translate(-2941.402 -1501.105)" fill="#c36252"/>
        <path id="Path_610927" data-name="Path 610927" d="M3121.094,1590.064c.033.035.066.072.1.11l-.018.014c-.03-.037-.062-.074-.095-.108s-.043-.043-.065-.064l.016-.017c.022.021.044.043.066.065" transform="translate(-2942.753 -1499.185)" fill="#c36252"/>
        <path id="Path_610928" data-name="Path 610928" d="M3121.846,1588.06c-.015-.02-.031-.039-.048-.058l.017-.015c.017.019.033.039.049.059a1.09,1.09,0,0,1,.093.143l-.02.011a1.049,1.049,0,0,0-.091-.141" transform="translate(-2943.493 -1497.288)" fill="#c36252"/>
        <path id="Path_610929" data-name="Path 610929" d="M3160.079,1636.909a.388.388,0,0,0,.187.011l0,.022a.411.411,0,0,1-.2-.011.4.4,0,0,1-.107-.053l.013-.019a.378.378,0,0,0,.1.05" transform="translate(-2979.481 -1543.368)" fill="#c36252"/>
        <path id="Path_610930" data-name="Path 610930" d="M3161.272,1635.889a1.611,1.611,0,0,1,.161.015l0,.023c-.052-.008-.106-.013-.159-.015-.038,0-.076,0-.113,0v-.023c.038,0,.077,0,.115,0" transform="translate(-2980.605 -1542.452)" fill="#c36252"/>
        <path id="Path_610931" data-name="Path 610931" d="M3137.379,1619.985c.165-.307.286-.556.316-.619.3-.612.244-.45.347-.688a1.639,1.639,0,0,1,.282-.472c.037-.041.172-.2.221-.167.026.015.015.073-.051.384-.056.265-.07.326-.092.41a1.311,1.311,0,0,1-.122.365,2.755,2.755,0,0,1-.19.22,1.487,1.487,0,0,0-.191.277.637.637,0,0,0-.057.234.176.176,0,0,1-.013-.026.227.227,0,0,1,0-.138.782.782,0,0,1,.173-.319l.19-.249c.092-.143.068-.192.185-.6.065-.227.119-.369.087-.385-.009,0-.024,0-.064.037a.841.841,0,0,0-.189.228c-.071.141-.158.273-.225.416-.01.022-.128.247-.362.7-.431.828-.117.2-.219.4a1.038,1.038,0,0,1-.221.326.7.7,0,0,1-.117.094,1.533,1.533,0,0,0,.179-.207,1.838,1.838,0,0,0,.133-.221" transform="translate(-2957.89 -1525.62)" fill="#db7c5e"/>
        <path id="Path_610932" data-name="Path 610932" d="M3123.771,1618.329c.023-.053,0,0,.247-.492.361-.72.325-.665.414-.831.04-.074.41-.757.472-.729s-.116.483-.139.546c-.052.147-.066.161-.2.481-.083.2-.086.221-.186.467a4.6,4.6,0,0,1-.205.474,1.492,1.492,0,0,1-.221.285.414.414,0,0,1,.081-.174c.1-.147.153-.317.238-.47.039-.069.12-.279.281-.7a3.2,3.2,0,0,0,.24-.669,1.536,1.536,0,0,0-.219.334c-.119.206-.186.343-.286.542-.309.613-.281.5-.346.667-.079.2-.2.38-.289.574a.26.26,0,0,1-.128.139.185.185,0,0,1-.034.01,1.341,1.341,0,0,0,.121-.154,1.8,1.8,0,0,0,.155-.3" transform="translate(-2945.094 -1523.962)" fill="#db7c5e"/>
        <path id="Path_610933" data-name="Path 610933" d="M3113.412,1610.434a5.511,5.511,0,0,0-.651,1.15c-.055.145-.094.285-.206.531-.075.165-.135.271-.244.3a.238.238,0,0,1-.05.008.84.84,0,0,0,.184-.2,1.07,1.07,0,0,0,.108-.226c.116-.286.13-.358.2-.522.041-.1.093-.2.2-.4a4.322,4.322,0,0,1,.24-.426c.044-.065.023-.028.214-.288.133-.18.16-.222.178-.215.042.016,0,.258-.062.447a3.243,3.243,0,0,1-.19.435c-.161.334-.168.323-.243.5-.085.2-.163.406-.186.467-.037.1-.07.194-.131.33-.053.118-.081.163-.1.2a.606.606,0,0,0-.03.362.325.325,0,0,1-.048-.182,1.311,1.311,0,0,1,.147-.454c.13-.274.068-.221.264-.673.045-.1.1-.24.192-.419.053-.108.12-.265.256-.578.036-.084.079-.185.055-.2s-.074.031-.1.049" transform="translate(-2934.501 -1518.186)" fill="#db7c5e"/>
        <path id="Path_610934" data-name="Path 610934" d="M3108.71,1591.467c.1-.32.073-.271.136-.44.021-.056.071-.185.251-.553.156-.318.182-.35.287-.574a2.028,2.028,0,0,0,.209-.547c-.014-.007-.057.082-.172.174a2.235,2.235,0,0,1-.228.176c.454-.7.589-.859.611-.846a3.44,3.44,0,0,1-.128.418c-.051.176-.05.209-.091.332a2.78,2.78,0,0,1-.167.379c-.174.349-.234.437-.345.663-.123.25-.192.432-.208.472-.026.068-.092.241-.16.471-.039.132-.059.2-.078.3a2.169,2.169,0,0,0-.038.343.511.511,0,0,1-.016-.195,2.048,2.048,0,0,1,.136-.57" transform="translate(-2931.023 -1498.106)" fill="#db7c5e"/>
        <path id="Path_610935" data-name="Path 610935" d="M3108.626,1642.995a.092.092,0,0,1,.055-.044c.031-.006.058.014.126.068a1.4,1.4,0,0,1,.114.094.144.144,0,0,1-.087.227.224.224,0,0,1-.2-.038.235.235,0,0,1-.061-.187.368.368,0,0,1,.053-.121" transform="translate(-2931.024 -1549.111)" fill="#ffd5ca"/>
        <path id="Path_610936" data-name="Path 610936" d="M3118.1,1653.4c.035-.073.068-.142.126-.152a.166.166,0,0,1,.078.02c.1.037.174.065.184.119a.294.294,0,0,1-.021.091c-.009.027-.013.04-.028.08-.038.106-.036.109-.045.118-.05.046-.153.006-.175,0s-.146-.056-.157-.154a.233.233,0,0,1,.038-.119" transform="translate(-2939.969 -1558.822)" fill="#ffd5ca"/>
        <path id="Path_610937" data-name="Path 610937" d="M3131.521,1653.615a.389.389,0,0,1,.093-.134.116.116,0,0,1,.049-.029.131.131,0,0,1,.081.012.308.308,0,0,1,.125.081.119.119,0,0,1,.032.046c.008.028,0,.052-.025.1a.4.4,0,0,1-.081.139.174.174,0,0,1-.123.02c-.091-.013-.185-.089-.183-.164a.294.294,0,0,1,.032-.076" transform="translate(-2952.631 -1559.011)" fill="#ffd5ca"/>
        <path id="Path_610938" data-name="Path 610938" d="M3175.2,1372.472c-1.154.071-5.439,8.584-6.187,10.1a6.57,6.57,0,0,1,1.742,1.587c1.957-1.357,2.942-3.092,4.35-4.934s2.386-3.153,2.69-4.323c.174-.668-1.9-2.468-2.6-2.425" transform="translate(-2988.008 -1294.081)" fill="#99cfff"/>
        <path id="Path_610939" data-name="Path 610939" d="M3145.178,1104.25a4.317,4.317,0,0,1-.987,1c-1.2.861-2.137.613-2.293,1.365-.049.233.245.485.223,1.036a2.716,2.716,0,0,0,.625-.148,4.488,4.488,0,0,0,2.432-3.252" transform="translate(-2962.441 -1041.18)" fill="#c36252"/>
        <path id="Path_610940" data-name="Path 610940" d="M3105.021,990.318a20.528,20.528,0,0,1,.067,2.306c-.035.134-.35,1.042.772,3.051.128.229.049.387.18.686a1.371,1.371,0,0,0,.309.5,1.559,1.559,0,0,0,1.159.284,2.656,2.656,0,0,0,1.313-.591,9.245,9.245,0,0,0,3.116-3.9,3.831,3.831,0,0,0,.206-2.838,3.541,3.541,0,0,0-2.343-2.034,3.624,3.624,0,0,0-2.987.5,8.343,8.343,0,0,0-1.056,1.064c-.071.17-.583.735-.736.982" transform="translate(-2927.658 -931.246)" fill="#eb8e6c"/>
        <path id="Path_610941" data-name="Path 610941" d="M3104.453,979.018a2.14,2.14,0,0,0-1.605.848,4.428,4.428,0,0,0-.4,1.954,3.835,3.835,0,0,1-.124-2.5,3.574,3.574,0,0,1,1.63-1.637,3.907,3.907,0,0,1,2.266-.686c1.007.03,2.087.485,2.057.758-.052.457-2.987,1.177-3.824,1.264" transform="translate(-2924.978 -921.192)" fill="#0e1647"/>
        <path id="Path_610942" data-name="Path 610942" d="M3132.123,979.764a5.3,5.3,0,0,1,1.507-.569,2.663,2.663,0,0,1,3.182,1.239,2.925,2.925,0,0,1,.368,1.072,7,7,0,0,0,.23,1.244c.156.422.57.886.708,1.268a12.037,12.037,0,0,1,.1,1.541c.077.617.476.678.6,1.206.234.971-.118,1.56.05,1.775,1.173,1.508.013,2.281-1.628,1.7-.713-.251-1.759.978-2.168.668-.358-.272.177-1.2-.159-2.016-.231-.562-.572-.65-.653-.967-.207-.809.375-1.192.171-1.849-.173-.561-.268-.434-.5-1.088s0-.941-.3-1.306c-.272-.335-.53-.172-.938-.5-.517-.419-.307-.847-.77-1.44-.569-.729-1.332-.654-1.34-1,0-.246.51-.491,1.541-.971" transform="translate(-2951.776 -923.164)" fill="#0e1647"/>
        <path id="Path_610943" data-name="Path 610943" d="M3183.413,1064.7c-.325-.092-.638.313-.654.335-.461.614-.231,1.843.151,1.954.344.1.979-.653.956-1.4-.01-.311-.14-.805-.453-.894" transform="translate(-3000.731 -1003.871)" fill="#eb8e6c"/>
        <path id="Path_610944" data-name="Path 610944" d="M3191.334,1093.867a.254.254,0,0,0-.023.025l.023-.025" transform="translate(-3009.036 -1031.39)" fill="#c36252"/>
        <path id="Path_610945" data-name="Path 610945" d="M3186.7,1076.969a.41.41,0,0,0-.259.277.085.085,0,0,0,.061.112.076.076,0,0,0,.082-.057.251.251,0,0,1,.156-.171.226.226,0,0,1,.244.1.451.451,0,0,1-.029.37,1.012,1.012,0,0,1-.176.272c.039-.043.069-.076,0,0l-.031.034-.03.033c-.138.152-.018.166-.007.166.1,0,.211-.136.269-.223a.782.782,0,0,0,.133-.746.371.371,0,0,0-.411-.175" transform="translate(-3004.441 -1015.444)" fill="#c36252"/>
        <path id="Path_610946" data-name="Path 610946" d="M3191.713,1093.12l.031-.034,0,0-.041.045.007-.008" transform="translate(-3009.409 -1030.651)" fill="#c36252"/>
        <path id="Path_610947" data-name="Path 610947" d="M3184.562,1064.859a.49.49,0,0,0-.379-.035.745.745,0,0,0-.435.354.088.088,0,0,0,.028.12.071.071,0,0,0,.1-.027.591.591,0,0,1,.344-.284.356.356,0,0,1,.275.021.464.464,0,0,1,.18.252,1.241,1.241,0,0,1,.045.7c-.1.484-.389.873-.542.9-.047.008-.062.049-.081.1-.05.13-.115.251-.247.251h0c-.066,0-.093-.017-.106-.122a.079.079,0,0,0-.08-.073h0a.082.082,0,0,0-.07.1c.016.122.064.267.256.267h0c.25,0,.349-.256.385-.353l0-.007a1.644,1.644,0,0,0,.574-1.824.618.618,0,0,0-.249-.334m-.363,2.167Z" transform="translate(-3001.757 -1003.984)" fill="#c36252"/>
        <path id="Path_610948" data-name="Path 610948" d="M3186.739,1083.169c-.01.025.065.056.121.149.109.18.033.4.063.409s.077-.115.083-.246a.348.348,0,0,0-.067-.261c-.072-.074-.189-.079-.2-.051" transform="translate(-3004.724 -1021.288)" fill="#c36252"/>
        <path id="Path_610949" data-name="Path 610949" d="M3143.273,1058.713a3.286,3.286,0,0,0-1.2,0,.108.108,0,0,0,.038.213,3.064,3.064,0,0,1,1.121,0,.108.108,0,0,0,.038-.213" transform="translate(-2962.53 -998.191)" fill="#49302a"/>
        <path id="Path_610950" data-name="Path 610950" d="M3110.508,1058.713a1.014,1.014,0,0,1,.4-.052,1.041,1.041,0,0,1,.254.052c.033.011.055.07.047.13s-.037.094-.068.083a.978.978,0,0,0-.238-.049.95.95,0,0,0-.378.049c-.031.01-.061-.026-.068-.083s.014-.119.047-.13" transform="translate(-2932.802 -998.191)" fill="#49302a"/>
        <path id="Path_610951" data-name="Path 610951" d="M3125.178,1073.48a.069.069,0,0,0-.081-.049c-.3.058-.511.033-.588-.07-.064-.084-.036-.213.019-.468.02-.092.042-.2.065-.319a7.168,7.168,0,0,0,.1-.78.066.066,0,0,0-.066-.069.07.07,0,0,0-.073.062,7.041,7.041,0,0,1-.1.767c-.022.122-.045.225-.064.316-.061.283-.095.438,0,.568a.589.589,0,0,0,.561.147q.079-.008.167-.025a.068.068,0,0,0,.057-.079Z" transform="translate(-2945.884 -1010.512)" fill="#c36252"/>
        <path id="Path_610952" data-name="Path 610952" d="M3147.035,1068.145c-.109,0-.2.138-.2.308s.088.308.2.308.2-.138.2-.308-.089-.308-.2-.308" transform="translate(-2967.102 -1007.137)" fill="#49302a"/>
        <path id="Path_610953" data-name="Path 610953" d="M3114.083,1068.145c-.109,0-.2.138-.2.308s.089.308.2.308.2-.138.2-.308-.088-.308-.2-.308" transform="translate(-2936.032 -1007.137)" fill="#49302a"/>
        <path id="Path_610954" data-name="Path 610954" d="M3122.913,1115.014l-.341.046a2.907,2.907,0,0,1-.79,0l-.182-.025a.1.1,0,0,0-.1.142.767.767,0,0,0,.678.457,1.062,1.062,0,0,0,.837-.479.1.1,0,0,0-.1-.14" transform="translate(-2943.2 -1051.328)" fill="#fff"/>
        <path id="Path_610955" data-name="Path 610955" d="M3150.839,1081.59c-.285.036-.5.21-.475.389s.272.293.557.257.5-.21.475-.389-.272-.293-.557-.257" transform="translate(-2970.426 -1019.808)" fill="#dd8064"/>
        <path id="Path_610956" data-name="Path 610956" d="M3198.971,1209.915a13.584,13.584,0,0,0,.752,2.6,26.849,26.849,0,0,1,.641,5.371,8.157,8.157,0,0,1-.294,3.289,9.421,9.421,0,0,1-.882,1.768,22.628,22.628,0,0,1-1.831,2.687c-.628.783-2.025,2.464-4.007,4.8a1.964,1.964,0,0,1,.352.459c1.957-1.357,2.943-3.091,4.35-4.934a17.036,17.036,0,0,0,2.6-4.02l.016-.017c.415-.474,1.976-11.14-1.694-12" transform="translate(-3010.959 -1140.81)" fill="#92c6ff"/>
        <path id="Path_610957" data-name="Path 610957" d="M2939.294,1202.622h0a.112.112,0,0,1-.067-.139,2.271,2.271,0,0,0,.062-1.268.112.112,0,0,1,.078-.134h0a.113.113,0,0,1,.142.083,2.459,2.459,0,0,1,.062.407,2.506,2.506,0,0,1-.129.981.113.113,0,0,1-.148.07" transform="translate(-2771.345 -1132.475)" fill="#78b7ef"/>
        <path id="Path_610958" data-name="Path 610958" d="M3256.1,1391.88h0a.112.112,0,0,1-.146.052,2.3,2.3,0,0,0-.879-.211,2.257,2.257,0,0,0-.375.018.113.113,0,0,1-.125-.092h0a.115.115,0,0,1,.1-.133,2.477,2.477,0,0,1,.412-.019,2.517,2.517,0,0,1,.962.23.114.114,0,0,1,.054.155" transform="translate(-3068.687 -1312.016)" fill="#78b7ef"/>
        <path id="Path_610959" data-name="Path 610959" d="M2711.69,1010.912a8.74,8.74,0,0,0-1.017-1.287c-.246-.259-1.164-1.113-1.324-1.278-.068-.071-.21-.213-.351-.18a.223.223,0,0,0-.153.135c-.052.138.073.3.18.432.23.289.345.433.612.729.056.062.223.305.558.792,0,0,.252.365.564.867.209.337.465.5.57.492.213-.013.437-.4.36-.7" transform="translate(-2554.116 -950.579)" fill="#eb8e6c"/>
        <path id="Path_610960" data-name="Path 610960" d="M1264.92,1067.023c-1.15-.875-4.386,1.533-4.962,3.4-.361,1.173.872,3.278,3.111,6.3,3.931,5.307,4.162,3.18,5.188,3.612.622.262.885-.493,2.363-.8,1.83-.374-4.05-11.266-5.7-12.522" transform="translate(-1187.936 -1005.905)" fill="#f7b000"/>
        <path id="Path_610961" data-name="Path 610961" d="M1284.106,2116.09c-.235-.072-.388.436-.969.675a1.934,1.934,0,0,1-.969.078c-.914-.074-1.38-.192-2.015-.285a17.737,17.737,0,0,0-2.423-.156c-.874-.015-.743.033-1.224,0-.684-.047-1.276-.419-1.358-.228a2.755,2.755,0,0,0,.058.565c.036.265,0,.335.051.415.087.127.3.113.485.1.4-.019.8.018,1.2,0,.294-.013.527-.009.995,0,.59.011.785.051,1.709.13,1.464.125,1.2.043,1.887.13a6.212,6.212,0,0,0,1.556.078,1.993,1.993,0,0,0,.842-.286.842.842,0,0,0,.357-.337c.162-.329.034-.818-.178-.882" transform="translate(-1202.311 -1995.221)" fill="#145ac1"/>
        <path id="Path_610962" data-name="Path 610962" d="M974.065,2103c-.317-.093-.5.2-1.038.364a2.937,2.937,0,0,1-.986.078,13.845,13.845,0,0,1-2.153-.337c-.97-.155-1.118-.11-1.4-.312-.585-.417-.582-1.057-.8-1.037-.277.024-.208,1.634-.208,1.634a3.377,3.377,0,0,0,.467.389,3.445,3.445,0,0,0,1.038.441,15.769,15.769,0,0,0,1.971.389,13.955,13.955,0,0,0,2.387,0,1.664,1.664,0,0,0,.882-.311.8.8,0,0,0,.311-.415.711.711,0,0,0,0-.363.749.749,0,0,0-.467-.519" transform="translate(-912.21 -1981.715)" fill="#145ac1"/>
        <path id="Path_610963" data-name="Path 610963" d="M1276.425,1999.019a3.521,3.521,0,0,1-.7-1.323c-.623-1.681.169-2.658-.389-3.191-.625-.6-2.456-.172-2.957.817-.332.654.195,1.011.233,2.49a17.386,17.386,0,0,1-.156,2.918s.507-.049,1.518-.117c1.486-.1,2.122.407,2.84-.078.1-.068.426-.287.428-.584,0-.337-.415-.5-.817-.934" transform="translate(-1199.602 -1880.329)" fill="#eb8e6c"/>
        <path id="Path_610964" data-name="Path 610964" d="M976.927,2001.579a2.032,2.032,0,0,0-2.724-.389c-.365.392.155,1.159,0,2.552a6.374,6.374,0,0,1-.467,2,5.715,5.715,0,0,0,1.4.973c.892.356,2.371.646,2.685.117.1-.164.229-.4-.389-1.44-1.09-1.829-.207-3.269-.506-3.813" transform="translate(-918.12 -1886.547)" fill="#eb8e6c"/>
        <path id="Path_610965" data-name="Path 610965" d="M1184.659,935.745a23.432,23.432,0,0,0-.2-2.417c-.417-1.683-2.835-2.543-3.549-1.953-.43.355.305,2.237-.08,3.751-.472,1.853-1.7,1.245-2.113,1.5-.58.359.789,1.119,1.484,1.573.978.639,2.975,3.028,3.941,2.582,1.661-.769,1.83-2.373,1.566-2.645a4.387,4.387,0,0,1-1.049-2.393" transform="translate(-1111.262 -878.005)" fill="#eb8e6c"/>
        <path id="Path_610966" data-name="Path 610966" d="M1220.991,976.443a5.224,5.224,0,0,1-1.249-1.411,3.591,3.591,0,0,0,.011.361,3.915,3.915,0,0,0,4,2.715,2.644,2.644,0,0,1-.29-1.025,4.721,4.721,0,0,1-2.476-.64" transform="translate(-1150.07 -919.342)" fill="#c36252"/>
        <path id="Path_610967" data-name="Path 610967" d="M1216.923,866.081a2.965,2.965,0,0,0-2.391-.237,3.813,3.813,0,0,0-2.114,1.88,4.89,4.89,0,0,0-.515,3.357c.239,1.228,2.11,3.849,3.907,3.207a2.408,2.408,0,0,0,1.335-1.161,7.5,7.5,0,0,0,.6-2.239,7.963,7.963,0,0,0,.332-1.958,3.057,3.057,0,0,0-1.157-2.849" transform="translate(-1142.591 -816.249)" fill="#eb8e6c"/>
        <path id="Path_610968" data-name="Path 610968" d="M1255.62,932.806a4.44,4.44,0,0,0-1.6-.271.146.146,0,1,0,0,.293,4.145,4.145,0,0,1,1.5.254.146.146,0,0,0,.1-.276" transform="translate(-1182.26 -879.272)" fill="#49302a"/>
        <path id="Path_610969" data-name="Path 610969" d="M1280.6,945.7a.068.068,0,0,0-.08.057,7,7,0,0,0-.028.8c0,.127.008.235.013.33.014.264.021.4-.059.47-.1.09-.317.078-.62-.033a.072.072,0,0,0-.091.035h0a.069.069,0,0,0,.045.089q.088.032.168.054a.63.63,0,0,0,.6-.049c.123-.113.114-.274.1-.567,0-.094-.01-.2-.013-.326a6.931,6.931,0,0,1,.028-.783.072.072,0,0,0-.065-.075" transform="translate(-1206.641 -891.686)" fill="#c36252"/>
        <path id="Path_610970" data-name="Path 610970" d="M1268.295,941.294c-.113-.019-.228.108-.258.284s.037.334.15.353.228-.108.258-.284-.037-.334-.15-.353" transform="translate(-1195.605 -887.53)" fill="#49302a"/>
        <path id="Path_610971" data-name="Path 610971" d="M1301.164,947.07c-.113-.019-.229.108-.258.284s.037.334.15.353.228-.108.258-.284-.037-.334-.15-.353" transform="translate(-1226.597 -892.975)" fill="#49302a"/>
        <path id="Path_610972" data-name="Path 610972" d="M1298.893,940.194a3.445,3.445,0,0,0-.551-.083,3.25,3.25,0,0,0-.419,0,.149.149,0,0,0-.123.158.122.122,0,0,0,.119.133,3.043,3.043,0,0,1,.394,0,3.257,3.257,0,0,1,.522.079.131.131,0,0,0,.145-.112.14.14,0,0,0-.087-.175" transform="translate(-1223.675 -886.408)" fill="#49302a"/>
        <path id="Path_610973" data-name="Path 610973" d="M1271.721,985.8l-.186-.014a4.465,4.465,0,0,1-.8-.135l-.338-.089c-.077-.02-.144.023-.118.076a1.263,1.263,0,0,0,.789.464.842.842,0,0,0,.734-.189c.044-.041-.006-.106-.086-.112" transform="translate(-1197.725 -929.261)" fill="#c36252"/>
        <path id="Path_610974" data-name="Path 610974" d="M1245.294,952.957c-.288-.088-.566-.012-.621.168s.134.4.422.484.566.012.621-.168-.135-.4-.422-.484" transform="translate(-1173.574 -898.493)" fill="#dd8064"/>
        <path id="Path_610975" data-name="Path 610975" d="M1194.624,847.129a3.828,3.828,0,0,0-4.982.344s-2.119.758-1.445,3.818c0,0,.972,2.384,1.683,2.427.22.013-.8-2.451-.354-2.729a1.052,1.052,0,0,1,1,.3c.317.436.065.845.146.893.44.258.506-.141.484-1.363-.014-.763-.3-1.08-.088-1.308.252-.268,1.923.452,2.435.577,1.117.272,2.231.409,2.583-.646.155-.467.17-1.249-1.466-2.313" transform="translate(-1120.208 -798.028)" fill="#1c2546"/>
        <path id="Path_610976" data-name="Path 610976" d="M1208,925.073c-.314.034-.519.486-.578.781-.142.707.343,1.531.688,1.491.384-.045.8-1.183.462-1.846-.012-.023-.245-.462-.571-.427" transform="translate(-1138.433 -872.235)" fill="#eb8e6c"/>
        <path id="Path_610977" data-name="Path 610977" d="M1219.71,953.9l.018.027a.252.252,0,0,0-.018-.027" transform="translate(-1150.045 -899.416)" fill="#c36252"/>
        <path id="Path_610978" data-name="Path 610978" d="M1214.551,937.519a.359.359,0,0,0-.421.1.757.757,0,0,0,.006.735c.041.093.122.24.221.257.011,0,.128.007.021-.16l-.023-.036-.024-.038c-.055-.086-.032-.05,0,0a.974.974,0,0,1-.124-.289.437.437,0,0,1,.032-.359.219.219,0,0,1,.25-.06.244.244,0,0,1,.121.189.073.073,0,0,0,.069.068.083.083,0,0,0,.077-.1.4.4,0,0,0-.2-.307" transform="translate(-1144.695 -883.942)" fill="#c36252"/>
        <path id="Path_610979" data-name="Path 610979" d="M1219.179,953.074l.006.008-.032-.049,0,0,.025.038" transform="translate(-1149.52 -898.6)" fill="#c36252"/>
        <path id="Path_610980" data-name="Path 610980" d="M1208.28,925.216a.477.477,0,0,0-.368-.028.6.6,0,0,0-.292.279,1.385,1.385,0,0,0-.183.762,1.4,1.4,0,0,0,.436,1.077v.007c.02.1.073.359.312.4h0c.184.031.254-.1.289-.214a.08.08,0,0,0-.051-.1h0a.076.076,0,0,0-.088.057c-.03.1-.059.111-.122.1h0c-.126-.022-.169-.147-.2-.28-.01-.049-.018-.091-.062-.106a1.22,1.22,0,0,1-.372-.947,1.206,1.206,0,0,1,.158-.665.45.45,0,0,1,.213-.212.347.347,0,0,1,.267.025.576.576,0,0,1,.283.328.068.068,0,0,0,.089.042.086.086,0,0,0,.046-.11.723.723,0,0,0-.359-.41m-.373,2.1h0Z" transform="translate(-1138.472 -872.32)" fill="#c36252"/>
        <path id="Path_610981" data-name="Path 610981" d="M1220.8,944.322a.338.338,0,0,0-.107.238c-.015.127.018.251.04.25s-.006-.228.126-.381c.069-.08.146-.1.141-.123s-.12-.043-.2.016" transform="translate(-1150.972 -890.347)" fill="#c36252"/>
        <path id="Path_610982" data-name="Path 610982" d="M1298.579,1050.665h0c.007.007.007,0,0,0" transform="translate(-1224.407 -990.654)" fill="#97bfff"/>
        <path id="Path_610983" data-name="Path 610983" d="M1021.164,1024.29c-.288-.167-2.417-.971-2.812-1.108.005,0,0,.006,0,0h0c-.019-.014-.121-.052-.275.286a1.917,1.917,0,0,1-1.261.986c-1.14.259-2.391-.8-2.977-1.764-.4-.658-.692-1.184-.826-1.173a11.6,11.6,0,0,0-6.491,2.211,6.642,6.642,0,0,0-1.867,3.269c-.411,1.184-.918,5.7-2.019,11.829-1.018,5.673-1.261,8.976-1.261,8.976a4.735,4.735,0,0,0,2.22.208c4.855-.372,5.459-1.23,7.922-1.141a21.984,21.984,0,0,1,5.869,1.167s.017-7.349,1.2-11.907a17.88,17.88,0,0,1,2.069-5.188c.643-1.049.792-6.488.514-6.649" transform="translate(-944.18 -963.171)" fill="#78aeef"/>
        <path id="Path_610984" data-name="Path 610984" d="M1128.119,1399.64c-1.989-7.884-1.6-10.539-3.191-11.051-2.286-.737-6.841,3.547-7.238,8.094-.32,3.672,2.111,7.055,2.8,8.016,1.4,1.948,3.049,4.164,3.764,5.121a1.744,1.744,0,0,1,.347,1.09c-.019.733-.06,2.1-.142,3.983-.142,3.26,1.381,10.293,2.379,12.1.517.935,3.079.361,3.108-.422.181-4.964.761-15.31.875-17.323a1.709,1.709,0,0,0-.093-.661c-.337-.967-1.391-4.105-2.611-8.943" transform="translate(-1053.826 -1309.2)" fill="#2677ed"/>
        <path id="Path_610985" data-name="Path 610985" d="M1281.859,2080.389c-.213-.185-.4-.195-1.089-.312a9.216,9.216,0,0,1-1.038-.207,5.847,5.847,0,0,1-.908-.363c-.219-.113-.279-.164-.571-.312-.094-.048-.367-.186-.623-.285a2.952,2.952,0,0,0-1.479-.26,2.781,2.781,0,0,0-.882.311c-.583.276-.746.5-1.167.519a1.113,1.113,0,0,1-.6-.13c-.428-.242-.233-.741-.333-.718-.081.018-.354.363-.29,1.081a4.787,4.787,0,0,0,.207,1.4c.369.533,1.218.214,3.009.259a32.773,32.773,0,0,1,3.554.312,3.088,3.088,0,0,0,2.075-.233c.118-.078.4-.264.415-.545a.709.709,0,0,0-.286-.519" transform="translate(-1200.172 -1959.91)" fill="#141f47"/>
        <path id="Path_610986" data-name="Path 610986" d="M1326.22,2061.157a1.4,1.4,0,0,0-.528-.581.641.641,0,0,0-.64.192.654.654,0,0,0-.156.389c-.038.188-.113.561.052.7.15.126.429,0,.6-.052,1.066-.327,2.393.925,2.438.856s-1.228-.62-1.764-1.5" transform="translate(-1249.176 -1942.857)" fill="#141f47"/>
        <path id="Path_610987" data-name="Path 610987" d="M1126.156,1503.022a3.425,3.425,0,0,0-.646-2.247c-1.832-2.525-5.921-6.431-4.369-14.979-.4.9-3.365,1.646-3.45,2.62-.32,3.672,2.111,7.055,2.8,8.016,1.4,1.948,3.049,4.164,3.764,5.121a1.744,1.744,0,0,1,.347,1.09c-.019.733-.06,2.1-.142,3.983-.142,3.26,1.381,10.293,2.379,12.1a1.156,1.156,0,0,0,.971.476,40.732,40.732,0,0,1-1.555-7.072,51.274,51.274,0,0,1-.1-9.1" transform="translate(-1053.826 -1400.933)" fill="#1e6ee2"/>
        <path id="Path_610988" data-name="Path 610988" d="M977.25,1350.224c-1.12,1.769-1.271,4.378-1.4,6.615-.039.682-.026,1.415,0,2.88.09,4.995.393,6,.156,8.249a33.865,33.865,0,0,1-1.012,4.436,41.4,41.4,0,0,0-.428,14.536c.485,1.181,2.558.893,2.672.232a88.474,88.474,0,0,1,2.971-13.368c.109-.363.617-1.72,1.634-4.436,2.184-5.831,2.224-5.6,3.191-8.327,2.355-6.646,1.23-5.517,3.035-10.117.7-1.782,1.05-2.415.7-3.035-1.182-2.1-9.009-1.626-11.518,2.335" transform="translate(-918.483 -1269.745)" fill="#2677ed"/>
        <path id="Path_610989" data-name="Path 610989" d="M975.177,2074.7a6.884,6.884,0,0,1-2-1.569c-.133-.222-.705-1.221-.767-1.255a.938.938,0,0,0-1.01.061c-.14.147-.136.383-.13.726.006.376.073.463,0,.545-.192.214-.88-.116-.96-.156a2.928,2.928,0,0,1-.674-.467c-.173-.168-.581-.657-.581-.657a6,6,0,0,0-.53,1.823c-.077.7,1.215,1.3,1.215,1.3a10.468,10.468,0,0,0,2.075.441,6.135,6.135,0,0,0,2.931.052c.154-.054.62-.217.623-.441a.487.487,0,0,0-.191-.4" transform="translate(-913.202 -1953.433)" fill="#141f47"/>
        <path id="Path_610990" data-name="Path 610990" d="M977.251,1379.937c-1.12,1.769-1.271,4.378-1.4,6.615-.039.682-.026,1.415,0,2.879.09,4.995.393,6,.156,8.249a33.875,33.875,0,0,1-1.012,4.436,41.4,41.4,0,0,0-.428,14.536,1.3,1.3,0,0,0,.946.748c-1.084-7.283-.335-12.225.641-15.489a29.328,29.328,0,0,0,1.248-5.141c.574-4.144-.174-6.08-.073-9.841a32.969,32.969,0,0,1,1.542-8.372c.041-.13.081-.258.122-.385a6.21,6.21,0,0,0-1.741,1.763" transform="translate(-918.483 -1299.458)" fill="#1e6ee2"/>
        <path id="Path_610991" data-name="Path 610991" d="M1009.96,1053.588c.065.759.188,1.6.349,2.475a30.88,30.88,0,0,1-12.2,1.032,11.531,11.531,0,0,1-5-1.278c.626-4.186,1.376-9.195,2.058-13.712.577-3.822,1.105-7.964,1.728-9.694a6.7,6.7,0,0,1,5.67-4.536,1.383,1.383,0,0,1,1.111.129,4.936,4.936,0,0,1,2.341,2.837,8.259,8.259,0,0,1,.523,1.762,46.675,46.675,0,0,1,.578,7.05c.129,2.433.2,3.718.468,3.745.411.042,1.054-2.824,1.57-5.122.7-3.119.964-4.461.964-4.461a9.124,9.124,0,0,1,1.5-4.294s1.881.493,2.03,1.021c.557,1.968-.075,5.7-.49,6.805-.893,2.372-1.784,3.187-2.237,5.254a40.018,40.018,0,0,0-.964,10.988" transform="translate(-936.391 -969.108)" fill="#ffc71f"/>
        <path id="Path_610992" data-name="Path 610992" d="M1145.057,1029.993a3.173,3.173,0,0,0-.926-.335,10.836,10.836,0,0,0-1.674,4.156s-.264,1.342-.964,4.461c-.516,2.3-1.159,5.164-1.57,5.122-.271-.028-.34-1.313-.468-3.745a46.72,46.72,0,0,0-.578-7.05,8.275,8.275,0,0,0-.523-1.763,4.936,4.936,0,0,0-2.341-2.837,1.383,1.383,0,0,0-1.111-.129,8.36,8.36,0,0,0-1.44.336,8.748,8.748,0,0,1,1.009.427,9.353,9.353,0,0,1,3.415,3.387l-1.046.193,2.782,13.311,5.232-12.843-1.157-.771s.063-.722,1.361-1.921" transform="translate(-1068.722 -969.107)" fill="#f7b000"/>
        <path id="Path_610993" data-name="Path 610993" d="M1200.915,1021.55a1.882,1.882,0,0,1-.174.656,1.837,1.837,0,0,1-1.261.986c-1.14.259-2.391-.8-2.977-1.764-.4-.658-.7-1.26-.832-1.25-.2.016-.381.111-.567.132.174.287.411.657.711,1.074a5.7,5.7,0,0,0,1.873,1.983,2.722,2.722,0,0,0,1.845.358,2.415,2.415,0,0,0,1.57-1.1,1.492,1.492,0,0,0,.189-.58.81.81,0,0,0-.375-.494" transform="translate(-1126.843 -961.91)" fill="#fff"/>
        <path id="Path_610994" data-name="Path 610994" d="M1158.3,1025.972c-.271.614-.248.606-.539,1.394a38.129,38.129,0,0,0-1.156,3.718c-1.064,4.066-1.9,8.226-2.01,8.207-.16-.028,1.143-11.728-3.634-15.134a14.534,14.534,0,0,0-1.91.42,19.657,19.657,0,0,1,4.037,3.34l-1.407.138,2.79,12.806,4.613-11.677-1.074-.633a5.714,5.714,0,0,1,1.489-2.115,3.978,3.978,0,0,0-1.2-.463" transform="translate(-1083.423 -965.661)" fill="#ffd731"/>
        <path id="Path_610995" data-name="Path 610995" d="M997.292,1093.838c-.025.228-.147.69-.172.929a8.606,8.606,0,0,1-4.006-1.179c.626-4.187,1.376-9.2,2.058-13.712.215-1.426.424-2.9.633-4.269.963-3.373,1.676-6.475,3.244-7.443a2.428,2.428,0,0,1,2.32.008c1.266.756-.247,4.823-1.652,10.8a116.462,116.462,0,0,0-2.423,14.871" transform="translate(-936.391 -1006.879)" fill="#f7b000"/>
        <path id="Path_610996" data-name="Path 610996" d="M1210.5,1334.4c-.079,0-.28.054-.359.053.187-2.05.55-4.234.844-6.39.239-1.749.674-4.457.969-6.036l.234.044c-.295,1.577-.729,4.28-.967,6.025-.294,2.145-.535,4.263-.721,6.3" transform="translate(-1141.023 -1246.52)" fill="#f7b000"/>
        <rect id="Rectangle_378170" data-name="Rectangle 378170" width="10.342" height="3.941" transform="matrix(0.69, -0.724, 0.724, 0.69, 85.965, 63.914)" fill="#191960"/>
        <rect id="Rectangle_378171" data-name="Rectangle 378171" width="10.342" height="1.971" transform="matrix(0.69, -0.724, 0.724, 0.69, 87.391, 65.274)" fill="#0e0e4c"/>
        <path id="Path_610997" data-name="Path 610997" d="M1129.2,1111.569l20.154-21.135a1.1,1.1,0,0,1,1.549-.037l2.894,2.76a1.1,1.1,0,0,1,.037,1.549l-20.153,21.135a2.855,2.855,0,0,1-4.037.1l-.348-.331a2.855,2.855,0,0,1-.1-4.037" transform="translate(-1063.958 -1027.832)" fill="#3ccff7"/>
        <path id="Path_610998" data-name="Path 610998" d="M1129.2,1111.569l20.154-21.135a1.1,1.1,0,0,1,1.549-.037l2.894,2.76a1.1,1.1,0,0,1,.037,1.549l-20.153,21.135a2.855,2.855,0,0,1-4.037.1l-.348-.331a2.855,2.855,0,0,1-.1-4.037" transform="translate(-1063.958 -1027.832)" fill="#3ccff7"/>
        <path id="Path_610999" data-name="Path 610999" d="M1131.966,1113.914l19.557-20.51a1.089,1.089,0,0,0-.159-1.522l-1.849-1.763a1.225,1.225,0,0,1,1.14.333l2.761,2.633a1.11,1.11,0,0,1,.162,1.552l-20.365,21.357a2.961,2.961,0,0,1-3.884.041,3.165,3.165,0,0,1-1.251-2.359c1.208,1.042,2.939,1.236,3.889.24" transform="translate(-1063.646 -1027.823)" fill="#25b1e8"/>
        <g id="Group_1072978" data-name="Group 1072978" transform="translate(91.378 37.045)" opacity="0.09">
          <g id="Group_1072977" data-name="Group 1072977">
            <g id="Group_1072976" data-name="Group 1072976" clip-path="url(#clip-path-3)">
              <path id="Path_611000" data-name="Path 611000" d="M1603.109,652.229a11.738,11.738,0,1,1-3.24,8.379,11.66,11.66,0,0,1,3.24-8.379" transform="translate(-1599.866 -648.591)" fill="#fff"/>
            </g>
          </g>
        </g>
        <g id="Group_1072981" data-name="Group 1072981" transform="translate(91.378 46.226)" opacity="0.13">
          <g id="Group_1072980" data-name="Group 1072980">
            <g id="Group_1072979" data-name="Group 1072979" clip-path="url(#clip-path-4)">
              <path id="Path_611001" data-name="Path 611001" d="M1600.144,809.34a11.743,11.743,0,0,0,22.93.052,11.866,11.866,0,0,1,.264,2.225,11.738,11.738,0,0,1-23.469.558,11.818,11.818,0,0,1,.274-2.835" transform="translate(-1599.866 -809.34)" fill="#5b575a"/>
            </g>
          </g>
        </g>
        <path id="Path_611002" data-name="Path 611002" d="M1564.075,632.635a14.03,14.03,0,1,0-.472-19.836,14.03,14.03,0,0,0,.472,19.836m-2.052-9.875a11.738,11.738,0,1,1,3.634,8.216,11.661,11.661,0,0,1-3.634-8.216" transform="translate(-1470.641 -573.699)" fill="#0e1647"/>
        <path id="Path_611003" data-name="Path 611003" d="M1587.5,648.957a12.444,12.444,0,1,0,3.435-8.884,12.363,12.363,0,0,0-3.435,8.884m.707-.017a11.738,11.738,0,1,1,3.634,8.216,11.66,11.66,0,0,1-3.634-8.216" transform="translate(-1496.821 -599.879)" fill="#060e35"/>
        <g id="Group_1072984" data-name="Group 1072984" transform="translate(94.722 39.288)" opacity="0.63">
          <g id="Group_1072983" data-name="Group 1072983">
            <g id="Group_1072982" data-name="Group 1072982" clip-path="url(#clip-path-5)">
              <path id="Path_611004" data-name="Path 611004" d="M1660.982,689.955a9.178,9.178,0,0,1,4.428-1.986c3.26-.5,6.454.836,6.39,1.4-.06.534-2.932-.139-6.977,1.2-3.928,1.3-5.942,3.508-6.349,3.07-.358-.385.93-2.382,2.507-3.692" transform="translate(-1658.415 -687.859)" fill="#fff"/>
            </g>
          </g>
        </g>
        <path id="Path_611005" data-name="Path 611005" d="M1450.008,1135.4l1.248-1.309a.552.552,0,0,1,.778-.019l.2.19a.552.552,0,0,1,.019.778L1451,1136.35a.552.552,0,0,1-.778.018l-.2-.19a.552.552,0,0,1-.019-.778" transform="translate(-1367.047 -1069.156)" fill="#64e2ff"/>
        <path id="Path_611006" data-name="Path 611006" d="M1157.485,1205.2l14.936-15.663a.552.552,0,0,1,.778-.018l.2.19a.552.552,0,0,1,.019.778l-14.936,15.663a.552.552,0,0,1-.778.018l-.2-.19a.552.552,0,0,1-.019-.778" transform="translate(-1091.231 -1121.438)" fill="#64e2ff"/>
        <path id="Path_611007" data-name="Path 611007" d="M1191.588,1397.046c0-.1-.361-.243-.361-.243a5.25,5.25,0,0,0,.839-.263c.255-.1.5-.2.543-.4a1.205,1.205,0,0,0-.007-.393s.424-.3.371-.468a.51.51,0,0,0-.46-.348.814.814,0,0,0-.163-.257c-.171-.137-.422.064-.821.128a1.582,1.582,0,0,1-1.25-.34c-.131-.114-.333-.338-.272-.468.036-.078.167-.092.428-.121.976-.108.942-.316.9-.393-.143-.234-.461-.182-.944-.281-.748-.153-.745-.434-1.279-.422a1.62,1.62,0,0,0-.851.2,1.189,1.189,0,0,1-.525.265.859.859,0,0,1-.4-.072c-.517-.187-.711-.324-.855-.367-.715-.217-2.083,1.3-1.808,1.824.1.185.343.135,1.539.535a1.534,1.534,0,0,1,.584.332,1.487,1.487,0,0,1,.316.434c.4.748,1.792,1.091,2.37,1.232a3.953,3.953,0,0,0,1.259.125c.406-.029.854-.129.856-.241" transform="translate(-1116.967 -1313.227)" fill="#eb8e6c"/>
        <path id="Path_611008" data-name="Path 611008" d="M1281.45,1429.682l-.059-.051-.115.066a3.144,3.144,0,0,1-.549.274,2.434,2.434,0,0,1-.709.138,2.1,2.1,0,0,1-.98-.243c-.109-.056-.178.037-.051.1a2.164,2.164,0,0,0,1.034.256,2.535,2.535,0,0,0,.741-.143,5.049,5.049,0,0,0,.688-.393" transform="translate(-1205.872 -1347.976)" fill="#c36252"/>
        <path id="Path_611009" data-name="Path 611009" d="M1278.418,1442.8c-.044.012-.683.137-.915.174a3.465,3.465,0,0,1-.755.05,2.308,2.308,0,0,1-.951-.3c-.124-.085-.22-.009-.1.061a2.025,2.025,0,0,0,1.048.353,3.573,3.573,0,0,0,.776-.051c.238-.038.865-.2.909-.207Z" transform="translate(-1202.783 -1360.285)" fill="#c36252"/>
        <path id="Path_611010" data-name="Path 611010" d="M1272.711,1456.141c-.179-.085-.255,0-.046.1a3.074,3.074,0,0,0,.748.238,8.038,8.038,0,0,0,.835.094l-.066-.072a4.709,4.709,0,0,1-1.47-.36" transform="translate(-1199.857 -1372.939)" fill="#c36252"/>
        <path id="Path_611011" data-name="Path 611011" d="M975.044,1042.686a6.37,6.37,0,0,0,1.061-2.111,4.257,4.257,0,0,0-.232-2.659c-.424-1.155-2.448-3.134-3.075-3.132a4.979,4.979,0,0,0-1.766.575,13.42,13.42,0,0,0-3.323,2.6,21.141,21.141,0,0,0-3.476,5.772,18.383,18.383,0,0,0-1.15,5.187,2.9,2.9,0,0,0,.464,2.049,2.588,2.588,0,0,0,1.154.779c1.721.539,4.03-1.734,6.271-3.941a38.286,38.286,0,0,0,4.071-5.118" transform="translate(-908.06 -975.681)" fill="#ffc71f"/>
        <path id="Path_611012" data-name="Path 611012" d="M979.711,1264.012c-1.459-2.048-9.718-6.7-10.474-6.93-.448-.134-1.111-.683-1.921-.513-.794.166-2.074,1.82-2.108,2.054-.356,2.438,5.218,5.587,6.688,6.133,4.167,1.547,5.836,1.784,6.709,1.781.689,0,1.583-1.854,1.106-2.524" transform="translate(-910.064 -1184.768)" fill="#ffc71f"/>
        <path id="Path_611013" data-name="Path 611013" d="M1070.984,1202.4a31.056,31.056,0,0,0,4.616-5.091.809.809,0,0,0-.193-.105,29.483,29.483,0,0,1-4.747,5.188l-.115.107.2.057c.039.02,7.374,3.951,8.409,5.776.03.053.1-.26-.1-.51-1.219-1.564-7.374-5.056-8.075-5.422" transform="translate(-1009.4 -1128.823)" fill="#f7b000"/>
        <path id="Path_611014" data-name="Path 611014" d="M1039.717,1288a.111.111,0,0,0,0-.158h0a.11.11,0,0,0-.154,0,4.021,4.021,0,0,1-1.877.972.11.11,0,0,0-.086.127h0a.111.111,0,0,0,.131.088,4.241,4.241,0,0,0,1.983-1.026" transform="translate(-978.338 -1214.251)" fill="#f7b000"/>
        <path id="Path_611015" data-name="Path 611015" d="M1581.589,1044.438a2.241,2.241,0,0,0,.368-.123.965.965,0,0,0,.431-.36c.161-.286-.014-.509.14-.644.136-.121.3.032.494-.08a.727.727,0,0,0,.241-.779c-.077-.269-.306-.388-.25-.506.028-.06.1-.057.25-.107.128-.042.467-.154.52-.324.048-.152-.162-.257-.451-.659s-.221-.486-.483-.8c-.043-.052-.5-.585-.715-.479-.125.061-.122.306-.121.341.007.428.414.539.531,1.057.03.132.09.4-.038.51s-.341,0-1.312-.36a1.41,1.41,0,0,0-.9-.129c-.079.022-.275.077-.33.226-.073.2.159.423.1.479s-.317-.242-.615-.192a.475.475,0,0,0-.365.315.534.534,0,0,0,.124.464c.172.2.4.161.425.29s-.218.221-.209.4c0,.072.046.133.337.35.388.29.484.31.619.48.087.11.092.157-.026.342-.132.205-.64.638-.624.744s.8-.049,1.12-.116c.284-.061.3-.2.734-.342" transform="translate(-1488.882 -980.188)" fill="#eb8e6c"/>
        <path id="Path_611016" data-name="Path 611016" d="M1597.556,1075.208c-.26-.131-.532-.245-.8-.36-.331-.145-.706-.316-1.037-.448l-.008.152c.329.131.655.291.985.435.264.115.523.253.793.359.215.083.218-.059.064-.137" transform="translate(-1504.573 -1013.035)" fill="#c36252"/>
        <path id="Path_611017" data-name="Path 611017" d="M1590.053,1092.047c-.094-.056-.2-.1-.3-.153a6.436,6.436,0,0,0-1.246-.394l.021.112c.318.108.858.272,1.16.418.1.049.19.082.29.121.218.085.281.019.075-.1" transform="translate(-1497.778 -1029.158)" fill="#c36252"/>
      </g>
    </g>
  </g>
</svg>
