<svg xmlns="http://www.w3.org/2000/svg" width="139" height="139" viewBox="0 0 139 139">
  <g id="Group_1074270" data-name="Group 1074270" transform="translate(-1047 -2138.173)">
    <g id="Group_1072365" data-name="Group 1072365" transform="translate(-387.668 -3743.827)">
      <g id="Group_1072229" data-name="Group 1072229" transform="translate(1434.668 5882)">
        <path id="Path_608385" data-name="Path 608385" d="M69.5,0A69.5,69.5,0,1,1,0,69.5,69.5,69.5,0,0,1,69.5,0Z" transform="translate(0)" fill="#fff"/>
      </g>
    </g>
    <g id="Group_1073649" data-name="Group 1073649" transform="translate(1012.781 2162.536)">
      <g id="Group_1073645" data-name="Group 1073645" transform="translate(73.646 1.557)">
        <path id="Path_611330" data-name="Path 611330" d="M80.142,8.284V95.5h4.511V8.284H80.142Z" transform="translate(-80.142 -8.284)" fill="#c2b59b"/>
        <path id="Path_611331" data-name="Path 611331" d="M376.142,54.9V95.5h4.511V8.284h-4.511V54.9Z" transform="translate(-320.506 -8.284)" fill="#c2b59b"/>
        <path id="Path_611332" data-name="Path 611332" d="M155.267,256.284H104.142V262.3h51.125Z" transform="translate(-99.631 -209.67)" fill="#c2b59b"/>
        <path id="Path_611333" data-name="Path 611333" d="M155.267,118.3v-6.015H104.142V118.3Z" transform="translate(-99.631 -92.736)" fill="#c2b59b"/>
        <path id="Path_611334" data-name="Path 611334" d="M128.2,408.284H104.142V414.3h51.125v-6.015Z" transform="translate(-99.631 -333.1)" fill="#c2b59b"/>
      </g>
      <g id="Group_1073646" data-name="Group 1073646" transform="translate(84.171 1.504)">
        <path id="Path_611335" data-name="Path 611335" d="M136.142,32.284h6.015V47.321h-6.015Z" transform="translate(-136.142 -27.72)" fill="#ffbcab"/>
        <path id="Path_611336" data-name="Path 611336" d="M168.142,32.284h6.015V47.321h-6.015Z" transform="translate(-162.127 -27.72)" fill="#ffbcab"/>
        <path id="Path_611337" data-name="Path 611337" d="M206.157,34.328V16.284h-6.015V34.328Z" transform="translate(-188.113 -14.727)" fill="#ffbcab"/>
        <path id="Path_611338" data-name="Path 611338" d="M248.146,9.558,253.956,8l4.67,17.429-5.81,1.557Z" transform="translate(-227.094 -8.001)" fill="#ffbcab"/>
      </g>
      <g id="Group_1073647" data-name="Group 1073647" transform="translate(78.157 30.592)">
        <path id="Path_611339" data-name="Path 611339" d="M104.142,224.284h18.044V230.3H104.142Z" transform="translate(-104.142 -212.72)" fill="#bddbff"/>
        <path id="Path_611340" data-name="Path 611340" d="M104.142,192.284h18.044V198.3H104.142Z" transform="translate(-104.142 -186.734)" fill="#bddbff"/>
        <path id="Path_611341" data-name="Path 611341" d="M313.235,177.282l3.892-14.524,5.81,1.557-3.892,14.524Z" transform="translate(-273.934 -162.758)" fill="#bddbff"/>
      </g>
      <g id="Group_1073648" data-name="Group 1073648" transform="translate(84.171 58.697)">
        <path id="Path_611342" data-name="Path 611342" d="M136.142,328.284h6.015v15.037h-6.015Z" transform="translate(-136.142 -325.277)" fill="#ffe477"/>
        <path id="Path_611343" data-name="Path 611343" d="M168.142,328.284h6.015v15.037h-6.015Z" transform="translate(-162.127 -325.277)" fill="#ffe477"/>
        <path id="Path_611344" data-name="Path 611344" d="M240.183,321.558l5.81-1.557,3.892,14.524-5.81,1.557Z" transform="translate(-220.627 -318.551)" fill="#ffe477"/>
        <path id="Path_611345" data-name="Path 611345" d="M200.142,312.284v18.044h6.015V312.284Z" transform="translate(-188.113 -312.284)" fill="#ffe477"/>
      </g>
      <path id="Path_611346" data-name="Path 611346" d="M133.793.054h-4.511a1.5,1.5,0,0,0-1.5,1.5V19.6H117.034a1.5,1.5,0,0,0,.122-1.053L112.484,1.115A1.5,1.5,0,0,0,110.643.052l-.006,0-5.8,1.555A1.5,1.5,0,0,0,103.77,3.45h0L108.1,19.6h-4.379V3.061a1.5,1.5,0,0,0-1.5-1.5H96.2a1.5,1.5,0,0,0-1.5,1.5v1.5H84.171a1.5,1.5,0,0,0-1.5,1.5V19.6H79.66V1.557a1.5,1.5,0,0,0-1.5-1.5H73.646a1.5,1.5,0,0,0-1.5,1.5V88.771a1.5,1.5,0,0,0,1.5,1.5h4.511a1.5,1.5,0,0,0,1.5-1.5V84.26h48.118v4.511a1.5,1.5,0,0,0,1.5,1.5h4.511a1.5,1.5,0,0,0,1.5-1.5V1.557A1.5,1.5,0,0,0,133.793.054ZM109.969,3.345l3.893,14.526-2.907.779-3.89-14.526ZM91.69,75.238V63.208H94.7V75.238Zm-6.015,0V63.208h3.007V75.238ZM97.7,61.7V60.2h3.007V75.238H97.7Zm6.015,5.81,2.069,7.723h-2.069Zm4.962,6.873-3.113-11.62,2.9-.779,3.116,11.62Zm6.2-.105-3.893-14.524a1.5,1.5,0,0,0-1.84-1.066l-.015,0-5.413,1.453V58.7a1.5,1.5,0,0,0-1.5-1.5H96.2a1.5,1.5,0,0,0-1.5,1.5v1.5H84.171a1.5,1.5,0,0,0-1.5,1.5V75.238H79.66V55.69h48.118V75.238H114.786a1.481,1.481,0,0,0,.087-.955ZM79.66,43.66H94.7v3.007H79.66ZM94.7,40.653H79.66V37.646H94.7ZM79.66,49.675h48.118v3.007H79.66ZM119.3,44.048l3.114-11.62,2.9.779L122.2,44.826Zm8.479-8.409V46.668h-2.955Zm0-4.834a1.425,1.425,0,0,0-.23-.114l-5.81-1.556A1.5,1.5,0,0,0,119.9,30.2l-3.892,14.524a1.5,1.5,0,0,0,1.063,1.842h0l.389.1H97.7V36.142a1.5,1.5,0,0,0-1.5-1.5H79.66V28.623h48.118ZM97.7,4.565h3.007V19.6H97.7ZM94.7,19.6H91.69V7.572H94.7ZM85.675,7.572h3.007V19.6H85.675Zm42.1,15.037v3.007H79.66V22.609ZM76.653,87.267h-1.5V3.061h1.5Zm3.007-6.015V78.245h48.118v3.007Zm52.629,6.015h-1.5V3.061h1.5Z" transform="translate(0 0)" fill="#231f20"/>
    </g>
  </g>
</svg>
