<svg xmlns="http://www.w3.org/2000/svg" xmlns:xlink="http://www.w3.org/1999/xlink" width="400" height="312" viewBox="0 0 400 312">
  <defs>
    <clipPath id="clip-path">
      <rect id="Rectangle_378653" data-name="Rectangle 378653" width="400" height="238" transform="translate(390 1014.73)" fill="#ebddcf"/>
    </clipPath>
    <clipPath id="clip-path-2">
      <rect id="Rectangle_378629" data-name="Rectangle 378629" width="305.309" height="204.836" fill="none"/>
    </clipPath>
    <clipPath id="clip-path-3">
      <rect id="Rectangle_378627" data-name="Rectangle 378627" width="305.31" height="204.836" fill="none"/>
    </clipPath>
    <clipPath id="clip-path-4">
      <rect id="Rectangle_378622" data-name="Rectangle 378622" width="113.014" height="141.915" fill="none"/>
    </clipPath>
    <clipPath id="clip-path-5">
      <rect id="Rectangle_378626" data-name="Rectangle 378626" width="114.557" height="132.566" fill="none"/>
    </clipPath>
    <clipPath id="clip-path-7">
      <rect id="Rectangle_378633" data-name="Rectangle 378633" width="103.753" height="156.977" fill="none"/>
    </clipPath>
    <clipPath id="clip-path-9">
      <rect id="Rectangle_378631" data-name="Rectangle 378631" width="1.198" height="1.194" fill="none"/>
    </clipPath>
  </defs>
  <g id="Group_1074270" data-name="Group 1074270" transform="translate(-5927 10565)">
    <path id="Path_613475" data-name="Path 613475" d="M0,0H400V312H0Z" transform="translate(5927 -10565)" fill="#ebddcf"/>
    <g id="Mask_Group_154433" data-name="Mask Group 154433" transform="translate(5537 -11505.73)" clip-path="url(#clip-path)">
      <g id="Group_1073834" data-name="Group 1073834" transform="translate(221.395 1057.005)">
        <path id="Path_612238" data-name="Path 612238" d="M181.38,0V15.069h-6.5V73.708h-8.541V55.65h-4.5V51.288L152,55.65h-2.41V44.8L137.82,29.078,126.048,44.8V81.693h-5.525v7.168h-8.155V59.6h-6.757l.281-12.14H98.073V43.986H90.15L88.932,22.96,87.712,43.986H86.188v3.477H84.132l.753,32.512h-1.46V65.632L67.044,55.65V73.708H50.661V59.6H40.549V51.288L23.227,63.907V51.288L0,68.208V191.859H370.258V71.352h-7.889l.553-23.888H346.143V12.884h-9.962v7.35h-9.963v6.73h-9.963v34.7H308.6V45.529h-2.728V43.75H288.1v1.779H285.37V79.165h-5.554V35.935h-2.728V34.156h-17.77v1.779H256.59V60.829h-6.046v-15.3h-2.728V43.75H230.046v1.779h-2.729v5.759l-5.7,6.336V68.248H213.99V61.66h-3.935V45.529H195.541V35.978l-6.188-5.447V15.069h-6.5V0Z" transform="translate(0 0)" fill="#dec6b0"/>
        <path id="Path_612239" data-name="Path 612239" d="M14.05,77.6V94.375L0,115.8V250.04H87.715v.03h28.679v-.03H370.258V160.158l-17.323-12.62v-28.7L325.022,90.563v60.989H319.6v14.1H303.215V147.6l-16.382,9.982v14.344H284.8l1.328-40.666h-2.261v-3.821H270.8v3.821H262.21l.436,13.342h-7.553v36.21h-4.837V114.92L235.461,95.159,220.667,114.92V147.6h-2.41l-9.84-4.363V147.6h-4.5v18.058H195.38V107.019H180.906v15.462l-6.188,5.447v9.551H160.2v16.131h-3.935V160.2H141.307V149.574l-5.7-6.337v-5.759h-2.728V135.7h-17.77v1.779h-2.728v15.3h-3.319V124.762h-3.369v-2.2H83.748v2.2H80.378v46.352H77.551V137.478H74.823V135.7H57.054v1.779H54.326v16.131H52.388V137.674H38.67l-.055-42.715v-8.3H26.333V77.6Z" transform="translate(0 -29.912)" fill="#c8b29e"/>
        <path id="Path_612240" data-name="Path 612240" d="M778.87,0V15.069h-6.5V73.708h-8.54V55.65h-4.5V51.288l-9.839,4.362h-2.41V44.8L735.31,29.078,723.538,44.8V81.693h-5.525v7.168h-8.155V59.6H703.1l.281-12.14h-7.819V43.986H687.64L686.42,22.96,685.2,43.986h-1.524v3.477h-2.057l.753,32.512h-1.459V65.632L664.533,55.65V73.708H648.151V59.6H638.038V51.288L620.716,63.907V51.288l-23.227,16.92V191.859H967.747V71.352h-7.889l.554-23.888H943.633V12.884H933.67v7.35h-9.963v6.73h-9.962v34.7h-7.659V45.529h-2.728V43.75h-17.77v1.779H882.86V79.165h-5.554V35.935h-2.728V34.156h-17.77v1.779H854.08V60.829h-6.046v-15.3h-2.728V43.75h-17.77v1.779h-2.729v5.759l-5.7,6.336V68.248h-7.626V61.66h-3.936V45.529H793.03V35.978l-6.188-5.447V15.069h-6.5V0Z" transform="translate(-230.317 0)" fill="#dec6b0"/>
        <path id="Path_612241" data-name="Path 612241" d="M611.539,77.6V94.375L597.489,115.8V250.04H685.2v.03h28.68v-.03H967.747V160.158l-17.322-12.62v-28.7L922.511,90.563v60.989h-5.426v14.1H900.7V147.6l-16.382,9.982v14.344h-2.035l1.328-40.666h-2.26v-3.821H868.294v3.821H859.7l.435,13.342h-7.553v36.21h-4.836V114.92l-14.8-19.761L818.156,114.92V147.6h-2.41l-9.839-4.363V147.6h-4.5v18.058h-8.541V107.019H778.395v15.462l-6.188,5.447v9.551H757.694v16.131h-3.935V160.2H738.8V149.574l-5.7-6.337v-5.759h-2.729V135.7H712.6v1.779h-2.728v15.3h-3.319V124.762h-3.37v-2.2H681.237v2.2h-3.369v46.352h-2.827V137.478h-2.728V135.7h-17.77v1.779h-2.728v16.131h-1.938V137.674H636.159l-.053-42.715v-8.3H623.823V77.6Z" transform="translate(-230.316 -29.912)" fill="#c8b29e"/>
      </g>
    </g>
    <g id="Group_1073835" data-name="Group 1073835" transform="translate(5937.631 -10507.475)">
      <g id="Group_1073815" data-name="Group 1073815" transform="translate(0 0)" clip-path="url(#clip-path-2)">
        <path id="Path_612100" data-name="Path 612100" d="M2208.916,535.236l-52.8,125.062L2093.2,633.737,2063,620.984l52.24-123.726.564-1.336,2.916,1.231,39.466,16.663Z" transform="translate(-1905.056 -457.955)" fill="#fff"/>
        <g id="Group_1073812" data-name="Group 1073812" transform="translate(0 0)">
          <g id="Group_1073811" data-name="Group 1073811" clip-path="url(#clip-path-3)">
            <path id="Path_612101" data-name="Path 612101" d="M2777.233,745.513h0a1.485,1.485,0,0,1,1.946-.79l41,17.312a1.485,1.485,0,0,1-1.156,2.736l-41-17.312a1.486,1.486,0,0,1-.791-1.946" transform="translate(-2564.5 -687.598)" fill="#d0dd63"/>
            <path id="Path_612102" data-name="Path 612102" d="M2733.625,848.8h0a1.486,1.486,0,0,1,1.946-.791l63.72,26.9a1.485,1.485,0,1,1-1.156,2.736l-63.72-26.9a1.485,1.485,0,0,1-.791-1.946" transform="translate(-2524.23 -782.973)" fill="#a3bac4"/>
            <path id="Path_612103" data-name="Path 612103" d="M2693.187,944.573h0a1.485,1.485,0,0,1,1.946-.791l63.72,26.9a1.485,1.485,0,0,1-1.155,2.736l-63.72-26.9a1.485,1.485,0,0,1-.791-1.946" transform="translate(-2486.887 -871.418)" fill="#a3bac4"/>
            <path id="Path_612104" data-name="Path 612104" d="M2382.869,1679.538h0a1.485,1.485,0,0,1,1.946-.791l41,17.312a1.485,1.485,0,1,1-1.156,2.736l-41-17.312a1.485,1.485,0,0,1-.791-1.946" transform="translate(-2200.328 -1550.114)" fill="#d0dd63"/>
            <path id="Path_612105" data-name="Path 612105" d="M2339.921,1781.258h0a1.486,1.486,0,0,1,1.946-.791l71.205,30.064a1.485,1.485,0,1,1-1.155,2.736l-71.206-30.064a1.486,1.486,0,0,1-.791-1.946" transform="translate(-2160.668 -1644.047)" fill="#a3bac4"/>
            <path id="Path_612106" data-name="Path 612106" d="M2297.994,1880.56h0a1.485,1.485,0,0,1,1.946-.791l71.205,30.064a1.485,1.485,0,1,1-1.156,2.736l-71.206-30.064a1.485,1.485,0,0,1-.79-1.946" transform="translate(-2121.951 -1735.746)" fill="#a3bac4"/>
            <path id="Path_612107" data-name="Path 612107" d="M2254.849,1982.748h0a1.485,1.485,0,0,1,1.946-.791L2328,2012.021a1.485,1.485,0,1,1-1.155,2.736l-71.206-30.064a1.485,1.485,0,0,1-.79-1.946" transform="translate(-2082.109 -1830.11)" fill="#a3bac4"/>
            <rect id="Rectangle_378618" data-name="Rectangle 378618" width="27.451" height="16.98" transform="matrix(0.389, -0.921, 0.921, 0.389, 191.805, 120.369)" fill="#d0dd63"/>
            <rect id="Rectangle_378619" data-name="Rectangle 378619" width="34.526" height="16.98" transform="translate(218.217 131.521) rotate(-67.11)" fill="#feb50e"/>
            <rect id="Rectangle_378620" data-name="Rectangle 378620" width="41.884" height="16.98" transform="matrix(0.389, -0.921, 0.921, 0.389, 242.372, 141.72)" fill="#a3bac4"/>
            <path id="Path_612108" data-name="Path 612108" d="M1888.822,348.861l-26.551,133.131L1795.3,468.636l-32.152-6.412,26.267-131.709.284-1.422,3.1.619,42.012,8.378Z" transform="translate(-1628.164 -303.898)" fill="#ededed"/>
            <path id="Path_612109" data-name="Path 612109" d="M2187.453,564.668h0a1.485,1.485,0,0,1,1.747-1.166l43.648,8.7a1.485,1.485,0,0,1,1.166,1.747h0a1.485,1.485,0,0,1-1.747,1.166l-43.648-8.7a1.485,1.485,0,0,1-1.166-1.747" transform="translate(-2019.954 -520.333)" fill="#d0dd63"/>
            <path id="Path_612110" data-name="Path 612110" d="M2165.526,674.614h0a1.485,1.485,0,0,1,1.747-1.166l67.831,13.528a1.485,1.485,0,1,1-.581,2.913l-67.831-13.528a1.485,1.485,0,0,1-1.166-1.747" transform="translate(-1999.706 -621.862)" fill="#a3bac4"/>
            <path id="Path_612111" data-name="Path 612111" d="M2145.193,776.571h0a1.485,1.485,0,0,1,1.747-1.166l67.831,13.528a1.485,1.485,0,0,1-.581,2.913l-67.831-13.528a1.485,1.485,0,0,1-1.166-1.747" transform="translate(-1980.93 -716.013)" fill="#a3bac4"/>
            <path id="Path_612112" data-name="Path 612112" d="M1989.161,1558.954h0a1.485,1.485,0,0,1,1.747-1.166l43.648,8.7a1.485,1.485,0,0,1-.581,2.913l-43.648-8.7a1.485,1.485,0,0,1-1.166-1.747" transform="translate(-1836.843 -1438.497)" fill="#d0dd63"/>
            <path id="Path_612113" data-name="Path 612113" d="M1967.566,1667.238h0a1.485,1.485,0,0,1,1.747-1.166l75.8,15.117a1.485,1.485,0,1,1-.581,2.913l-75.8-15.117a1.485,1.485,0,0,1-1.166-1.747" transform="translate(-1816.901 -1538.49)" fill="#a3bac4"/>
            <path id="Path_612114" data-name="Path 612114" d="M2132.574,873.942h0a1.485,1.485,0,0,1,1.747-1.166l75.8,15.117a1.485,1.485,0,1,1-.581,2.913l-75.8-15.117a1.485,1.485,0,0,1-1.166-1.747" transform="translate(-1969.277 -805.929)" fill="#a3bac4"/>
            <path id="Path_612115" data-name="Path 612115" d="M2099.776,964.6h0a1.485,1.485,0,0,1,1.747-1.166l75.8,15.117a1.485,1.485,0,1,1-.581,2.913l-75.8-15.117a1.485,1.485,0,0,1-1.166-1.747" transform="translate(-1938.99 -889.651)" fill="#a3bac4"/>
            <path id="Path_612116" data-name="Path 612116" d="M2099.776,1094.586h0a1.485,1.485,0,0,1,1.747-1.166l75.8,15.117a1.485,1.485,0,1,1-.581,2.913l-75.8-15.117a1.485,1.485,0,0,1-1.166-1.747" transform="translate(-1938.99 -1009.681)" fill="#a3bac4"/>
            <path id="Path_612117" data-name="Path 612117" d="M1946.484,1772.946h0a1.485,1.485,0,0,1,1.747-1.166l75.8,15.117a1.485,1.485,0,0,1-.581,2.913l-75.8-15.117a1.485,1.485,0,0,1-1.166-1.747" transform="translate(-1797.434 -1636.105)" fill="#a3bac4"/>
            <path id="Path_612118" data-name="Path 612118" d="M1924.79,1881.727h0a1.485,1.485,0,0,1,1.747-1.166l75.8,15.117a1.485,1.485,0,1,1-.581,2.913l-75.8-15.117a1.485,1.485,0,0,1-1.166-1.747" transform="translate(-1777.401 -1736.558)" fill="#a3bac4"/>
            <rect id="Rectangle_378621" data-name="Rectangle 378621" width="27.451" height="16.98" transform="translate(159.569 109.723) rotate(-78.721)" fill="#d0dd63"/>
            <path id="Path_612119" data-name="Path 612119" d="M1265.571,2071.508s9.479,9.407,21.084,4.242c9.026-4.017,28.427-28.592,29.658-34.624,4.668-22.856-23.15-10.567-26.956-6.115s-23.787,36.5-23.787,36.5" transform="translate(-1168.679 -1872.463)" fill="#e8a11c"/>
            <path id="Path_612120" data-name="Path 612120" d="M1490.308,336.7l25.077,133.416-67.111,12.615-32.221,6.056L1391.244,356.8l-.267-1.425,3.11-.585,42.1-7.914Z" transform="translate(-1284.483 -310.925)" fill="#fff"/>
            <path id="Path_612121" data-name="Path 612121" d="M1556.224,663.02h0a1.485,1.485,0,0,1,1.185-1.734l43.742-8.222a1.485,1.485,0,0,1,.549,2.919l-43.742,8.222a1.485,1.485,0,0,1-1.734-1.185" transform="translate(-1437.056 -603.042)" fill="#d0dd63"/>
            <path id="Path_612122" data-name="Path 612122" d="M1576.934,718.258h0a1.485,1.485,0,0,1,1.185-1.734l67.977-12.777a1.485,1.485,0,0,1,.549,2.919l-67.976,12.777a1.485,1.485,0,0,1-1.734-1.185" transform="translate(-1456.18 -649.845)" fill="#a3bac4"/>
            <path id="Path_612123" data-name="Path 612123" d="M1596.14,820.434h0a1.485,1.485,0,0,1,1.185-1.734l67.977-12.777a1.485,1.485,0,0,1,.549,2.919l-67.977,12.777a1.485,1.485,0,0,1-1.734-1.185" transform="translate(-1473.915 -744.198)" fill="#a3bac4"/>
            <path id="Path_612124" data-name="Path 612124" d="M1743.514,1659.439h0a1.485,1.485,0,0,1,1.185-1.734l43.742-8.222a1.485,1.485,0,0,1,.549,2.919l-43.742,8.222a1.485,1.485,0,0,1-1.734-1.185" transform="translate(-1610.006 -1523.175)" fill="#d0dd63"/>
            <path id="Path_612125" data-name="Path 612125" d="M1763.911,1694.907h0a1.485,1.485,0,0,1,1.185-1.734l75.962-14.278a1.485,1.485,0,0,1,.549,2.919l-75.962,14.278a1.485,1.485,0,0,1-1.734-1.185" transform="translate(-1628.841 -1550.334)" fill="#a3bac4"/>
            <path id="Path_612126" data-name="Path 612126" d="M1783.823,1800.841h0a1.485,1.485,0,0,1,1.185-1.734l75.962-14.278a1.485,1.485,0,1,1,.549,2.919l-75.962,14.278a1.485,1.485,0,0,1-1.734-1.185" transform="translate(-1647.229 -1648.158)" fill="#a3bac4"/>
            <path id="Path_612127" data-name="Path 612127" d="M1804.312,1909.856h0a1.485,1.485,0,0,1,1.185-1.734l75.962-14.278a1.485,1.485,0,1,1,.549,2.919l-75.962,14.278a1.485,1.485,0,0,1-1.734-1.185" transform="translate(-1666.15 -1748.827)" fill="#a3bac4"/>
            <path id="Path_612128" data-name="Path 612128" d="M1674.608,1246.11h0a1.485,1.485,0,0,1,1.185-1.734l75.962-14.278a1.485,1.485,0,0,1,1.734,1.185h0a1.485,1.485,0,0,1-1.185,1.734l-75.962,14.278a1.485,1.485,0,0,1-1.734-1.185" transform="translate(-1546.375 -1135.898)" fill="#a3bac4"/>
            <path id="Path_612129" data-name="Path 612129" d="M1694.519,1352.045h0a1.485,1.485,0,0,1,1.185-1.734l75.962-14.278a1.485,1.485,0,1,1,.549,2.919l-75.962,14.278a1.486,1.486,0,0,1-1.734-1.185" transform="translate(-1564.763 -1233.723)" fill="#a3bac4"/>
            <path id="Path_612130" data-name="Path 612130" d="M1715.01,1461.059h0a1.485,1.485,0,0,1,1.185-1.734l75.962-14.278a1.485,1.485,0,0,1,.549,2.919l-75.962,14.278a1.485,1.485,0,0,1-1.734-1.185" transform="translate(-1583.685 -1334.391)" fill="#a3bac4"/>
            <g id="Group_1073807" data-name="Group 1073807" transform="translate(106.761 35.95)" opacity="0.259">
              <g id="Group_1073806" data-name="Group 1073806">
                <g id="Group_1073805" data-name="Group 1073805" clip-path="url(#clip-path-4)">
                  <path id="Path_612131" data-name="Path 612131" d="M1507.485,565.845l-6.378,4.51h0l-5.821,4.116-10.823,7.653h0l-5.823,4.117L1451.5,605.428l-32.221,6.056-24.809-131.991,2.843-2.01,42.1-7.914,10.235,14.477,1.887,2.669,3.564,5.04h0l1.886,2.667,3.168,4.481,1.887,2.668,9.924,14.036h0l20.334,28.758Z" transform="translate(-1394.471 -469.569)" fill="#919191"/>
                </g>
              </g>
            </g>
            <path id="Path_612132" data-name="Path 612132" d="M874.876,376.446,792.35,434.8l-4.4-6.216L713.978,323.95l39.513-27.937L796.505,265.6Z" transform="translate(-659.316 -245.266)" fill="#fff"/>
            <path id="Path_612133" data-name="Path 612133" d="M945.694,805.006h0a1.485,1.485,0,0,1,.355-2.07l36.341-25.695a1.485,1.485,0,1,1,1.715,2.425l-36.341,25.695a1.485,1.485,0,0,1-2.07-.355" transform="translate(-873.039 -717.484)" fill="#d0dd63"/>
            <path id="Path_612134" data-name="Path 612134" d="M1010.417,724.836h0a1.485,1.485,0,0,1,.355-2.07l56.476-39.931a1.485,1.485,0,0,1,1.715,2.425l-56.476,39.931a1.485,1.485,0,0,1-2.07-.355" transform="translate(-932.807 -630.305)" fill="#a3bac4"/>
            <path id="Path_612135" data-name="Path 612135" d="M1070.438,809.726h0a1.485,1.485,0,0,1,.355-2.07l56.476-39.931a1.485,1.485,0,0,1,1.715,2.425l-56.476,39.931a1.485,1.485,0,0,1-2.07-.355" transform="translate(-988.233 -708.696)" fill="#a3bac4"/>
            <path id="Path_612136" data-name="Path 612136" d="M1531.014,1632.852h0a1.485,1.485,0,0,1,.355-2.07l36.341-25.695a1.485,1.485,0,1,1,1.715,2.425l-36.341,25.695a1.485,1.485,0,0,1-2.07-.355" transform="translate(-1413.547 -1481.949)" fill="#d0dd63"/>
            <path id="Path_612137" data-name="Path 612137" d="M1594.758,1494.718h0a1.485,1.485,0,0,1,.355-2.07l63.111-44.622a1.485,1.485,0,1,1,1.715,2.425l-63.111,44.622a1.485,1.485,0,0,1-2.07-.355" transform="translate(-1472.411 -1336.913)" fill="#a3bac4"/>
            <path id="Path_612138" data-name="Path 612138" d="M1656.986,1582.73h0a1.485,1.485,0,0,1,.355-2.07l63.111-44.622a1.485,1.485,0,1,1,1.715,2.425l-63.111,44.622a1.485,1.485,0,0,1-2.07-.355" transform="translate(-1529.875 -1418.188)" fill="#a3bac4"/>
            <path id="Path_612139" data-name="Path 612139" d="M1721.024,1673.3h0a1.485,1.485,0,0,1,.355-2.07l63.111-44.622a1.485,1.485,0,1,1,1.715,2.425l-63.111,44.622a1.485,1.485,0,0,1-2.07-.355" transform="translate(-1589.01 -1501.825)" fill="#a3bac4"/>
            <rect id="Rectangle_378623" data-name="Rectangle 378623" width="16.98" height="27.451" transform="translate(98.815 115.841) rotate(-35.262)" fill="#d0dd63"/>
            <rect id="Rectangle_378624" data-name="Rectangle 378624" width="16.98" height="34.526" transform="translate(118.14 93.513) rotate(-35.262)" fill="#a3bac4"/>
            <rect id="Rectangle_378625" data-name="Rectangle 378625" width="16.98" height="41.884" transform="translate(135.302 72.368) rotate(-35.262)" fill="#a3bac4"/>
            <g id="Group_1073810" data-name="Group 1073810" transform="translate(54.662 50.747)" opacity="0.09">
              <g id="Group_1073809" data-name="Group 1073809">
                <g id="Group_1073808" data-name="Group 1073808" clip-path="url(#clip-path-5)">
                  <path id="Path_612140" data-name="Path 612140" d="M828.405,738.667a6.566,6.566,0,0,1-1.223,5.291l-3.379,4.431-6.018,7.893L806.6,770.955l-6.019,7.893L787.955,795.4,713.978,690.776l39.513-27.937,6.619,5.047a3.835,3.835,0,0,1,.7,5.377l-5.713,7.492.469.358L758.04,683l4.677,3.566,2.476,1.888,4.157,3.171,2.476,1.888,10.937,8.338,27.848,21.235L826,734.819a6.427,6.427,0,0,1,2.406,3.848" transform="translate(-713.978 -662.839)"/>
                </g>
              </g>
            </g>
            <path id="Path_612141" data-name="Path 612141" d="M69.469,449.277l27.906,21.278a3.719,3.719,0,0,1,.7,5.211l-5.513,7.23,69.108,52.693a6.319,6.319,0,0,1,1.193,8.857l-53.619,70.322a6.319,6.319,0,0,1-8.857,1.194l-97.9-74.648a6.319,6.319,0,0,1-1.194-8.857l62.963-82.577a3.718,3.718,0,0,1,5.211-.7" transform="translate(0 -414.177)" fill="#feb50e"/>
            <text id="_01" data-name="01" transform="translate(115.241 0.774)" font-size="1" font-family="MyriadPro-Regular, Myriad Pro"><tspan x="0" y="0">01</tspan></text>
          </g>
        </g>
        <text id="_01-2" data-name="01" transform="matrix(0.817, -0.577, 0.577, 0.817, 128.811, 46.589)" font-size="17" font-family="Bahnschrift"><tspan x="0" y="0">01</tspan></text>
        <text id="_02" data-name="02" transform="translate(186.01 46.698) rotate(-11.753)" font-size="19" font-family="Bahnschrift"><tspan x="0" y="0">02</tspan></text>
        <text id="_03" data-name="03" transform="translate(235.281 56.783) rotate(7.295)" font-size="18" font-family="Bahnschrift"><tspan x="0" y="0" letter-spacing="-0.004em">0</tspan><tspan y="0">3</tspan></text>
        <text id="_04" data-name="04" transform="translate(274.356 82.594) rotate(20.271)" font-size="18" font-family="Bahnschrift"><tspan x="0" y="0">04</tspan></text>
      </g>
    </g>
    <path id="Path_612242" data-name="Path 612242" d="M4869.651-10552.175c2.425-1.348,111.938-14.01,166.838,47.419" transform="translate(1190.063 98.201)" fill="none" stroke="#76f5f3" stroke-linecap="round" stroke-width="5"/>
    <path id="Path_612243" data-name="Path 612243" d="M5177.728-10542.464s25.6-9.969,39.875,12.125" transform="translate(1036.581 90.428)" fill="none" stroke="#263238" stroke-width="4"/>
    <path id="Path_612244" data-name="Path 612244" d="M5229.444-10561.289l-7.409-44.59" transform="translate(1009.921 109.254)" fill="none" stroke="#263238" stroke-width="4"/>
    <path id="Path_612245" data-name="Path 612245" d="M5254.636-10572.96l-7.976-6.824-5.14,10.28" transform="translate(985.21 81.634)" fill="none" stroke="#263238" stroke-width="4"/>
    <path id="Path_613476" data-name="Path 613476" d="M11,0H120a11,11,0,0,1,11,11V28a11,11,0,0,1-11,11H11A11,11,0,0,1,0,28V11A11,11,0,0,1,11,0Z" transform="translate(6158.369 -10546)" fill="#fff"/>
    <path id="Path_613477" data-name="Path 613477" d="M8.351-4.939H3.569V0H1.079V-12.086H8.948v2.017H3.569v3.121H8.351Zm1.336.365A5.327,5.327,0,0,1,10.2-6.956a3.768,3.768,0,0,1,1.482-1.619,4.323,4.323,0,0,1,2.245-.573A4.09,4.09,0,0,1,16.9-8.035a4.464,4.464,0,0,1,1.282,3.021L18.2-4.4a4.694,4.694,0,0,1-1.154,3.316,4.011,4.011,0,0,1-3.1,1.249,4.031,4.031,0,0,1-3.1-1.245A4.777,4.777,0,0,1,9.687-4.466Zm2.4.17a3.357,3.357,0,0,0,.481,1.958,1.588,1.588,0,0,0,1.378.678,1.592,1.592,0,0,0,1.361-.669,3.674,3.674,0,0,0,.49-2.141,3.324,3.324,0,0,0-.49-1.945,1.592,1.592,0,0,0-1.378-.69,1.566,1.566,0,0,0-1.361.686A3.735,3.735,0,0,0,12.086-4.4ZM22.2,0H19.8V-12.75H22.2Zm4.507,0H24.3V-8.981h2.407ZM24.164-11.306a1.181,1.181,0,0,1,.361-.888,1.356,1.356,0,0,1,.984-.349,1.36,1.36,0,0,1,.979.349,1.175,1.175,0,0,1,.365.888,1.178,1.178,0,0,1-.369.9,1.363,1.363,0,0,1-.975.349,1.363,1.363,0,0,1-.975-.349A1.178,1.178,0,0,1,24.164-11.306ZM33.892,0a2.664,2.664,0,0,1-.241-.805,2.9,2.9,0,0,1-2.266.971A3.189,3.189,0,0,1,29.2-.6a2.456,2.456,0,0,1-.867-1.926,2.538,2.538,0,0,1,1.058-2.191,5.222,5.222,0,0,1,3.059-.772h1.1V-6a1.48,1.48,0,0,0-.32-1,1.257,1.257,0,0,0-1.009-.374,1.429,1.429,0,0,0-.95.291.987.987,0,0,0-.344.8h-2.4a2.41,2.41,0,0,1,.481-1.444A3.182,3.182,0,0,1,30.373-8.77a4.961,4.961,0,0,1,1.976-.378,3.92,3.92,0,0,1,2.635.834,2.918,2.918,0,0,1,.975,2.345v3.893a4.294,4.294,0,0,0,.357,1.934V0ZM31.908-1.668a2.066,2.066,0,0,0,.979-.237,1.554,1.554,0,0,0,.664-.635V-4.084h-.9q-1.8,0-1.917,1.245l-.008.141a.96.96,0,0,0,.315.739A1.225,1.225,0,0,0,31.908-1.668Zm9.629-.1a1.573,1.573,0,0,0,1.079-.365,1.28,1.28,0,0,0,.432-.971H45.3a3.077,3.077,0,0,1-.5,1.673A3.286,3.286,0,0,1,43.459-.253a4.2,4.2,0,0,1-1.88.419,3.9,3.9,0,0,1-3.038-1.224,4.845,4.845,0,0,1-1.112-3.383V-4.6a4.79,4.79,0,0,1,1.1-3.312,3.854,3.854,0,0,1,3.03-1.237,3.778,3.778,0,0,1,2.7.959A3.4,3.4,0,0,1,45.3-5.636h-2.25a1.648,1.648,0,0,0-.432-1.139,1.439,1.439,0,0,0-1.1-.438,1.445,1.445,0,0,0-1.266.611,3.541,3.541,0,0,0-.427,1.983v.249a3.586,3.586,0,0,0,.423,2A1.463,1.463,0,0,0,41.537-1.768ZM49.2,0H46.792V-8.981H49.2ZM46.65-11.306a1.181,1.181,0,0,1,.361-.888A1.356,1.356,0,0,1,48-12.542a1.36,1.36,0,0,1,.979.349,1.175,1.175,0,0,1,.365.888,1.178,1.178,0,0,1-.369.9,1.363,1.363,0,0,1-.975.349,1.363,1.363,0,0,1-.975-.349A1.178,1.178,0,0,1,46.65-11.306ZM50.8-4.574a5.327,5.327,0,0,1,.515-2.382A3.767,3.767,0,0,1,52.8-8.575a4.323,4.323,0,0,1,2.245-.573A4.09,4.09,0,0,1,58.01-8.035a4.464,4.464,0,0,1,1.282,3.021l.017.614a4.694,4.694,0,0,1-1.154,3.316,4.011,4.011,0,0,1-3.1,1.249,4.031,4.031,0,0,1-3.1-1.245A4.777,4.777,0,0,1,50.8-4.466Zm2.4.17a3.357,3.357,0,0,0,.481,1.958,1.588,1.588,0,0,0,1.378.678,1.592,1.592,0,0,0,1.361-.669,3.674,3.674,0,0,0,.49-2.141,3.324,3.324,0,0,0-.49-1.945,1.592,1.592,0,0,0-1.378-.69,1.566,1.566,0,0,0-1.361.686A3.735,3.735,0,0,0,53.2-4.4Zm2.316-8.347H58.13l-2.3,2.573H53.88Zm7.479,3.769.075,1.038a3.136,3.136,0,0,1,2.582-1.2,2.606,2.606,0,0,1,2.125.838A3.912,3.912,0,0,1,68.49-5.8V0h-2.4V-5.744a1.556,1.556,0,0,0-.332-1.108,1.486,1.486,0,0,0-1.1-.344,1.65,1.65,0,0,0-1.519.863V0h-2.4V-8.981Z" transform="translate(6186.369 -10520)" fill="#12263f"/>
    <path id="Path_613478" data-name="Path 613478" d="M42.5,0C65.972,0,85,4.7,85,10.5S65.972,21,42.5,21,0,16.3,0,10.5,19.028,0,42.5,0Z" transform="translate(6231.369 -10301)" fill="#b19b83"/>
    <g id="Group_1073836" data-name="Group 1073836" transform="translate(6203.975 -10445.432)">
      <g id="Group_1073822" data-name="Group 1073822" transform="translate(0 0)" clip-path="url(#clip-path-7)">
        <g id="Group_1073821" data-name="Group 1073821">
          <g id="Group_1073820" data-name="Group 1073820" clip-path="url(#clip-path-7)">
            <path id="Path_612143" data-name="Path 612143" d="M132.589,39.057a65.29,65.29,0,0,0-2,11.759l-.053,1.623s4.064,3.374,7.473,3.582L140.866,49Z" transform="translate(-77.611 -23.222)" fill="#263238"/>
            <path id="Path_612144" data-name="Path 612144" d="M152.468,32.7c-.777-3.359-1.075-7.268-3.868-9.458a10.187,10.187,0,0,0-7.066-1.968,9.324,9.324,0,0,0-3.887,1.291c-1.547.876-2.2,2.652-2.95,4.266-1.5,3.233-1.306,7.611-.293,8.828l13.511,7.135c2.7-1.4,4.388-1.963,4.819-5.559a13.176,13.176,0,0,0-.266-4.534" transform="translate(-79.439 -12.637)" fill="#263238"/>
            <path id="Path_612145" data-name="Path 612145" d="M149.839,29l-8.5-2.509c-2.739-.4-4.7,2.916-4.984,5.669a49.167,49.167,0,0,0-.3,9.109c.549,4.63,4.053,5.354,4.053,5.354,0-.015.008.069-.019,1.437l-.011,2.817a2.337,2.337,0,0,0,.669,1.907c1.254,1.625,3.54,1.842,6.234.845a3.885,3.885,0,0,0,2.768-3.324L151.222,30.7a1.62,1.62,0,0,0-1.383-1.7" transform="translate(-80.821 -15.733)" fill="#ae7461"/>
            <path id="Path_612146" data-name="Path 612146" d="M138.957,50.108a.59.59,0,0,0,.546.617.564.564,0,0,0,.629-.508.591.591,0,0,0-.545-.618.565.565,0,0,0-.63.508" transform="translate(-82.617 -29.488)" fill="#263238"/>
            <path id="Path_612147" data-name="Path 612147" d="M138.341,46.522c.07.08.53-.234,1.165-.207s1.087.362,1.16.287c.035-.033-.034-.175-.231-.33a1.625,1.625,0,0,0-.925-.326,1.557,1.557,0,0,0-.931.261c-.2.142-.273.279-.238.315" transform="translate(-82.247 -27.317)" fill="#263238"/>
            <path id="Path_612148" data-name="Path 612148" d="M152.726,50.333a.59.59,0,0,0,.546.617.564.564,0,0,0,.629-.508.591.591,0,0,0-.545-.618.565.565,0,0,0-.63.508" transform="translate(-90.803 -29.622)" fill="#263238"/>
            <path id="Path_612149" data-name="Path 612149" d="M153.746,46.707c.071.08.531-.233,1.165-.206s1.088.362,1.16.287c.035-.033-.033-.175-.231-.33a1.624,1.624,0,0,0-.925-.326,1.556,1.556,0,0,0-.931.261c-.2.142-.273.279-.238.315" transform="translate(-91.406 -27.427)" fill="#263238"/>
            <path id="Path_612150" data-name="Path 612150" d="M145.311,49.964a4.188,4.188,0,0,0-1.024-.227c-.161-.023-.313-.062-.337-.173a.823.823,0,0,1,.127-.476l.528-1.216a21.271,21.271,0,0,0,1.2-3.187,21.229,21.229,0,0,0-1.458,3.083l-.508,1.224a.936.936,0,0,0-.109.633.407.407,0,0,0,.257.248,1.112,1.112,0,0,0,.274.049,4.126,4.126,0,0,0,1.045.043" transform="translate(-85.445 -26.568)" fill="#263238"/>
            <path id="Path_612151" data-name="Path 612151" d="M146.151,74.141a11.713,11.713,0,0,0,6.227-1.4s-1.65,3.16-6.238,2.548Z" transform="translate(-86.889 -43.248)" fill="#6f4439"/>
            <path id="Path_612152" data-name="Path 612152" d="M149.875,60.523a.921.921,0,0,0-.749-.447,1.2,1.2,0,0,0-1.112.5.743.743,0,0,0-.07.536c.036.093.007.047.075.112a2.1,2.1,0,0,0,.836.565.9.9,0,0,0,.963-.312.918.918,0,0,0,.057-.951" transform="translate(-87.949 -35.716)" fill="#6f4439"/>
            <path id="Path_612153" data-name="Path 612153" d="M149.427,59.038c-.1-.011-.135.678-.747,1.141s-1.342.354-1.351.45c-.012.043.157.141.467.163a1.715,1.715,0,0,0,1.126-.336,1.5,1.5,0,0,0,.583-.959c.039-.287-.03-.461-.077-.459" transform="translate(-87.595 -35.101)" fill="#263238"/>
            <path id="Path_612154" data-name="Path 612154" d="M153.164,41.279c.046.178.685.158,1.418.319.737.147,1.314.422,1.428.278.051-.07-.038-.242-.264-.432a2.531,2.531,0,0,0-2.168-.455c-.283.084-.433.205-.414.289" transform="translate(-91.064 -24.324)" fill="#263238"/>
            <path id="Path_612155" data-name="Path 612155" d="M138.443,41.906c.144.125.607-.093,1.188-.184.578-.109,1.089-.06,1.181-.225.039-.08-.059-.212-.294-.316a1.81,1.81,0,0,0-1-.094,1.786,1.786,0,0,0-.907.424c-.184.177-.231.333-.166.4" transform="translate(-82.296 -24.411)" fill="#263238"/>
            <path id="Path_612156" data-name="Path 612156" d="M149.152,25.319c-.008.033-.014.066-.021.1l.016.007c0-.036,0-.071.006-.107" transform="translate(-88.667 -15.054)" fill="#263238"/>
            <path id="Path_612157" data-name="Path 612157" d="M146.063,47.018c.13-1.207-.355-2.418-.214-3.624.149-1.278.977-2.373,1.316-3.613.544-1.987-.2-4.1-.476-6.154A4.875,4.875,0,0,1,143.7,31.9a13.505,13.505,0,0,1-2.024-3.718,6.223,6.223,0,0,0,1.252,3.576,1.679,1.679,0,0,1-1.434-.466,3.757,3.757,0,0,1-.842-1.307,10.217,10.217,0,0,1-.815-3.681,13.23,13.23,0,0,0,.6,5.375,2.294,2.294,0,0,0-1,.038,1.1,1.1,0,0,1-.952-.2,1.2,1.2,0,0,1-.261-.614,13.8,13.8,0,0,1-.153-4.683,14.275,14.275,0,0,0-1.055,2.6,5.029,5.029,0,0,0-.019,2.77.407.407,0,0,1-.572,0,.969.969,0,0,1-.25-.578,7.126,7.126,0,0,1,.152-2.331,11.8,11.8,0,0,0-.867,2.663,3.972,3.972,0,0,1-1.443,2.339,12.273,12.273,0,0,1,.115-3.531,10.682,10.682,0,0,1,1.035-2.8,8.326,8.326,0,0,1,1.866-2.6c1.356-1.188,1.923-.676,2.788-.224l.1.043c0-.021,0-.043.007-.064l.039-.184a12.989,12.989,0,0,1,6.84.32c1.632.532,1.782,4.046,2.18,2.376.241-1.01,1.551-.088,1.567-.059,1.925,3.472,3.966,8.98,4.059,17.684Z" transform="translate(-79.633 -14.268)" fill="#263238"/>
            <path id="Path_612158" data-name="Path 612158" d="M168.428,13.222a4.337,4.337,0,0,0-2.993-1.457,3.268,3.268,0,0,0-2.89,1.505,2.633,2.633,0,0,0,.356,3.149l1.422,1.138a3.9,3.9,0,0,0,3.23.313,2.808,2.808,0,0,0,1.824-2.562,3.3,3.3,0,0,0-.949-2.086" transform="translate(-96.427 -6.994)" fill="#263238"/>
            <path id="Path_612159" data-name="Path 612159" d="M167.282,25.388c-.275.129-1.054-1.064-2.444-2-1.369-.969-2.76-1.275-2.737-1.578.012-.138.4-.249,1.038-.184a5.315,5.315,0,0,1,3.947,2.727c.286.57.32.976.2,1.036" transform="translate(-96.379 -12.846)" fill="#455a64"/>
            <path id="Path_612160" data-name="Path 612160" d="M115.351,116.91l5.327-4.99,3.609,5.733c-.072.514-4.672,10.428-6.664,12.482-2.272,2.344-5.37,2.163-6.737-1.074a103.593,103.593,0,0,1-2.866-10.407Z" transform="translate(-64.224 -66.543)" fill="#64d0ce"/>
            <path id="Path_612161" data-name="Path 612161" d="M128.605,86.019a16.339,16.339,0,0,0-5.053,3.109,8.03,8.03,0,0,0-1.076,1.663c-.667,1.466-1.934,12.339-1.934,12.339l5.674,4.109,4.94-19.017-.315-3.016Z" transform="translate(-71.67 -50.66)" fill="#64d0ce"/>
            <path id="Path_612162" data-name="Path 612162" d="M133.918,115.446l.357-2.808a91.3,91.3,0,0,1-1.5-9.362,26.168,26.168,0,0,1,1.412-11.944c.14-.413,3.845-8.088,3.845-8.088s.778,2.364,3.9,1.805c4.36-.78,5.949-3.143,5.949-3.143l5.634,1.218s2.2,8.816,2.518,11.736c.173,1.566-1.89,10.417-1.89,10.417l3.323,4.97a49.485,49.485,0,0,1-1.745,7.317c-.3.281-5.707,1.536-5.773,1.767s-10.3,4.517-10.3,4.341-4.925-6.033-4.925-6.033Z" transform="translate(-78.864 -48.697)" fill="#64d0ce"/>
            <path id="Path_612163" data-name="Path 612163" d="M131.7,107.756a.8.8,0,0,1-.013.206c-.019.157-.041.35-.069.583-.06.506-.146,1.239-.221,2.146a30.829,30.829,0,0,0,.132,7.089c.364,2.756.9,5.22,1.239,7.012.174.9.307,1.622.392,2.126l.09.581a.746.746,0,0,1,.017.205.782.782,0,0,1-.059-.2l-.129-.573c-.115-.53-.27-1.243-.458-2.111-.38-1.783-.936-4.247-1.3-7.015a28.568,28.568,0,0,1-.071-7.131c.094-.909.2-1.64.288-2.144.043-.252.081-.447.109-.578a.732.732,0,0,1,.055-.2" transform="translate(-77.922 -64.067)" fill="#263238"/>
            <path id="Path_612164" data-name="Path 612164" d="M156.565,158.9a76.22,76.22,0,0,1,4.213,11.626c4.091,15.291,7.553,35.855,8.7,40.046,1.532,5.584,4.962,18.218,6.708,26.632L167.8,240.86S156.822,211.269,153.826,204c-3.1-7.534-8.284-21.746-8.284-21.746l-2.992,56.37-8.032.248s-2.747-15.884-3.839-25.378-1.214-29.036-1.223-34c-.011-6.039,2.607-19.627,2.607-19.627s3.133,2.351,9.007,1.451c4.678-.717,14.378-4.316,14.378-4.316Z" transform="translate(-76.969 -93.348)" fill="#263238"/>
            <path id="Path_612165" data-name="Path 612165" d="M156.038,172.473a3.88,3.88,0,0,0,.047.647c.043.415.116,1.014.214,1.754.2,1.479.5,3.518.9,5.759s.819,4.262,1.148,5.717c.164.728.3,1.315.407,1.719a3.854,3.854,0,0,0,.18.623,3.856,3.856,0,0,0-.1-.641c-.088-.445-.2-1.028-.342-1.732-.291-1.462-.686-3.484-1.087-5.723s-.73-4.271-.964-5.744c-.114-.708-.208-1.3-.28-1.744a3.89,3.89,0,0,0-.127-.636" transform="translate(-92.771 -102.545)" fill="#455a64"/>
            <path id="Path_612166" data-name="Path 612166" d="M160.977,171.859c.011,0-.013-.1-.156-.164a1.025,1.025,0,0,0-.612-.02,1.23,1.23,0,0,0-.4.164.671.671,0,0,0-.274.445,1.028,1.028,0,0,0,.46,1.021,1.058,1.058,0,0,0,1.119.05.729.729,0,0,0,.309-.417,1.039,1.039,0,0,0,.03-.435.875.875,0,0,0-.27-.551c-.116-.1-.2-.1-.2-.093s.064.05.147.15a.885.885,0,0,1,.181.508.707.707,0,0,1-.292.673.884.884,0,0,1-.9-.061.851.851,0,0,1-.384-.813.5.5,0,0,1,.185-.336,1.16,1.16,0,0,1,.338-.162,1.1,1.1,0,0,1,.547-.046c.126.029.167.1.183.087" transform="translate(-94.844 -102.05)" fill="#455a64"/>
            <path id="Path_612167" data-name="Path 612167" d="M150.441,207.53a7.841,7.841,0,0,0,.971.666c.608.4,1.439.957,2.33,1.613s1.67,1.286,2.23,1.749a7.869,7.869,0,0,0,.924.731,5.668,5.668,0,0,0-.827-.843,27.692,27.692,0,0,0-4.578-3.377,5.66,5.66,0,0,0-1.049-.54" transform="translate(-89.446 -123.388)" fill="#455a64"/>
            <path id="Path_612168" data-name="Path 612168" d="M200.6,278.922a1.112,1.112,0,0,0,.347.012c.223,0,.545-.029.941-.074A16.822,16.822,0,0,0,207.813,277c.351-.189.629-.353.815-.477s.286-.2.279-.208a12.385,12.385,0,0,0-1.16.553,21.145,21.145,0,0,1-5.875,1.841,12.526,12.526,0,0,0-1.268.208" transform="translate(-119.27 -164.287)" fill="#455a64"/>
            <path id="Path_612169" data-name="Path 612169" d="M203.962,277.145a3.152,3.152,0,0,0,.823-.219c.5-.166,1.176-.424,1.907-.753s1.374-.666,1.829-.928a3.156,3.156,0,0,0,.71-.47c-.03-.053-1.171.556-2.624,1.208s-2.663,1.1-2.643,1.163" transform="translate(-121.267 -163.367)" fill="#455a64"/>
            <path id="Path_612170" data-name="Path 612170" d="M129.03,344.5l-.042,8.369s-8.52,2.768-8.678,4.313l16.223.664.6-13.037Z" transform="translate(-71.531 -204.826)" fill="#263238"/>
            <path id="Path_612171" data-name="Path 612171" d="M152.962,363.866a.663.663,0,0,1,.427.775.637.637,0,0,1-.764.43.7.7,0,0,1-.448-.823.662.662,0,0,1,.845-.359" transform="translate(-90.46 -216.319)" fill="#e0e0e0"/>
            <path id="Path_612172" data-name="Path 612172" d="M136.526,375.277l.009-1.316-15.558-.145s-.735.285-.675.8Z" transform="translate(-71.525 -222.255)" fill="#455a64"/>
            <path id="Path_612173" data-name="Path 612173" d="M141.074,364.819c0,.079.394.131.773.4s.574.612.648.584c.073-.013-.025-.491-.49-.81s-.945-.249-.93-.176" transform="translate(-83.876 -216.868)" fill="#fff"/>
            <path id="Path_612174" data-name="Path 612174" d="M136.8,366.434c-.021.076.316.225.572.571s.319.7.4.7c.074.015.148-.446-.178-.87s-.787-.479-.791-.4" transform="translate(-81.337 -217.849)" fill="#fff"/>
            <path id="Path_612175" data-name="Path 612175" d="M133.366,369.362c.071.02.2-.371.012-.814s-.549-.63-.585-.565.184.306.33.671.165.7.243.708" transform="translate(-78.949 -218.78)" fill="#fff"/>
            <path id="Path_612176" data-name="Path 612176" d="M141.615,359.837c.03.074.4-.021.845.028s.79.2.834.138-.28-.362-.807-.413-.908.183-.872.247" transform="translate(-84.197 -213.793)" fill="#fff"/>
            <path id="Path_612177" data-name="Path 612177" d="M226.409,342.336l3.108,9.636,4.656,6.913a1.037,1.037,0,0,1-1.289,1.524c-1.947-.892-9.09-4.208-9.278-4.926-.217-.832-3.953-9.947-3.953-9.947Z" transform="translate(-130.596 -203.539)" fill="#263238"/>
            <path id="Path_612178" data-name="Path 612178" d="M239.3,378.7l-10.451-5.525.141.405a1.56,1.56,0,0,0,.682.834c.855.5,3.248,1.837,8.65,4.342a1.037,1.037,0,0,0,.978-.057" transform="translate(-136.063 -221.872)" fill="#455a64"/>
            <g id="Group_1073819" data-name="Group 1073819" transform="translate(92.922 147.505)" opacity="0.6">
              <g id="Group_1073818" data-name="Group 1073818">
                <g id="Group_1073817" data-name="Group 1073817" clip-path="url(#clip-path-9)">
                  <path id="Path_612179" data-name="Path 612179" d="M229.938,363.84a.628.628,0,0,1,.431.718.6.6,0,0,1-.708.434.662.662,0,0,1-.453-.763.626.626,0,0,1,.786-.37" transform="translate(-229.186 -363.814)" fill="#fff"/>
                </g>
              </g>
            </g>
            <path id="Path_612180" data-name="Path 612180" d="M245.592,375.927A2.239,2.239,0,0,1,247.2,374.3c0-.026-.147-.059-.382-.013a1.655,1.655,0,0,0-1.243,1.26c-.043.236-.009.382.017.382" transform="translate(-145.996 -222.52)" fill="#fff"/>
            <path id="Path_612181" data-name="Path 612181" d="M248.408,379.2c.06.026.259-.392.7-.706a8.463,8.463,0,0,1,.892-.445,1.15,1.15,0,0,0-1.022.265c-.506.361-.632.878-.574.886" transform="translate(-147.685 -224.747)" fill="#fff"/>
            <path id="Path_612182" data-name="Path 612182" d="M241.1,372.475a10.288,10.288,0,0,1,1.013-1.163,10.407,10.407,0,0,1,1.3-.824,2.837,2.837,0,0,0-2.316,1.987" transform="translate(-143.343 -220.269)" fill="#fff"/>
            <path id="Path_612183" data-name="Path 612183" d="M238.173,366.863c.045.048.5-.356,1.176-.62s1.281-.289,1.281-.355a2.575,2.575,0,0,0-2.457.975" transform="translate(-141.606 -217.508)" fill="#fff"/>
            <path id="Path_612184" data-name="Path 612184" d="M235.747,360a3.292,3.292,0,0,1,2.585-.8c.009-.026-.137-.109-.4-.16a2.261,2.261,0,0,0-1.942.6c-.19.191-.263.343-.242.359" transform="translate(-140.163 -213.451)" fill="#fff"/>
            <path id="Path_612185" data-name="Path 612185" d="M235.513,355.6a.875.875,0,0,0-.113-.366,2.667,2.667,0,0,0-.617-.847,1.179,1.179,0,0,0-.663-.366.417.417,0,0,0-.413.242.678.678,0,0,0,0,.484,1.466,1.466,0,0,0,1.659.859,1.7,1.7,0,0,0,1.285-1.389.588.588,0,0,0-.135-.473.409.409,0,0,0-.475-.064,1.454,1.454,0,0,0-.516.547,2.979,2.979,0,0,0-.394.97.915.915,0,0,0-.032.382,4.732,4.732,0,0,1,.557-1.265,1.352,1.352,0,0,1,.461-.465.217.217,0,0,1,.259.033.4.4,0,0,1,.071.316,1.518,1.518,0,0,1-1.128,1.192,1.273,1.273,0,0,1-1.419-.709.493.493,0,0,1-.014-.338.226.226,0,0,1,.226-.137,1.069,1.069,0,0,1,.567.3,3.937,3.937,0,0,1,.834,1.1" transform="translate(-138.925 -210.253)" fill="#fff"/>
            <path id="Path_612186" data-name="Path 612186" d="M105.459,107.756l3.869,4,.157,3.48-4.491,1.033h-.229l-.29-2.246-2.588-3.441Z" transform="translate(-60.578 -64.067)" fill="#ae7461"/>
            <path id="Path_612187" data-name="Path 612187" d="M40.741,42.46A23.558,23.558,0,1,1,6.353,10.25,23.558,23.558,0,0,1,40.741,42.46M8.521,42.4A21.981,21.981,0,0,0,38.573,10.313,21.981,21.981,0,0,0,8.521,42.4" transform="translate(0 -1.662)" fill="#455a64"/>
            <path id="Path_612188" data-name="Path 612188" d="M40.741,42.46A23.558,23.558,0,1,1,6.353,10.25,23.558,23.558,0,0,1,40.741,42.46M8.521,42.4A21.981,21.981,0,0,0,38.573,10.313,21.981,21.981,0,0,0,8.521,42.4" transform="translate(0 -1.662)" fill="#263238"/>
            <path id="Path_612189" data-name="Path 612189" d="M42.169,39.664A23.558,23.558,0,1,1,7.782,7.454a23.558,23.558,0,0,1,34.388,32.21M9.949,39.6A21.98,21.98,0,0,0,40,7.517,21.98,21.98,0,0,0,9.949,39.6" transform="translate(-0.849 0)" fill="#455a64"/>
            <path id="Path_612190" data-name="Path 612190" d="M123.166,126.052l.75-.725c.669-.647.294-2.126-.408-2.844l-26.319-27.2-3.519,3.4,26.28,27.163a2.356,2.356,0,0,0,3.216.206" transform="translate(-55.692 -56.649)" fill="#455a64"/>
            <path id="Path_612191" data-name="Path 612191" d="M103.212,103.135a.619.619,0,0,0-.532-.142,1.041,1.041,0,0,0-.418.291,4.774,4.774,0,0,0-1.356,3.3,1.462,1.462,0,0,0,.6,1.361l.528-.306c.164-.212.654-.565.718-.825.273-1.093-.119-1.047.566-2.943a.653.653,0,0,0-.111-.737" transform="translate(-59.994 -61.226)" fill="#ae7461"/>
            <path id="Path_612192" data-name="Path 612192" d="M104.859,105.838a2.6,2.6,0,0,1,.523-.69.76.76,0,0,1,.7-.208c.365.115.542.64.5,1.128a4.248,4.248,0,0,1-.454,1.389l-1.3,2.819-.252-.185a.356.356,0,0,1-.562-.124,1.5,1.5,0,0,1-.124-.768,7.357,7.357,0,0,1,.971-3.362" transform="translate(-61.767 -62.379)" fill="#ae7461"/>
            <path id="Path_612193" data-name="Path 612193" d="M106.932,110.838a6.6,6.6,0,0,1,1.3-1.744,1.6,1.6,0,0,1,.6-.459.568.568,0,0,1,.679.2.785.785,0,0,1-.092.691,32.3,32.3,0,0,1-2.238,3.93l-.777-.783c-.353-.636.223-1.173.522-1.835" transform="translate(-63.201 -64.568)" fill="#ae7461"/>
            <path id="Path_612194" data-name="Path 612194" d="M139.474,127.251l-.714-.151-3.735-3.183-2.043-1.717a1.246,1.246,0,0,0-.6-.276l-2.022-.337a1.15,1.15,0,0,0,.605,1.387l1.108.574,1.014,1.2-.13.259s-6.647,1.031-7.062,1.538a.691.691,0,0,0,.184,1.061,1.076,1.076,0,0,0,.507.046,1.207,1.207,0,0,0,.645,1.429s-.738.968.553,1.429a2.083,2.083,0,0,0,1.106.968,47.871,47.871,0,0,0,5.117.692l4.766.007.957.156Z" transform="translate(-74.748 -72.291)" fill="#ae7461"/>
            <path id="Path_612195" data-name="Path 612195" d="M127.487,136.277a5.3,5.3,0,0,0,1.838.1,7.357,7.357,0,0,0,1.819-.27,9.077,9.077,0,0,0-1.833.062,17.543,17.543,0,0,0-1.825.109" transform="translate(-75.798 -80.906)" fill="#6f4439"/>
            <path id="Path_612196" data-name="Path 612196" d="M129.456,139.984c0,.03.173.053.45.09s.66.089,1.093.116a9.466,9.466,0,0,0,1.1-.024,1.775,1.775,0,0,0,.454-.041c.008-.03-.168-.088-.452-.107s-.672-.01-1.092-.037-.812-.057-1.1-.054-.459.03-.459.058" transform="translate(-76.969 -83.194)" fill="#6f4439"/>
            <path id="Path_612197" data-name="Path 612197" d="M130.494,143.47a7.871,7.871,0,0,0,1.792.24,4.27,4.27,0,0,1,1.226.19c.293.11.427.268.453.244s-.082-.217-.392-.378a3.241,3.241,0,0,0-1.272-.264,7.877,7.877,0,0,0-1.808-.032" transform="translate(-77.586 -85.28)" fill="#6f4439"/>
            <path id="Path_612198" data-name="Path 612198" d="M169.538,84.91s2.81.485,4.94,4.671c1.177,2.314,6.68,16.23,7.006,17.451,1.4,5.221-1.306,8.586-3.907,8.815-2.863.252-17.672-4.526-17.672-4.526l-.327-6.327,13.508,2.051-6.49-12.6s-.249-8.39,2.941-9.537" transform="translate(-94.879 -50.484)" fill="#64d0ce"/>
            <path id="Path_612199" data-name="Path 612199" d="M197.03,142.96a2.3,2.3,0,0,0-.363-.843,5.7,5.7,0,0,0-3.541-2.527,2.3,2.3,0,0,0-.915-.069c0,.036.346.062.879.212a6.425,6.425,0,0,1,3.453,2.464c.316.456.453.777.487.763" transform="translate(-114.281 -82.942)" fill="#263238"/>
            <path id="Path_612200" data-name="Path 612200" d="M173.7,129.967a.224.224,0,0,1-.07-.009l-.2-.043c-.18-.037-.438-.114-.778-.207-.675-.2-1.658-.5-2.895-.89-2.474-.789-5.969-1.944-10.079-3.334l-.062-.021,0-.066c-.1-1.82-.2-3.805-.308-5.875l-.007-.129.128.021,3.323.538,10.187,1.662-.1.138-4.487-8.783-1.257-2.5-.326-.665a1.548,1.548,0,0,1-.1-.233,1.61,1.61,0,0,1,.13.219l.353.652,1.305,2.473L173,121.663l.088.168-.187-.03-10.19-1.642-3.323-.54.121-.109c.1,2.07.2,4.055.294,5.876l-.066-.087,10.052,3.406,2.876.943c.336.1.592.189.768.236l.2.059a.244.244,0,0,1,.066.025" transform="translate(-94.711 -65.147)" fill="#263238"/>
            <path id="Path_612201" data-name="Path 612201" d="M180.046,85.537c.02.033-.382.265-.942.748a8.015,8.015,0,0,0-2.69,4.951c-.1.733-.075,1.2-.114,1.2a1,1,0,0,1-.047-.324,5.172,5.172,0,0,1,.013-.89,6.988,6.988,0,0,1,.243-1.3,7.455,7.455,0,0,1,1.541-2.836,6.965,6.965,0,0,1,.959-.912,5.153,5.153,0,0,1,.74-.5,1,1,0,0,1,.3-.137" transform="translate(-104.784 -50.856)" fill="#263238"/>
          </g>
        </g>
      </g>
    </g>
  </g>
</svg>
