<svg xmlns="http://www.w3.org/2000/svg" width="158.41" height="294.742" viewBox="0 0 158.41 294.742">
  <g id="Group_1074270" data-name="Group 1074270" transform="translate(11630.669 12206.861)">
    <path id="Path_609951" data-name="Path 609951" d="M258.676,26.152a123.244,123.244,0,0,1,42.86,16.966,222.482,222.482,0,0,1,4.472,26.37,123.251,123.251,0,0,0-41.134-20.806,129.618,129.618,0,0,1-6.2-22.53" transform="translate(-11889.345 -12233.014)" fill="#fff"/>
    <path id="Path_609950" data-name="Path 609950" d="M325.764,153.435a82.057,82.057,0,0,1,32.276-39.71c4.906,4.377,8,7.811,12.7,12.7-14.224,9.944-19.7,19.2-21.952,34.622-12.128-3.537-14.035-4.382-23.023-7.608" transform="translate(-11884.763 -12239.055)" fill="#fff"/>
    <path id="Path_609948" data-name="Path 609948" d="M339.878,288.445a196.069,196.069,0,0,0,71.09-18.016c6.275-17.192,8.224-24.394,12.44-40.693a196.09,196.09,0,0,1-69.149,24.427c-8.808,17.447-10.033,21.776-14.38,34.282" transform="translate(-11895.666 -12200.564)" fill="#fff"/>
  </g>
</svg>
